<svg width="273" height="192" viewBox="0 0 273 192" fill="none" xmlns="http://www.w3.org/2000/svg">
<path d="M86.6838 74.8339C86.4392 75.4806 86.1895 76.122 85.9554 76.7739C84.4155 81.0765 82.8808 85.3843 81.3408 89.6869C81.0183 90.584 80.9818 90.6153 80.035 90.6205C78.9997 90.6309 77.9644 90.6309 76.9343 90.6205C76.0239 90.61 75.9459 90.5579 75.6233 89.6713C74.999 87.9555 74.3903 86.2292 73.7712 84.5082C72.6163 81.2956 71.4613 78.0882 70.1763 74.8704C70.1607 75.1781 70.1399 75.4806 70.1399 75.7883C70.1399 80.2108 70.1399 84.6281 70.1399 89.0507C70.1399 89.2645 70.1399 89.4783 70.1399 89.6922C70.1087 90.511 70.0202 90.61 69.1566 90.6205C67.908 90.6309 66.6594 90.6361 65.416 90.6205C64.5264 90.61 64.438 90.5214 64.438 89.5983C64.4276 86.8551 64.438 84.1118 64.438 81.3634C64.438 77.3998 64.438 73.4362 64.438 69.4726C64.438 69.2275 64.4328 68.9823 64.4432 68.7424C64.4796 68.0592 64.5732 67.9289 65.26 67.9289C67.7259 67.9184 70.1867 67.9393 72.6527 67.9289C73.3342 67.9289 73.5943 68.3513 73.792 68.9093C74.7233 71.5535 75.6701 74.1924 76.6118 76.8313C77.2361 78.5784 77.8656 80.3203 78.5159 82.1144C78.8176 81.9475 78.8332 81.6919 78.9061 81.4833C80.3524 77.3372 81.7934 73.1963 83.2345 69.0501C83.6247 67.9236 83.6195 67.9132 84.764 67.9132C87.0167 67.9132 89.2642 67.908 91.5169 67.9132C92.5366 67.9132 92.6094 67.9914 92.6094 69.0084C92.6094 75.8404 92.6094 82.6672 92.6094 89.4992C92.6094 89.6504 92.6042 89.8017 92.599 89.9581C92.5938 90.3545 92.4117 90.6048 91.9955 90.6048C90.5076 90.61 89.0145 90.61 87.5266 90.6048C87.126 90.6048 86.9127 90.3806 86.9075 89.9738C86.9023 89.6974 86.8971 89.4262 86.8971 89.1498C86.8971 84.7272 86.8971 80.3099 86.8971 75.8873C86.8971 75.5536 86.8971 75.2198 86.8971 74.886C86.8346 74.8652 86.7722 74.8443 86.715 74.8286L86.6838 74.8339Z" fill="#296CB4"/>
<path d="M205.857 81.5616C205.982 81.1756 205.93 80.8366 205.93 80.5029C205.93 76.8104 205.93 73.1233 205.93 69.4308C205.93 69.1857 205.919 68.9406 205.935 68.7007C205.976 68.0697 206.07 67.9497 206.7 67.9341C207.672 67.908 208.645 67.9236 209.618 67.9236C209.982 67.9236 210.347 67.9132 210.716 67.9236C211.517 67.9549 211.611 68.0488 211.642 68.8207C211.647 68.9719 211.642 69.1231 211.642 69.2796C211.642 75.9291 211.642 82.5733 211.642 89.2228C211.642 90.158 211.167 90.6274 210.216 90.6309C208.697 90.6309 207.173 90.5996 205.654 90.6465C204.92 90.6674 204.483 90.3806 204.098 89.7808C201.518 85.7181 198.911 81.6711 196.305 77.6188C196.081 77.2694 195.894 76.8835 195.509 76.5497C195.327 76.92 195.4 77.2537 195.4 77.5719C195.395 81.4155 195.4 85.2592 195.4 89.0976C195.4 89.3427 195.41 89.5878 195.395 89.8277C195.353 90.4692 195.259 90.6048 194.651 90.6153C193.251 90.6413 191.852 90.6413 190.452 90.6153C189.828 90.6048 189.734 90.4797 189.693 89.8434C189.677 89.6296 189.687 89.4157 189.687 89.2019C189.687 82.5837 189.687 75.9656 189.687 69.3474C189.687 68.3982 190.154 67.9219 191.087 67.9184C192.668 67.9184 194.255 67.9601 195.832 67.9028C196.638 67.8715 197.106 68.1844 197.528 68.8519C200.129 72.9407 202.761 77.0034 205.389 81.0765C205.498 81.2486 205.55 81.4781 205.852 81.5616H205.857Z" fill="#296CB4"/>
<path d="M166.453 129.881C166.172 130.043 165.891 129.991 165.621 129.991C163.977 129.991 162.333 129.97 160.694 130.001C160.065 130.011 159.607 129.829 159.196 129.333C157.391 127.153 155.554 125 153.733 122.83C153.171 122.157 151.99 121.823 151.194 122.131C150.966 122.22 150.861 122.387 150.846 122.616C150.83 122.861 150.825 123.101 150.825 123.346C150.825 125.234 150.83 127.127 150.82 129.015C150.815 129.881 150.721 129.975 149.883 129.985C148.546 130.001 147.204 130.001 145.867 129.985C145.134 129.975 145.035 129.865 144.993 129.135C144.983 128.953 144.988 128.77 144.988 128.588C144.988 122.032 144.988 115.476 144.988 108.921C144.988 107.92 145.499 107.417 146.523 107.414C150.357 107.414 154.191 107.388 158.02 107.429C160.236 107.455 162.213 108.18 163.727 109.87C166.906 113.406 165.98 119.753 160.637 121.464C159.477 121.834 159.487 121.808 160.325 122.736C162.317 124.958 164.294 127.19 166.271 129.422C166.37 129.532 166.485 129.641 166.448 129.881H166.453ZM154.462 117.135C155.403 117.135 156.345 117.14 157.287 117.13C158.088 117.119 158.769 116.796 159.274 116.17C159.768 115.555 159.877 114.851 159.56 114.11C159.159 113.187 158.441 112.634 157.453 112.608C155.481 112.556 153.51 112.572 151.533 112.592C150.96 112.592 150.851 112.728 150.835 113.312C150.809 114.313 150.815 115.32 150.835 116.321C150.851 117.004 150.955 117.109 151.642 117.124C152.583 117.145 153.525 117.124 154.467 117.124L154.462 117.135Z" fill="#296CB4"/>
<path d="M132.538 82.3073C132.528 82.6985 132.752 82.8393 132.908 83.0166C134.843 85.2018 136.789 87.387 138.724 89.5774C138.953 89.8381 139.395 90.0885 139.223 90.464C139.078 90.7925 138.615 90.6204 138.297 90.6204C136.716 90.6361 135.134 90.6048 133.553 90.6361C132.887 90.6517 132.403 90.4379 131.976 89.9216C130.218 87.7833 128.382 85.7077 126.675 83.5225C125.978 82.6307 125.172 82.5107 124.194 82.5994C123.824 82.6307 123.637 82.8132 123.632 83.1783C123.626 83.7259 123.621 84.2735 123.621 84.8263C123.621 86.443 123.632 88.0597 123.616 89.6713C123.611 90.5161 123.507 90.61 122.659 90.6204C121.41 90.6361 120.167 90.6361 118.918 90.6204C118.008 90.61 117.919 90.5214 117.909 89.6243C117.899 88.1328 117.909 86.636 117.909 85.1444C117.909 79.9291 117.909 74.7191 117.909 69.5038C117.909 69.3213 117.909 69.1388 117.909 68.9562C117.93 68.0123 118.003 67.9236 118.97 67.9184C122.711 67.9132 126.451 67.8975 130.192 67.9236C131.316 67.934 132.429 68.1114 133.506 68.4816C136.315 69.4465 138.375 71.9289 138.37 75.3919C138.37 78.5732 136.274 81.2382 133.178 82.13C132.975 82.1874 132.772 82.2395 132.538 82.3021V82.3073ZM127.201 77.7648C128.049 77.7648 128.897 77.7648 129.75 77.7648C130.213 77.7648 130.655 77.6866 131.076 77.4988C131.987 77.0973 132.585 76.2367 132.523 75.3762C132.445 74.3592 131.867 73.6917 130.936 73.3475C130.546 73.2015 130.109 73.1076 129.693 73.1024C127.903 73.0711 126.113 73.0711 124.329 73.0815C123.751 73.0815 123.647 73.2015 123.637 73.8012C123.616 74.8651 123.616 75.929 123.637 76.993C123.647 77.6449 123.741 77.7387 124.381 77.7492C125.322 77.77 126.259 77.7544 127.201 77.7544V77.7648Z" fill="#296CB4"/>
<path d="M77.9435 118.632C77.9435 115.429 77.9435 112.233 77.9435 109.03C77.9435 108.785 77.9383 108.54 77.9435 108.3C77.9747 107.544 78.0579 107.455 78.7863 107.419C78.9996 107.408 79.2129 107.419 79.4262 107.419C84.5974 107.419 89.7687 107.419 94.94 107.419C95.925 107.419 96.4192 107.928 96.4227 108.947C96.4227 109.74 96.4227 110.532 96.4227 111.325C96.4227 112.566 96.4071 112.582 95.1273 112.582C91.8133 112.582 88.4993 112.582 85.1801 112.582C84.2645 112.582 83.8067 113.034 83.8067 113.938C83.8067 114.486 83.8067 115.033 83.8171 115.586C83.8223 115.988 84.02 116.212 84.431 116.222C84.7067 116.233 84.9772 116.238 85.2529 116.238C88.3536 116.238 91.4595 116.238 94.5602 116.238C94.8047 116.238 95.0492 116.227 95.2885 116.248C95.9284 116.295 96.0533 116.389 96.0689 117.004C96.0949 118.131 96.0949 119.263 96.0689 120.389C96.0585 121.046 95.9284 121.156 95.2313 121.182C94.685 121.203 94.1388 121.192 93.5873 121.192C90.7884 121.192 87.9895 121.192 85.1905 121.192C84.946 121.192 84.7015 121.198 84.4622 121.203C84.0668 121.203 83.8171 121.38 83.8171 121.797C83.8119 122.679 83.8119 123.565 83.8171 124.447C83.8171 124.817 84.0512 124.989 84.4102 124.999C84.6859 125.01 84.9564 125.015 85.2321 125.015C88.4577 125.015 91.678 125.015 94.9035 125.015C95.1793 125.015 95.4498 125.02 95.7255 125.026C96.1677 125.026 96.4071 125.234 96.4071 125.693C96.4071 126.913 96.4071 128.134 96.4071 129.349C96.4071 129.808 96.1469 130.001 95.7099 130.001C95.4966 130.001 95.2833 130.006 95.07 130.006C89.8103 130.006 84.5454 130.006 79.2857 130.006C77.9487 130.006 77.9435 130.006 77.9435 128.614C77.9435 125.292 77.9435 121.969 77.9435 118.647V118.632Z" fill="#296CB4"/>
<path d="M167.769 118.658C167.769 115.393 167.769 112.133 167.769 108.869C167.769 108.624 167.759 108.378 167.78 108.139C167.827 107.56 167.92 107.471 168.503 107.424C168.716 107.408 168.93 107.414 169.143 107.414C174.377 107.414 179.605 107.414 184.839 107.414C184.958 107.414 185.083 107.414 185.203 107.414C186.16 107.434 186.228 107.497 186.238 108.472C186.249 109.51 186.249 110.548 186.238 111.581C186.228 112.472 186.139 112.566 185.229 112.572C181.853 112.582 178.476 112.572 175.1 112.572C174.118 112.572 173.626 113.053 173.622 114.016C173.622 114.506 173.607 114.991 173.633 115.482C173.664 116.061 173.783 116.17 174.34 116.217C174.579 116.238 174.824 116.227 175.069 116.227C178.2 116.227 181.332 116.227 184.469 116.227C184.745 116.227 185.016 116.227 185.291 116.248C185.65 116.269 185.858 116.467 185.858 116.832C185.864 118.084 185.864 119.33 185.858 120.582C185.858 120.947 185.645 121.14 185.286 121.156C185.01 121.171 184.74 121.171 184.464 121.171C181.332 121.171 178.2 121.171 175.063 121.171C174.788 121.171 174.517 121.171 174.241 121.187C173.888 121.198 173.648 121.364 173.643 121.735C173.633 122.647 173.633 123.565 173.648 124.478C173.653 124.796 173.877 124.963 174.189 124.979C174.465 124.994 174.736 124.999 175.011 124.999C178.268 124.999 181.52 124.999 184.776 124.999C185.052 124.999 185.323 125.005 185.598 125.015C186.004 125.026 186.223 125.234 186.223 125.641C186.228 126.861 186.228 128.082 186.223 129.297C186.223 129.735 186.015 129.98 185.557 129.98C185.343 129.98 185.13 129.99 184.917 129.99C179.652 129.99 174.392 129.99 169.127 129.99C168.219 129.99 167.763 129.535 167.759 128.624C167.759 125.302 167.759 121.98 167.759 118.653L167.769 118.658Z" fill="#296CB4"/>
<path d="M96.2302 79.2251C96.2302 76.0542 96.2302 72.8833 96.2302 69.7124C96.2302 69.5299 96.2302 69.3474 96.2302 69.1648C96.2458 68.0018 96.3187 67.9184 97.4788 67.9184C102.801 67.9184 108.128 67.9184 113.45 67.9184C113.601 67.9184 113.757 67.9184 113.908 67.9236C114.548 67.9758 114.673 68.0696 114.689 68.685C114.709 69.9054 114.715 71.1258 114.689 72.3409C114.678 72.9198 114.548 73.0241 113.981 73.0659C113.711 73.0867 113.435 73.0763 113.159 73.0763C109.934 73.0763 106.708 73.0763 103.488 73.0763C103.212 73.0763 102.941 73.0763 102.666 73.0867C102.302 73.0972 102.099 73.2849 102.099 73.6552C102.093 74.5105 102.099 75.3606 102.099 76.2159C102.099 76.6227 102.296 76.8365 102.707 76.8417C102.952 76.8417 103.196 76.8521 103.436 76.8521C106.63 76.8521 109.824 76.8521 113.019 76.8521C113.294 76.8521 113.565 76.8574 113.841 76.8626C114.252 76.8626 114.465 77.0816 114.47 77.4832C114.475 78.6723 114.475 79.8614 114.47 81.0504C114.47 81.4572 114.236 81.6606 113.83 81.6606C113.554 81.6606 113.284 81.6711 113.008 81.6711C109.814 81.6711 106.62 81.6711 103.425 81.6711C103.181 81.6711 102.936 81.6763 102.697 81.6815C102.281 81.6867 102.099 81.9162 102.099 82.3177C102.099 83.2043 102.099 84.0857 102.099 84.9723C102.099 85.4365 102.338 85.6294 102.78 85.6242C103.025 85.6242 103.269 85.6242 103.508 85.6242C106.734 85.6242 109.96 85.6242 113.18 85.6242C113.424 85.6242 113.669 85.6138 113.908 85.6294C114.559 85.6712 114.678 85.7546 114.694 86.3752C114.72 87.533 114.72 88.6908 114.694 89.8486C114.678 90.4692 114.559 90.5579 113.913 90.6048C113.731 90.6152 113.549 90.61 113.367 90.61C108.133 90.61 102.905 90.61 97.6713 90.61C96.2666 90.61 96.2406 90.5839 96.2406 89.181C96.2406 85.8589 96.2406 82.5368 96.2406 79.2095L96.2302 79.2251Z" fill="#296CB4"/>
<path d="M175.797 67.9184C176.707 67.9184 177.623 67.9497 178.534 67.908C179.205 67.8819 179.579 68.127 179.845 68.7633C180.994 71.5221 182.186 74.2602 183.361 77.0034C185.151 81.1756 186.936 85.353 188.725 89.5252C188.798 89.6921 188.886 89.8538 188.938 90.0311C189.069 90.4483 188.99 90.6048 188.527 90.6048C186.733 90.6257 184.938 90.61 183.143 90.6048C182.706 90.6048 182.498 90.3232 182.352 89.9633C181.988 89.0246 181.619 88.091 181.254 87.1523C180.849 86.0988 180.807 86.0623 179.657 86.0623C176.947 86.0623 174.241 86.0779 171.531 86.0519C170.86 86.0467 170.459 86.2344 170.236 86.9072C169.897 87.9189 169.455 88.8942 169.086 89.8955C168.904 90.391 168.618 90.6309 168.077 90.6257C166.495 90.61 164.913 90.6309 163.332 90.6152C162.505 90.6048 162.421 90.464 162.754 89.6869C164.201 86.297 165.652 82.9018 167.104 79.5171C168.555 76.1272 170.017 72.7425 171.463 69.3474C172.072 67.9184 172.062 67.9184 173.591 67.9132C174.319 67.9132 175.053 67.9132 175.781 67.9132L175.797 67.9184ZM175.657 73.8064C175.584 73.9055 175.511 73.9681 175.48 74.0463C174.632 76.1324 173.778 78.2133 172.951 80.3046C172.707 80.9253 172.8 81.0661 173.477 81.0713C174.965 81.0921 176.453 81.0869 177.94 81.0713C178.612 81.0661 178.679 80.9513 178.424 80.2994C177.607 78.2342 176.78 76.1742 175.953 74.1141C175.906 73.9994 175.865 73.8847 175.657 73.8064Z" fill="#296CB4"/>
<path d="M50.4276 67.9236C51.3692 67.9236 52.3161 67.9445 53.2577 67.9184C53.8925 67.9027 54.2514 68.1583 54.5011 68.7528C56.0879 72.513 57.7111 76.2628 59.3186 80.0178C60.6765 83.1835 62.0291 86.3491 63.3818 89.52C63.8136 90.5318 63.7615 90.6257 62.7054 90.6309C61.2123 90.6413 59.7244 90.61 58.2313 90.6413C57.5602 90.657 57.1596 90.4223 56.9307 89.7704C56.5821 88.7638 56.1399 87.7886 55.7809 86.7872C55.5989 86.2761 55.3023 86.0727 54.7665 86.0727C51.8479 86.0884 48.9241 86.0884 46.0055 86.0727C45.4696 86.0727 45.1679 86.2761 44.9858 86.782C44.5904 87.8407 44.1378 88.8733 43.7424 89.9268C43.5551 90.4275 43.243 90.6413 42.7123 90.6361C41.0996 90.6204 39.4868 90.6413 37.874 90.6257C37.1457 90.6204 37.078 90.4849 37.3746 89.8017C40.3556 82.8549 43.347 75.9134 46.302 68.9562C46.6194 68.2052 47.0304 67.8454 47.8732 67.908C48.7212 67.9706 49.5744 67.9236 50.4276 67.9236ZM50.2663 73.8221C50.2507 73.8534 50.1987 73.9316 50.1675 74.0098C49.2987 76.1481 48.4194 78.2863 47.5662 80.4298C47.3633 80.9461 47.457 81.0609 48.0501 81.0713C49.5068 81.0869 50.9635 81.0869 52.4201 81.0713C53.2734 81.0609 53.3462 80.9513 53.0392 80.1691C52.2589 78.1925 51.4681 76.2159 50.6721 74.2445C50.6097 74.0828 50.5785 73.8794 50.2663 73.8169V73.8221Z" fill="#296CB4"/>
<path d="M216.178 129.996C214.233 129.996 212.287 129.996 210.336 129.996C209.332 129.996 209.259 129.917 209.249 128.89C209.238 127.946 209.233 126.997 209.249 126.053C209.264 125.125 209.374 125.01 210.326 125.01C213.426 124.999 216.532 125.01 219.633 125.01C220.028 125.01 220.424 125.01 220.819 124.999C221.157 124.999 221.485 124.932 221.797 124.796C222.468 124.499 222.864 123.993 222.89 123.247C222.916 122.496 222.51 121.98 221.88 121.636C221.443 121.396 220.949 121.37 220.46 121.37C218.785 121.37 217.115 121.359 215.44 121.37C214.576 121.37 213.744 121.234 212.927 120.984C210.731 120.311 209.363 118.835 208.827 116.608C208.5 115.257 208.463 113.896 208.838 112.54C209.436 110.381 210.841 108.957 212.885 108.144C214.082 107.669 215.341 107.429 216.631 107.424C220.221 107.408 223.81 107.414 227.4 107.414C227.551 107.414 227.702 107.414 227.858 107.424C228.212 107.44 228.383 107.617 228.227 107.956C227.572 109.364 226.906 110.767 226.235 112.17C226.063 112.525 225.73 112.577 225.382 112.577C224.622 112.577 223.863 112.577 223.098 112.577C221.027 112.577 218.962 112.577 216.891 112.577C216.433 112.577 215.981 112.587 215.539 112.744C214.628 113.062 214.248 113.667 214.352 114.642C214.446 115.482 215.039 116.118 215.898 116.18C216.683 116.238 217.479 116.201 218.27 116.217C219.877 116.253 221.485 116.165 223.098 116.358C227.692 116.911 229.117 120.713 228.675 123.737C228.612 124.16 228.55 124.582 228.441 124.994C227.572 128.259 225.069 129.85 222.104 129.959C220.127 130.032 218.15 129.975 216.173 129.975V129.985L216.178 129.996Z" fill="#296CB4"/>
<path d="M195.587 129.996C193.673 129.996 191.753 129.996 189.838 129.996C188.668 129.996 188.631 129.954 188.626 128.744C188.626 127.983 188.626 127.221 188.626 126.46C188.626 125.036 188.652 125.01 190.036 125.01C193.23 125.01 196.425 125.01 199.619 125.01C200.077 125.01 200.529 125.02 200.977 124.88C201.778 124.619 202.231 124.076 202.277 123.299C202.319 122.559 201.882 121.902 201.149 121.578C200.717 121.391 200.264 121.37 199.806 121.37C198.074 121.37 196.336 121.38 194.604 121.364C193.433 121.354 192.31 121.098 191.259 120.561C189.511 119.664 188.522 118.178 188.142 116.285C187.929 115.237 187.939 114.152 188.122 113.098C188.512 110.856 189.812 109.296 191.852 108.337C193.111 107.747 194.453 107.45 195.832 107.434C199.515 107.398 203.193 107.414 206.876 107.419C207.75 107.419 207.818 107.528 207.47 108.3C207.095 109.135 206.705 109.959 206.32 110.788C206.205 111.038 206.044 111.273 205.971 111.534C205.706 112.415 205.128 112.645 204.244 112.608C202.636 112.54 201.018 112.587 199.406 112.587C198.308 112.587 197.215 112.587 196.118 112.587C195.785 112.587 195.452 112.598 195.124 112.691C194.089 112.978 193.641 113.604 193.751 114.637C193.844 115.544 194.495 116.186 195.462 116.207C197.195 116.248 198.932 116.233 200.665 116.222C201.492 116.222 202.309 116.316 203.11 116.473C206.065 117.051 207.886 119.091 208.125 122.173C208.266 123.977 207.912 125.719 206.85 127.221C205.545 129.073 203.667 129.917 201.445 129.97C199.499 130.017 197.554 129.98 195.603 129.98V129.991L195.587 129.996Z" fill="#296CB4"/>
<path d="M122.139 118.658C122.139 115.398 122.139 112.139 122.139 108.879C122.139 108.603 122.144 108.331 122.154 108.055C122.17 107.659 122.362 107.434 122.773 107.429C122.987 107.429 123.2 107.419 123.413 107.419C127.274 107.419 131.134 107.419 134.994 107.419C136.841 107.419 138.521 107.946 140.004 109.082C141.32 110.089 142.121 111.419 142.512 113.004C143.001 114.997 142.813 116.931 141.898 118.783C141.133 120.327 139.9 121.364 138.36 122.069C136.747 122.809 135.015 122.919 133.277 122.976C131.94 123.018 130.603 122.981 129.266 122.986C128.028 122.986 128.017 123.002 128.017 124.285C128.017 125.839 128.023 127.393 128.017 128.947C128.012 129.912 127.934 129.985 126.972 129.99C125.697 130.001 124.417 130.001 123.143 129.99C122.243 129.98 122.149 129.897 122.149 128.989C122.139 125.547 122.149 122.105 122.149 118.658H122.139ZM131.56 117.667C131.56 117.667 131.56 117.667 131.56 117.662C132.502 117.662 133.449 117.703 134.385 117.651C136.331 117.542 137.455 115.69 136.628 114C136.123 112.968 135.202 112.629 134.141 112.608C132.377 112.582 130.614 112.587 128.85 112.603C128.137 112.608 128.033 112.702 128.023 113.38C128.002 114.538 128.002 115.695 128.023 116.853C128.033 117.552 128.132 117.646 128.824 117.662C129.734 117.682 130.65 117.662 131.56 117.662V117.667Z" fill="#296CB4"/>
<path d="M121.379 129.824C121.14 130.053 120.885 129.99 120.651 129.99C118.856 129.996 117.061 129.975 115.266 130.001C114.657 130.011 114.246 129.813 113.877 129.318C112.587 127.581 111.26 125.876 109.949 124.16C109.876 124.061 109.809 123.962 109.736 123.863C109.226 123.216 109.169 123.205 108.685 123.852C107.384 125.584 106.068 127.294 104.819 129.062C104.325 129.766 103.763 130.037 102.915 130.006C101.365 129.949 99.8146 129.99 98.2643 129.99C98.0822 129.99 97.9001 130.001 97.718 129.98C97.2654 129.933 97.177 129.766 97.4579 129.391C97.9521 128.734 98.4724 128.097 98.9874 127.456C101.084 124.848 103.186 122.241 105.288 119.628C105.902 118.866 105.896 118.84 105.288 118.084C102.733 114.903 100.179 111.721 97.6348 108.53C97.4163 108.253 96.9793 107.966 97.1301 107.622C97.3174 107.21 97.8377 107.414 98.2071 107.408C99.8198 107.393 101.433 107.424 103.045 107.388C103.716 107.372 104.174 107.591 104.585 108.144C105.933 109.948 107.327 111.716 108.716 113.495C109.356 114.313 109.434 114.303 110.1 113.448C111.499 111.643 112.904 109.844 114.288 108.024C114.61 107.601 114.969 107.382 115.51 107.393C117.243 107.414 118.975 107.398 120.713 107.403C120.864 107.403 121.02 107.403 121.166 107.429C121.394 107.466 121.478 107.607 121.374 107.82C121.306 107.956 121.212 108.076 121.114 108.196C118.58 111.356 116.046 114.512 113.513 117.672C113.456 117.745 113.393 117.813 113.341 117.886C112.686 118.715 112.691 118.71 113.372 119.57C115.947 122.814 118.523 126.058 121.093 129.302C121.207 129.443 121.348 129.568 121.379 129.818V129.824Z" fill="#296CB4"/>
<path d="M162.619 73.4309C161.709 73.4309 160.793 73.4049 159.883 73.4362C157.932 73.504 156.433 74.3593 155.565 76.1481C154.545 78.2394 154.529 80.3985 155.388 82.5264C156.132 84.3726 157.651 85.2487 159.57 85.4626C160.262 85.5408 160.965 85.5356 161.662 85.5825C162.193 85.619 162.271 85.7285 162.052 86.2031C161.464 87.4757 160.84 88.7273 160.252 89.9998C160.007 90.537 159.586 90.6205 159.061 90.6361C154.071 90.7613 150.617 87.8199 149.41 83.1053C148.775 80.6176 148.775 78.1038 149.42 75.5953C150.513 71.3553 153.817 68.5286 158.171 68.0801C160.632 67.8245 163.093 67.9445 165.553 67.9288C166.339 67.9236 166.485 68.0749 166.495 68.8259C166.516 70.0775 166.516 71.324 166.495 72.5756C166.485 73.3006 166.36 73.4101 165.621 73.4257C164.617 73.4466 163.613 73.4257 162.609 73.4257L162.619 73.4309Z" fill="#296CB4"/>
<path d="M140.55 79.2564C140.55 75.9656 140.55 72.6747 140.55 69.3787C140.55 69.1023 140.56 68.8311 140.56 68.5547C140.566 68.1375 140.8 67.9341 141.19 67.9341C142.709 67.9288 144.228 67.9288 145.753 67.9341C146.148 67.9341 146.372 68.1583 146.398 68.5547C146.413 68.8259 146.418 69.1023 146.418 69.3787C146.418 75.9916 146.418 82.6046 146.418 89.2228C146.418 89.3427 146.418 89.4679 146.418 89.5878C146.392 90.5422 146.33 90.6152 145.352 90.6205C144.166 90.6309 142.98 90.6257 141.793 90.6205C140.586 90.6205 140.55 90.584 140.55 89.4001C140.55 86.4743 140.55 83.5486 140.55 80.6228C140.55 80.1639 140.55 79.7101 140.55 79.2512V79.2564Z" fill="#296CB4"/>
</svg>
