<svg width="192" height="63" viewBox="0 0 192 63" fill="none" xmlns="http://www.w3.org/2000/svg">
<path d="M49.474 6.93323C49.2295 7.57992 48.9798 8.2214 48.7457 8.87331C47.2058 13.1759 45.671 17.4837 44.1311 21.7863C43.8086 22.6833 43.7721 22.7146 42.8253 22.7198C41.79 22.7303 40.7547 22.7303 39.7246 22.7198C38.8142 22.7094 38.7361 22.6573 38.4136 21.7707C37.7893 20.0548 37.1806 18.3286 36.5615 16.6075C35.4066 13.3949 34.2516 10.1876 32.9666 6.96973C32.951 7.27743 32.9302 7.57993 32.9302 7.88763C32.9302 12.3102 32.9302 16.7275 32.9302 21.15C32.9302 21.3639 32.9302 21.5777 32.9302 21.7915C32.899 22.6103 32.8105 22.7094 31.9469 22.7198C30.6983 22.7303 29.4497 22.7355 28.2063 22.7198C27.3167 22.7094 27.2283 22.6208 27.2283 21.6976C27.2179 18.9544 27.2283 16.2112 27.2283 13.4627C27.2283 9.49914 27.2283 5.53554 27.2283 1.57194C27.2283 1.32682 27.2231 1.0817 27.2335 0.841797C27.2699 0.158597 27.3635 0.028217 28.0502 0.028217C30.5162 0.0177864 32.977 0.0386475 35.443 0.028217C36.1245 0.028217 36.3846 0.450656 36.5823 1.00869C37.5136 3.65283 38.4604 6.29175 39.4021 8.93068C40.0263 10.6778 40.6559 12.4197 41.3062 14.2137C41.6079 14.0468 41.6235 13.7913 41.6963 13.5827C43.1426 9.43656 44.5837 5.29563 46.0248 1.1495C46.415 0.0229984 46.4098 0.0125718 47.5543 0.0125718C49.807 0.0125718 52.0545 0.00735654 54.3072 0.0125718C55.3268 0.0125718 55.3997 0.0908039 55.3997 1.10778C55.3997 7.93978 55.3997 14.7666 55.3997 21.5986C55.3997 21.7498 55.3945 21.901 55.3893 22.0575C55.3841 22.4539 55.202 22.7042 54.7858 22.7042C53.2979 22.7094 51.8048 22.7094 50.3169 22.7042C49.9163 22.7042 49.703 22.4799 49.6978 22.0731C49.6926 21.7967 49.6874 21.5255 49.6874 21.2491C49.6874 16.8266 49.6874 12.4093 49.6874 7.98671C49.6874 7.65293 49.6874 7.31916 49.6874 6.98538C49.6249 6.96452 49.5625 6.94366 49.5053 6.92801L49.474 6.93323Z" fill="#296CB4"/>
<path d="M168.647 13.6609C168.772 13.275 168.72 12.936 168.72 12.6022C168.72 8.90981 168.72 5.22262 168.72 1.53021C168.72 1.28509 168.709 1.03997 168.725 0.800068C168.767 0.16902 168.86 0.0490686 169.49 0.0334228C170.463 0.00734651 171.436 0.022998 172.408 0.022998C172.773 0.022998 173.137 0.0125675 173.506 0.022998C174.307 0.0542896 174.401 0.148165 174.432 0.920024C174.437 1.07127 174.432 1.2225 174.432 1.37896C174.432 8.02843 174.432 14.6727 174.432 21.3221C174.432 22.2574 173.957 22.7268 173.007 22.7303C171.488 22.7303 169.963 22.699 168.444 22.7459C167.711 22.7668 167.274 22.4799 166.889 21.8802C164.308 17.8175 161.702 13.7704 159.095 9.71817C158.872 9.36875 158.684 8.98282 158.299 8.64904C158.117 9.01933 158.19 9.35311 158.19 9.67124C158.185 13.5149 158.19 17.3585 158.19 21.197C158.19 21.4421 158.2 21.6872 158.185 21.9271C158.143 22.5686 158.05 22.7042 157.441 22.7146C156.041 22.7407 154.642 22.7407 153.243 22.7146C152.618 22.7042 152.525 22.579 152.483 21.9428C152.467 21.7289 152.478 21.5151 152.478 21.3013C152.478 14.6831 152.478 8.06494 152.478 1.44676C152.478 0.497585 152.944 0.0212545 153.877 0.0177777C155.459 0.0177777 157.046 0.0595004 158.622 0.00213252C159.428 -0.0291591 159.896 0.283761 160.318 0.951315C162.919 5.04008 165.552 9.10278 168.179 13.1759C168.288 13.348 168.34 13.5775 168.642 13.6609H168.647Z" fill="#296CB4"/>
<path d="M129.244 61.9804C128.963 62.142 128.682 62.0899 128.411 62.0899C126.767 62.0899 125.123 62.069 123.484 62.1003C122.855 62.1107 122.397 61.9282 121.986 61.4328C120.181 59.2528 118.344 57.0989 116.524 54.9293C115.962 54.2565 114.781 53.9228 113.985 54.2305C113.756 54.3191 113.652 54.486 113.636 54.7155C113.621 54.9606 113.615 55.2005 113.615 55.4456C113.615 57.3335 113.621 59.2267 113.61 61.1146C113.605 61.9804 113.511 62.0742 112.674 62.0847C111.337 62.1003 109.994 62.1003 108.657 62.0847C107.924 62.0742 107.825 61.9647 107.783 61.2346C107.773 61.052 107.778 60.8695 107.778 60.687C107.778 54.1314 107.778 47.5758 107.778 41.0202C107.778 40.0189 108.29 39.5165 109.313 39.513C113.147 39.513 116.981 39.4869 120.81 39.5286C123.027 39.5547 125.004 40.2796 126.517 41.9694C129.696 45.5053 128.77 51.8523 123.427 53.5629C122.267 53.9332 122.277 53.9071 123.115 54.8354C125.108 57.0571 127.085 59.2893 129.061 61.5214C129.16 61.6309 129.275 61.7404 129.238 61.9804H129.244ZM117.252 49.2342C118.194 49.2342 119.135 49.2395 120.077 49.229C120.878 49.2186 121.56 48.8953 122.064 48.2694C122.558 47.654 122.668 46.95 122.35 46.2094C121.95 45.2863 121.232 44.7335 120.243 44.7074C118.272 44.6552 116.3 44.6709 114.323 44.6917C113.751 44.6917 113.641 44.8273 113.626 45.4115C113.6 46.4128 113.605 47.4193 113.626 48.4207C113.641 49.1039 113.745 49.2082 114.432 49.2238C115.374 49.2447 116.315 49.2238 117.257 49.2238L117.252 49.2342Z" fill="#296CB4"/>
<path d="M95.3286 14.4067C95.3182 14.7978 95.5419 14.9386 95.6979 15.1159C97.6333 17.3011 99.579 19.4863 101.514 21.6768C101.743 21.9375 102.185 22.1879 102.014 22.5634C101.868 22.8919 101.405 22.7198 101.088 22.7198C99.5062 22.7354 97.9246 22.7042 96.343 22.7354C95.6771 22.7511 95.1933 22.5373 94.7667 22.021C93.0083 19.8827 91.1718 17.807 89.4654 15.6218C88.7682 14.73 87.9619 14.6101 86.9838 14.6987C86.6144 14.73 86.4271 14.9126 86.4219 15.2776C86.4167 15.8252 86.4115 16.3728 86.4115 16.9256C86.4115 18.5424 86.4219 20.1591 86.4063 21.7706C86.4011 22.6155 86.2971 22.7094 85.4491 22.7198C84.2005 22.7354 82.9571 22.7354 81.7085 22.7198C80.7981 22.7094 80.7096 22.6207 80.6992 21.7237C80.6888 20.2321 80.6992 18.7353 80.6992 17.2438C80.6992 12.0285 80.6992 6.81847 80.6992 1.6032C80.6992 1.42067 80.6992 1.23813 80.6992 1.0556C80.72 0.111633 80.7928 0.0229709 81.7605 0.0177556C85.5011 0.0125404 89.2417 -0.00310033 92.9823 0.022976C94.106 0.0334065 95.2193 0.210721 96.2962 0.581005C99.1056 1.54583 101.166 4.0283 101.161 7.49123C101.161 10.6725 99.064 13.3375 95.9685 14.2294C95.7656 14.2867 95.5627 14.3389 95.3286 14.4015V14.4067ZM89.9908 9.86418C90.8388 9.86418 91.6868 9.86418 92.54 9.86418C93.0031 9.86418 93.4453 9.78595 93.8667 9.5982C94.7771 9.19663 95.3754 8.33611 95.313 7.47559C95.2349 6.45861 94.6574 5.79106 93.7262 5.44685C93.336 5.30082 92.899 5.20695 92.4828 5.20173C90.6932 5.17044 88.9035 5.17044 87.1191 5.18087C86.5416 5.18087 86.4375 5.30082 86.4271 5.90057C86.4063 6.96449 86.4063 8.02841 86.4271 9.09232C86.4375 9.74423 86.5312 9.8381 87.1711 9.84853C88.1127 9.86939 89.0492 9.85375 89.9908 9.85375V9.86418Z" fill="#296CB4"/>
<path d="M40.7338 50.731C40.7338 47.5288 40.7338 44.3319 40.7338 41.1297C40.7338 40.8846 40.7286 40.6395 40.7338 40.3996C40.765 39.6434 40.8482 39.5547 41.5766 39.5182C41.7899 39.5078 42.0032 39.5182 42.2165 39.5182C47.3877 39.5182 52.559 39.5182 57.7303 39.5182C58.7153 39.5182 59.2095 40.0275 59.213 41.0463C59.213 41.839 59.213 42.6317 59.213 43.4244C59.213 44.6657 59.1973 44.6813 57.9175 44.6813C54.6036 44.6813 51.2896 44.6813 47.9704 44.6813C47.0548 44.6813 46.5969 45.1333 46.5969 46.0373C46.5969 46.5849 46.5969 47.1325 46.6074 47.6853C46.6126 48.0869 46.8102 48.3111 47.2212 48.3216C47.497 48.332 47.7675 48.3372 48.0432 48.3372C51.1439 48.3372 54.2498 48.3372 57.3505 48.3372C57.595 48.3372 57.8395 48.3268 58.0788 48.3476C58.7187 48.3946 58.8436 48.4884 58.8592 49.1038C58.8852 50.2303 58.8852 51.3621 58.8592 52.4885C58.8488 53.1457 58.7187 53.2552 58.0216 53.2813C57.4753 53.3021 56.9291 53.2917 56.3776 53.2917C53.5787 53.2917 50.7797 53.2917 47.9808 53.2917C47.7363 53.2917 47.4918 53.2969 47.2525 53.3021C46.8571 53.3021 46.6074 53.4794 46.6074 53.8967C46.6021 54.778 46.6021 55.6646 46.6074 56.546C46.6074 56.9163 46.8415 57.0884 47.2004 57.0988C47.4762 57.1093 47.7467 57.1145 48.0224 57.1145C51.248 57.1145 54.4683 57.1145 57.6938 57.1145C57.9696 57.1145 58.2401 57.1197 58.5158 57.1249C58.958 57.1249 59.1973 57.3335 59.1973 57.7925C59.1973 59.0128 59.1973 60.2332 59.1973 61.4484C59.1973 61.9073 58.9372 62.1003 58.5002 62.1003C58.2869 62.1003 58.0736 62.1055 57.8603 62.1055C52.6006 62.1055 47.3357 62.1055 42.076 62.1055C40.739 62.1055 40.7338 62.1055 40.7338 60.713C40.7338 57.3909 40.7338 54.0688 40.7338 50.7467V50.731Z" fill="#296CB4"/>
<path d="M130.56 50.7571C130.56 47.4923 130.56 44.2328 130.56 40.968C130.56 40.7229 130.549 40.4778 130.57 40.2379C130.617 39.659 130.711 39.5703 131.293 39.5234C131.507 39.5078 131.72 39.513 131.933 39.513C137.167 39.513 142.395 39.513 147.629 39.513C147.749 39.513 147.874 39.513 147.993 39.513C148.95 39.5338 149.018 39.5964 149.029 40.5717C149.039 41.6095 149.039 42.6474 149.029 43.68C149.018 44.5718 148.93 44.6657 148.019 44.6709C144.643 44.6813 141.266 44.6709 137.89 44.6709C136.908 44.6709 136.416 45.1524 136.413 46.1155C136.413 46.6057 136.397 47.0908 136.423 47.581C136.454 48.1599 136.574 48.2694 137.13 48.3163C137.37 48.3372 137.614 48.3268 137.859 48.3268C140.991 48.3268 144.123 48.3268 147.26 48.3268C147.535 48.3268 147.806 48.3268 148.082 48.3476C148.441 48.3685 148.649 48.5667 148.649 48.9318C148.654 50.1834 148.654 51.4299 148.649 52.6815C148.649 53.0466 148.435 53.2396 148.076 53.2552C147.801 53.2708 147.53 53.2708 147.254 53.2708C144.123 53.2708 140.991 53.2708 137.854 53.2708C137.578 53.2708 137.307 53.2708 137.032 53.2865C136.678 53.2969 136.439 53.4638 136.433 53.8341C136.423 54.7468 136.423 55.6647 136.439 56.5773C136.444 56.8955 136.667 57.0623 136.98 57.078C137.255 57.0936 137.526 57.0989 137.802 57.0989C141.058 57.0989 144.31 57.0989 147.567 57.0989C147.842 57.0989 148.113 57.1041 148.389 57.1145C148.794 57.1249 149.013 57.3335 149.013 57.7403C149.018 58.9607 149.018 60.1811 149.013 61.3962C149.013 61.8343 148.805 62.0794 148.347 62.0794C148.134 62.0794 147.92 62.0899 147.707 62.0899C142.442 62.0899 137.182 62.0899 131.918 62.0899C131.009 62.0899 130.553 61.6344 130.549 60.7235C130.549 57.4013 130.549 54.0792 130.549 50.7519L130.56 50.7571Z" fill="#296CB4"/>
<path d="M59.0205 11.3245C59.0205 8.15358 59.0205 4.9827 59.0205 1.81181C59.0205 1.62928 59.0205 1.44674 59.0205 1.26421C59.0361 0.101205 59.1089 0.0177612 60.2691 0.0177612C65.5912 0.0177612 70.9186 0.0177612 76.2407 0.0177612C76.3916 0.0177612 76.5477 0.0177663 76.6985 0.0229816C77.3384 0.0751342 77.4633 0.169005 77.4789 0.784406C77.4997 2.00478 77.5049 3.22516 77.4789 4.44031C77.4685 5.01921 77.3384 5.12351 76.7714 5.16523C76.5008 5.1861 76.2251 5.17566 75.9494 5.17566C72.7238 5.17566 69.4983 5.17566 66.278 5.17566C66.0022 5.17566 65.7317 5.17566 65.456 5.18609C65.0918 5.19652 64.8889 5.38427 64.8889 5.75455C64.8837 6.60986 64.8889 7.45995 64.8889 8.31525C64.8889 8.72204 65.0866 8.93587 65.4976 8.94108C65.7421 8.94108 65.9866 8.95151 66.2259 8.95151C69.4203 8.95151 72.6146 8.95151 75.8089 8.95151C76.0846 8.95151 76.3552 8.95673 76.6309 8.96195C77.0419 8.96195 77.2552 9.18099 77.2604 9.58256C77.2656 10.7716 77.2656 11.9607 77.2604 13.1498C77.2604 13.5566 77.0263 13.76 76.6205 13.76C76.3448 13.76 76.0742 13.7704 75.7985 13.7704C72.6042 13.7704 69.4099 13.7704 66.2155 13.7704C65.971 13.7704 65.7265 13.7756 65.4872 13.7808C65.071 13.7861 64.8889 14.0155 64.8889 14.4171C64.8889 15.3037 64.8889 16.1851 64.8889 17.0717C64.8889 17.5358 65.1282 17.7288 65.5704 17.7236C65.8149 17.7236 66.0595 17.7236 66.2988 17.7236C69.5243 17.7236 72.7498 17.7236 75.9702 17.7236C76.2147 17.7236 76.4592 17.7132 76.6985 17.7288C77.3488 17.7705 77.4685 17.854 77.4841 18.4746C77.5101 19.6324 77.5101 20.7902 77.4841 21.948C77.4685 22.5686 77.3488 22.6572 76.7037 22.7042C76.5216 22.7146 76.3396 22.7094 76.1575 22.7094C70.9238 22.7094 65.6953 22.7094 60.4616 22.7094C59.0569 22.7094 59.0309 22.6833 59.0309 21.2804C59.0309 17.9583 59.0309 14.6362 59.0309 11.3088L59.0205 11.3245Z" fill="#296CB4"/>
<path d="M138.587 0.0177548C139.498 0.0177548 140.413 0.0490522 141.324 0.00733003C141.995 -0.0187463 142.369 0.226371 142.635 0.862633C143.785 3.62151 144.976 6.35952 146.152 9.10275C147.941 13.275 149.726 17.4524 151.515 21.6246C151.588 21.7915 151.677 21.9532 151.729 22.1305C151.859 22.5477 151.781 22.7042 151.318 22.7042C149.523 22.725 147.728 22.7094 145.933 22.7042C145.496 22.7042 145.288 22.4225 145.142 22.0627C144.778 21.1239 144.409 20.1904 144.045 19.2517C143.639 18.1982 143.597 18.1617 142.448 18.1617C139.737 18.1617 137.032 18.1773 134.321 18.1512C133.65 18.146 133.25 18.3338 133.026 19.0065C132.688 20.0183 132.245 20.9936 131.876 21.9949C131.694 22.4903 131.408 22.7302 130.867 22.725C129.285 22.7094 127.704 22.7302 126.122 22.7146C125.295 22.7042 125.212 22.5633 125.545 21.7863C126.991 18.3964 128.442 15.0012 129.894 11.6165C131.345 8.22658 132.807 4.84188 134.254 1.44674C134.862 0.0177577 134.852 0.0177577 136.381 0.0125424C137.11 0.0125424 137.843 0.0125424 138.572 0.0125424L138.587 0.0177548ZM138.447 5.90579C138.374 6.00488 138.301 6.06746 138.27 6.14569C137.422 8.2318 136.569 10.3127 135.742 12.404C135.497 13.0246 135.591 13.1654 136.267 13.1707C137.755 13.1915 139.243 13.1863 140.731 13.1707C141.402 13.1654 141.469 13.0507 141.215 12.3988C140.398 10.3336 139.571 8.27352 138.743 6.21349C138.697 6.09876 138.655 5.98402 138.447 5.90579Z" fill="#296CB4"/>
<path d="M13.2179 0.0229779C14.1595 0.0229779 15.1064 0.0438338 16.048 0.0177575C16.6827 0.00211172 17.0417 0.257663 17.2914 0.852203C18.8782 4.61241 20.5013 8.36218 22.1089 12.1172C23.4668 15.2828 24.8194 18.4485 26.1721 21.6194C26.6039 22.6311 26.5518 22.725 25.4957 22.7302C24.0026 22.7407 22.5147 22.7094 21.0216 22.7407C20.3505 22.7563 19.9499 22.5216 19.721 21.8697C19.3724 20.8632 18.9302 19.8879 18.5712 18.8866C18.3891 18.3755 18.0926 18.1721 17.5567 18.1721C14.6382 18.1877 11.7144 18.1877 8.79578 18.1721C8.25992 18.1721 7.95818 18.3755 7.77609 18.8814C7.3807 19.9401 6.92809 20.9727 6.5327 22.0262C6.34541 22.5268 6.03326 22.7407 5.50261 22.7355C3.88984 22.7198 2.27707 22.7407 0.664306 22.725C-0.0640413 22.7198 -0.131677 22.5842 0.164864 21.901C3.14588 14.9543 6.13731 8.01276 9.09232 1.0556C9.40967 0.3046 9.82066 -0.0552505 10.6635 0.00733271C11.5115 0.0699159 12.3647 0.0229779 13.2179 0.0229779ZM13.0566 5.92144C13.041 5.95273 12.989 6.03096 12.9578 6.10919C12.0889 8.24745 11.2097 10.3857 10.3565 12.5292C10.1536 13.0455 10.2473 13.1602 10.8404 13.1707C12.297 13.1863 13.7537 13.1863 15.2104 13.1707C16.0636 13.1602 16.1365 13.0507 15.8295 12.2684C15.0492 10.2918 14.2584 8.31525 13.4624 6.34388C13.4 6.1822 13.3688 5.97881 13.0566 5.91622V5.92144Z" fill="#296CB4"/>
<path d="M178.969 62.0951C177.023 62.0951 175.077 62.0951 173.126 62.0951C172.122 62.0951 172.049 62.0168 172.039 60.9894C172.029 60.0455 172.023 59.0963 172.039 58.1523C172.055 57.224 172.164 57.1093 173.116 57.1093C176.217 57.0989 179.323 57.1093 182.423 57.1093C182.819 57.1093 183.214 57.1093 183.609 57.0989C183.948 57.0989 184.275 57.0311 184.587 56.8955C185.259 56.5982 185.654 56.0923 185.68 55.3465C185.706 54.5955 185.3 54.0792 184.671 53.735C184.234 53.4951 183.739 53.469 183.25 53.469C181.575 53.469 179.905 53.4586 178.23 53.469C177.366 53.469 176.534 53.3334 175.717 53.0831C173.522 52.4103 172.153 50.9344 171.618 48.7075C171.29 47.3567 171.253 45.9956 171.628 44.6396C172.226 42.4805 173.631 41.0567 175.676 40.2431C176.872 39.7685 178.131 39.5286 179.421 39.5234C183.011 39.5078 186.601 39.513 190.19 39.513C190.341 39.513 190.492 39.513 190.648 39.5234C191.002 39.5391 191.174 39.7164 191.018 40.0554C190.362 41.4635 189.696 42.8664 189.025 44.2693C188.853 44.6239 188.52 44.6761 188.172 44.6761C187.412 44.6761 186.653 44.6761 185.888 44.6761C183.817 44.6761 181.752 44.6761 179.681 44.6761C179.224 44.6761 178.771 44.6865 178.329 44.843C177.418 45.1611 177.039 45.7661 177.143 46.7413C177.236 47.581 177.829 48.2173 178.688 48.2798C179.473 48.3372 180.269 48.3007 181.06 48.3163C182.668 48.3529 184.275 48.2642 185.888 48.4572C190.482 49.01 191.907 52.8119 191.465 55.8368C191.403 56.2592 191.34 56.6816 191.231 57.0936C190.362 60.3584 187.86 61.9491 184.894 62.0586C182.917 62.1316 180.94 62.0742 178.964 62.0742V62.0847L178.969 62.0951Z" fill="#296CB4"/>
<path d="M158.377 62.0951C156.463 62.0951 154.543 62.0951 152.629 62.0951C151.458 62.0951 151.422 62.0534 151.416 60.8434C151.416 60.082 151.416 59.3206 151.416 58.5591C151.416 57.1354 151.442 57.1093 152.826 57.1093C156.021 57.1093 159.215 57.1093 162.409 57.1093C162.867 57.1093 163.32 57.1197 163.767 56.9789C164.568 56.7181 165.021 56.1758 165.068 55.3987C165.109 54.6581 164.672 54.001 163.939 53.6776C163.507 53.4899 163.054 53.469 162.597 53.469C160.864 53.469 159.127 53.4795 157.394 53.4638C156.224 53.4534 155.1 53.1978 154.049 52.6607C152.301 51.7636 151.312 50.2773 150.933 48.3842C150.719 47.3359 150.73 46.2511 150.912 45.1976C151.302 42.9551 152.603 41.3957 154.642 40.4361C155.901 39.8468 157.243 39.5495 158.622 39.5338C162.305 39.4973 165.983 39.513 169.667 39.5182C170.541 39.5182 170.608 39.6277 170.26 40.3996C169.885 41.234 169.495 42.058 169.11 42.8873C168.996 43.1376 168.834 43.3723 168.762 43.633C168.496 44.5144 167.919 44.7439 167.034 44.7074C165.427 44.6396 163.809 44.6865 162.196 44.6865C161.098 44.6865 160.006 44.6865 158.908 44.6865C158.575 44.6865 158.242 44.697 157.914 44.7908C156.879 45.0777 156.432 45.7035 156.541 46.7361C156.635 47.6436 157.285 48.2851 158.253 48.3059C159.985 48.3476 161.723 48.332 163.455 48.3216C164.282 48.3216 165.099 48.4154 165.9 48.5719C168.855 49.1508 170.676 51.19 170.915 54.2722C171.056 56.0767 170.702 57.8186 169.641 59.3206C168.335 61.172 166.457 62.0169 164.235 62.069C162.29 62.1159 160.344 62.0794 158.393 62.0794V62.0899L158.377 62.0951Z" fill="#296CB4"/>
<path d="M84.929 50.7571C84.929 47.4975 84.929 44.238 84.929 40.9785C84.929 40.7021 84.9342 40.4309 84.9446 40.1545C84.9602 39.7581 85.1527 39.5338 85.5637 39.5286C85.777 39.5286 85.9903 39.5182 86.2036 39.5182C90.0638 39.5182 93.924 39.5182 97.7843 39.5182C99.6312 39.5182 101.312 40.0449 102.794 41.1819C104.11 42.1884 104.912 43.5183 105.302 45.1037C105.791 47.096 105.604 49.0308 104.688 50.8822C103.923 52.426 102.69 53.4638 101.15 54.1679C99.5375 54.9084 97.8051 55.018 96.0675 55.0753C94.7304 55.117 93.3934 55.0805 92.0563 55.0858C90.8182 55.0858 90.8078 55.1014 90.8078 56.3844C90.8078 57.9385 90.813 59.4927 90.8078 61.0468C90.8026 62.0116 90.7245 62.0846 89.7621 62.0899C88.4874 62.1003 87.2076 62.1003 85.933 62.0899C85.033 62.0794 84.9394 61.996 84.9394 61.0885C84.9289 57.6465 84.9394 54.2044 84.9394 50.7571H84.929ZM94.3506 49.7662C94.3506 49.7662 94.3506 49.7662 94.3506 49.761C95.2923 49.761 96.2391 49.8027 97.1756 49.7505C99.1213 49.641 100.245 47.7896 99.4179 46.0999C98.9132 45.0672 97.9924 44.7282 96.9311 44.7074C95.1674 44.6813 93.4038 44.6865 91.6401 44.7022C90.9274 44.7074 90.8234 44.8012 90.813 45.4792C90.7921 46.637 90.7921 47.7948 90.813 48.9526C90.8234 49.6514 90.9222 49.7453 91.6141 49.761C92.5246 49.7818 93.4402 49.761 94.3506 49.761V49.7662Z" fill="#296CB4"/>
<path d="M84.1692 61.923C83.9299 62.1524 83.6749 62.0899 83.4408 62.0899C81.646 62.0951 79.8511 62.0742 78.0563 62.1003C77.4476 62.1107 77.0366 61.9125 76.6672 61.4171C75.377 59.6804 74.0504 57.975 72.7393 56.2592C72.6665 56.1601 72.5989 56.061 72.526 55.9619C72.0162 55.3152 71.959 55.3048 71.4751 55.9515C70.1745 57.683 68.8583 59.3936 67.6097 61.1615C67.1154 61.8656 66.5536 62.1368 65.7056 62.1055C64.1552 62.0481 62.6049 62.0899 61.0546 62.0899C60.8725 62.0899 60.6904 62.1003 60.5083 62.0794C60.0557 62.0325 59.9672 61.8656 60.2482 61.4901C60.7424 60.833 61.2627 60.1967 61.7777 59.5552C63.8743 56.9476 65.9761 54.34 68.0779 51.7271C68.6918 50.9657 68.6866 50.9396 68.0779 50.1834C65.5235 47.0021 62.9691 43.8208 60.4251 40.629C60.2066 40.3526 59.7696 40.0658 59.9204 39.7216C60.1077 39.3096 60.628 39.513 60.9973 39.5078C62.6101 39.4921 64.2229 39.5234 65.8356 39.4869C66.5068 39.4713 66.9646 39.6903 67.3756 40.2431C68.723 42.0476 70.1173 43.8156 71.5063 45.594C72.1462 46.4128 72.2243 46.4023 72.8902 45.547C74.2897 43.7426 75.6943 41.9433 77.0782 40.1232C77.4007 39.7007 77.7597 39.4817 78.3008 39.4921C80.0332 39.513 81.7656 39.4973 83.5033 39.5025C83.6541 39.5025 83.8102 39.5025 83.9559 39.5286C84.1848 39.5651 84.268 39.7059 84.164 39.9198C84.0963 40.0554 84.0027 40.1753 83.9038 40.2953C81.3702 43.4557 78.8366 46.611 76.303 49.7714C76.2458 49.8444 76.1834 49.9122 76.1313 49.9852C75.4758 50.8145 75.481 50.8092 76.1626 51.6698C78.7378 54.9137 81.313 58.1575 83.883 61.4014C83.9975 61.5423 84.138 61.6674 84.1692 61.9178V61.923Z" fill="#296CB4"/>
<path d="M125.409 5.53031C124.499 5.53031 123.583 5.50423 122.673 5.53552C120.722 5.60332 119.224 6.45862 118.355 8.24746C117.335 10.3388 117.32 12.4979 118.178 14.6257C118.922 16.4719 120.441 17.3481 122.361 17.5619C123.053 17.6402 123.755 17.6349 124.452 17.6819C124.983 17.7184 125.061 17.8279 124.842 18.3025C124.254 19.575 123.63 20.8267 123.042 22.0992C122.798 22.6364 122.376 22.7198 121.851 22.7355C116.862 22.8606 113.407 19.9192 112.2 15.2046C111.566 12.7169 111.566 10.2032 112.211 7.69464C113.303 3.45463 116.607 0.627956 120.961 0.179444C123.422 -0.0761045 125.883 0.0438501 128.344 0.0282043C129.129 0.0229891 129.275 0.174232 129.285 0.925231C129.306 2.17689 129.306 3.42334 129.285 4.67501C129.275 5.39993 129.15 5.50945 128.411 5.52509C127.407 5.54595 126.403 5.52509 125.399 5.52509L125.409 5.53031Z" fill="#296CB4"/>
<path d="M103.34 11.3558C103.34 8.06493 103.34 4.7741 103.34 1.47805C103.34 1.20164 103.351 0.930449 103.351 0.65404C103.356 0.236819 103.59 0.0334219 103.98 0.0334219C105.499 0.0282067 107.018 0.0282067 108.543 0.0334219C108.938 0.0334219 109.162 0.25768 109.188 0.65404C109.204 0.925234 109.209 1.20164 109.209 1.47805C109.209 8.09101 109.209 14.704 109.209 21.3221C109.209 21.4421 109.209 21.5673 109.209 21.6872C109.183 22.6416 109.12 22.7146 108.142 22.7198C106.956 22.7303 105.77 22.725 104.584 22.7198C103.377 22.7198 103.34 22.6833 103.34 21.4995C103.34 18.5737 103.34 15.6479 103.34 12.7222C103.34 12.2632 103.34 11.8095 103.34 11.3506V11.3558Z" fill="#296CB4"/>
</svg>
