<svg width="265" height="116" viewBox="0 0 265 116" fill="none" xmlns="http://www.w3.org/2000/svg">
<path d="M0.409396 115.125C0.185518 114.507 0.383955 113.991 0.485718 113.491C3.16717 100.285 5.86897 87.0847 8.5555 73.879C11.0436 61.664 13.5164 49.4439 16.0045 37.2288C17.358 30.5749 18.7216 23.921 20.1107 17.2773C21.3216 11.4762 24.5323 7.14579 29.7272 4.31162C32.7343 2.66729 35.9653 1.71746 39.3286 1.17616C42.2084 0.711454 45.1036 0.542934 48.0242 0.548041C119.614 0.558254 191.204 0.553146 262.794 0.558252C263.415 0.558252 264.056 0.461229 264.764 0.71656C264.54 1.87065 264.331 3.00943 264.097 4.14821C260.825 20.1574 257.544 36.1616 254.272 52.1708C251.199 67.1894 248.141 82.213 245.062 97.2316C244.808 98.4776 244.533 99.7287 244.152 100.939C242.645 105.729 239.654 109.293 235.237 111.648C232.357 113.18 229.264 114.053 226.058 114.558C223.071 115.028 220.069 115.197 217.047 115.192C145.406 115.181 73.76 115.181 2.11901 115.176C1.54405 115.176 0.969091 115.151 0.414484 115.135L0.409396 115.125ZM32.3731 55.0765C32.7699 55.0356 33.0803 54.9743 33.3907 54.9743C38.6824 54.9743 43.974 54.9743 49.2606 54.9845C49.5557 54.9845 49.8508 55.0816 50.2274 55.1428C49.1334 61.6436 47.8054 68.0166 46.7623 74.4305C47.9886 74.7471 51.881 74.7727 53.2751 74.502C53.326 74.4101 53.4074 74.3233 53.4227 74.2212C55.4732 61.6538 57.656 49.1119 60.0424 36.6058C60.1136 36.2433 60.1594 35.8705 60.2154 35.5028C60.2205 35.4517 60.2154 35.4007 60.2001 35.3547C60.1848 35.3037 60.1543 35.2628 60.0983 35.1607C59.4318 34.8594 58.6838 35.0483 57.9613 35.0126C57.2744 34.9819 56.5875 34.9819 55.9006 35.0126C55.1832 35.0432 54.4302 34.8645 53.6771 35.222C53.2192 37.857 52.7612 40.4613 52.3186 43.0708C51.8759 45.6752 51.4485 48.2847 51.016 50.8737C50.787 50.9554 50.6446 51.0525 50.497 51.0525C44.9408 51.0627 39.3896 51.0678 33.8334 51.0678C33.6298 51.0678 33.4263 50.9912 33.1872 50.9401C33.1872 50.5929 33.1414 50.2762 33.1923 49.975C34.0572 45.282 34.9426 40.589 35.8076 35.896C35.8534 35.656 35.8127 35.4007 35.8127 35.1658C34.2201 34.9104 30.5922 34.9411 29.3863 35.222C29.3253 35.4466 29.2388 35.6918 29.193 35.9471C28.8826 37.8314 28.5773 39.7158 28.272 41.6001C27.5648 46.002 26.9186 50.4141 26.135 54.7956C25.0462 60.852 23.8504 66.8881 22.7005 72.9343C22.6039 73.445 22.4054 73.9607 22.6344 74.4816C23.9268 74.7625 27.6665 74.7523 29.0251 74.4459C30.2411 68.0524 31.1163 61.5465 32.3731 55.0816V55.0765ZM231.38 74.4714C232.225 74.834 233.08 74.6808 233.909 74.6603C234.774 74.6399 235.69 74.9106 236.55 74.3948C236.601 73.4143 236.596 72.4543 236.718 71.5147C237.115 68.3588 237.445 65.1876 237.995 62.0572C239.557 53.1819 241.221 44.3219 242.839 35.4569C242.9 35.1096 242.895 34.7521 242.92 34.41C241.261 34.1802 238.458 34.2108 237.283 34.4764C236.962 36.4833 236.636 38.5208 236.306 40.5584C235.975 42.5857 235.782 44.6437 235.237 46.6301C234.973 46.6148 234.805 46.6403 234.667 46.5893C233.365 46.0888 231.991 45.9765 230.627 45.8386C228.719 45.6445 226.821 45.7875 224.954 46.2063C220.787 47.1408 217.714 49.5562 215.622 53.2534C213.821 56.4399 212.814 59.8818 212.493 63.5177C212.33 65.3714 212.335 67.2302 212.773 69.0584C213.496 72.0508 215.276 74.022 218.289 74.7982C220.151 75.2782 222.038 75.3242 223.952 75.1812C226.923 74.9667 229.34 73.7973 231.08 71.3206C231.207 71.1419 231.304 70.8253 231.686 71.004C231.563 72.1428 231.243 73.2713 231.39 74.4612L231.38 74.4714ZM76.2125 71.8977C76.533 72.3113 76.7315 72.5309 76.8943 72.7811C77.7898 74.1395 79.0466 74.9106 80.6442 75.1965C82.766 75.5795 84.8521 75.4212 86.923 74.8952C90.6831 73.9403 93.4104 71.6168 95.2472 68.272C97.6183 63.9569 98.8038 59.3201 98.4934 54.3718C98.4324 53.3811 98.2034 52.3751 97.9032 51.4252C97.0687 48.8158 95.2981 47.0744 92.6675 46.3442C88.597 45.2105 84.7198 45.6701 81.1276 48.0089C80.7358 48.2642 80.3491 48.5196 79.8098 48.8719C79.9014 47.9834 79.9777 47.2736 80.0489 46.5688C78.5072 46.2982 76.2176 46.3288 75.0778 46.6454C73.0527 60.0809 70.6003 73.4705 68.0409 86.8447C68.0307 86.8958 68.046 86.952 68.0664 86.9979C68.0867 87.0388 68.1274 87.0694 68.2699 87.2226C69.9948 87.2226 71.8316 87.2533 73.7498 87.2073C74.0246 85.4455 74.279 83.7756 74.5385 82.1058C74.798 80.4308 75.0524 78.7507 75.3271 77.0809C75.5968 75.4314 75.7647 73.7565 76.2125 71.9079V71.8977ZM187.643 56.3531C187.149 56.3531 186.834 56.3531 186.523 56.3531C184.513 56.3174 182.504 56.2152 180.494 56.2612C177.985 56.3174 175.553 56.8127 173.294 57.9566C170.44 59.4069 168.593 61.6742 167.86 64.825C167.509 66.3417 167.453 67.8787 167.636 69.4158C167.962 72.1785 169.447 74.0067 172.134 74.7727C174.525 75.457 176.942 75.4161 179.359 74.9054C181.618 74.4305 183.445 73.2305 184.951 71.4942C185.195 71.2134 185.368 70.8202 185.897 70.667C185.801 71.7445 185.694 72.6892 185.633 73.639C185.613 73.9352 185.704 74.2365 185.74 74.502C187.383 74.7625 189.413 74.7318 190.579 74.4356C190.609 74.1446 190.645 73.8382 190.675 73.5267C190.889 71.3615 191.001 69.1809 191.332 67.0311C191.927 63.15 192.655 59.2894 193.311 55.4186C193.56 53.953 193.871 52.4976 193.774 50.9963C193.667 49.3366 192.945 48.0344 191.499 47.2174C190.818 46.8344 190.065 46.5331 189.301 46.3391C186.712 45.6803 184.066 45.6548 181.42 45.859C179.156 46.0378 176.886 46.2216 174.622 46.4054C174.525 46.4156 174.439 46.4922 174.347 46.5331C173.757 47.9936 173.401 49.5613 173.396 50.8686C174.2 50.9044 174.943 50.5878 175.696 50.4141C178.235 49.8371 180.794 49.4898 183.404 49.5869C184.473 49.6277 185.511 49.8064 186.488 50.2405C187.541 50.7103 188.167 51.5376 188.238 52.6968C188.314 53.9224 188.065 55.1071 187.648 56.3378L187.643 56.3531ZM125.425 59.3813C125.98 57.2723 126.331 55.2399 126.376 53.1615C126.392 52.5334 126.275 51.895 126.153 51.272C125.781 49.3826 124.713 47.9936 123.034 47.0846C122.001 46.5229 120.886 46.2216 119.731 46.0224C117.462 45.6292 115.193 45.6956 112.939 46.0735C108.115 46.8804 104.533 49.3928 102.533 53.953C102.004 55.1633 101.541 56.4144 101.155 57.6808C100.305 60.4946 99.8621 63.3747 100.061 66.3212C100.371 70.8968 102.65 73.8433 107.199 74.8391C108.654 75.1608 110.13 75.2987 111.611 75.2731C114.791 75.2221 117.94 74.885 121.034 74.119C121.38 74.0322 121.711 73.8688 122.041 73.7411C122.372 72.3011 122.713 70.9325 122.784 69.3954C122.067 69.6354 121.466 69.8193 120.881 70.0337C117.849 71.1317 114.725 71.581 111.524 71.2083C108.955 70.9121 107.006 69.6456 106.248 67.0515C105.515 64.5441 105.815 62.0317 106.492 59.4784C108.624 59.3354 110.685 59.3916 112.74 59.3864C114.857 59.3762 116.974 59.3864 119.09 59.3864C121.151 59.3864 123.207 59.3864 125.425 59.3864V59.3813ZM168.298 46.3697C167.768 46.2573 167.377 46.1348 166.975 46.099C166.13 46.0224 165.285 46.0122 164.441 45.9305C162.065 45.7007 159.694 45.7365 157.317 45.9918C152.687 46.4871 149.283 48.826 147.085 52.8704C144.668 57.3132 143.681 62.0981 144.144 67.1587C144.551 71.6168 147.594 74.6603 152.021 75.125C155.542 75.4927 158.986 75.1148 162.375 74.1497C162.772 74.0373 163.153 73.8637 163.561 73.7105C163.784 72.5615 164.003 71.4738 164.191 70.3759C164.227 70.1563 164.141 69.9163 164.1 69.6507C162.93 70.0235 161.887 70.3861 160.823 70.6874C158.874 71.244 156.88 71.4687 154.86 71.2287C152.514 70.9529 150.967 69.661 150.321 67.3834C150.092 66.5766 149.99 65.7186 149.945 64.8761C149.812 62.3585 150.214 59.9022 150.922 57.4919C151.385 55.9088 152.01 54.3922 152.906 52.993C153.863 51.4967 155.185 50.4805 156.89 50.026C157.75 49.7962 158.656 49.6635 159.546 49.6124C161.785 49.4796 163.968 49.8524 166.125 50.4499C166.552 50.5673 166.985 50.8941 167.57 50.598C167.794 49.2907 168.028 47.9374 168.303 46.3595L168.298 46.3697ZM127.216 74.5071C128.844 74.788 131.648 74.7471 132.798 74.4152C132.849 74.1395 132.915 73.8331 132.955 73.5216C133.332 70.9019 133.652 68.2669 134.095 65.6574C134.543 62.9968 135.087 60.3465 135.637 57.7064C135.942 56.2408 136.548 54.8773 137.397 53.6466C139.641 50.4039 142.043 49.6737 145.452 50.3937C145.747 50.455 146.047 50.4856 146.459 50.5469C146.607 49.7911 146.744 49.1273 146.866 48.4634C146.988 47.7995 147.278 47.1459 146.973 46.4565C145.457 45.7518 143.93 45.5986 142.323 45.9918C140.73 46.385 139.402 47.197 138.298 48.3868C137.83 48.8872 137.428 49.4541 136.985 49.9801C136.843 50.1486 136.67 50.2865 136.339 50.6082C136.553 49.4694 136.741 48.5911 136.878 47.7076C136.939 47.3144 137.123 46.8855 136.736 46.4412C135.22 46.385 133.658 46.2982 132.197 46.4871C132.07 46.6352 132.009 46.671 132.004 46.7169C130.574 55.8731 129.002 65.0088 127.16 74.0935C127.14 74.1854 127.191 74.2927 127.226 74.5122L127.216 74.5071ZM215.51 46.5586C215.098 46.3799 214.732 46.1705 214.335 46.0633C211.659 45.3279 209.313 46.0326 207.273 47.8251C206.601 48.4123 206.072 49.163 205.477 49.8371C205.324 50.0107 205.243 50.3222 204.815 50.1435C205.014 48.969 205.212 47.7791 205.41 46.5944C204.082 46.3288 201.737 46.3288 200.378 46.5893C200.175 47.8608 199.971 49.1681 199.752 50.4754C199.035 54.765 198.343 59.0596 197.58 63.339C196.995 66.6276 196.318 69.901 195.697 73.1845C195.611 73.6288 195.402 74.1088 195.743 74.5429C197.259 74.7778 199.91 74.7523 201.147 74.4714C201.197 74.308 201.284 74.119 201.309 73.9199C201.66 71.3972 201.945 68.8694 202.363 66.357C202.821 63.5841 203.37 60.8265 203.93 58.0741C204.25 56.5063 204.851 55.0254 205.756 53.6977C207.99 50.4294 210.407 49.6941 213.801 50.4039C214.101 50.4652 214.411 50.4958 214.773 50.5469C215.195 49.2396 215.388 47.9476 215.51 46.574V46.5586ZM64.1485 46.5637C63.945 47.8353 63.7465 49.1426 63.5328 50.4448C62.9223 54.1573 62.3473 57.8749 61.6858 61.5772C60.9938 65.4378 60.2103 69.278 59.4776 73.1283C59.3911 73.5777 59.3758 74.0424 59.3249 74.4918C60.8158 74.7727 63.7567 74.7472 64.8863 74.4663C64.9422 74.3795 65.0287 74.2927 65.044 74.2007C66.3975 65.0293 68.0257 55.9037 69.8523 46.814C69.8625 46.768 69.8319 46.7118 69.8116 46.6608C69.7963 46.6148 69.7658 46.574 69.7404 46.5331C68.3615 46.3339 65.4663 46.3442 64.1485 46.5688V46.5637ZM69.2722 34.5326C67.3388 34.5428 66.0565 35.4415 65.5376 37.1012C65.3798 37.6016 65.3086 38.1378 65.2526 38.6587C64.9931 41.1252 66.5704 41.7431 68.3208 41.5797C68.4785 41.5644 68.6311 41.5235 68.7838 41.4878C71.048 40.9056 72.4778 37.8723 71.4958 35.7326C71.2108 35.1096 70.7071 34.747 70.0558 34.604C69.7505 34.5377 69.4249 34.5428 69.2672 34.5275L69.2722 34.5326Z" fill="#B31A1E"/>
</svg>
