<svg width="28" height="18" viewBox="0 0 28 18" fill="none" xmlns="http://www.w3.org/2000/svg">
<g id="icon">
<path id="Vector" d="M17.4145 15.8767H9.99951V2.55078H17.4145V15.8767Z" fill="#6C6BBD"/>
<path id="Vector_2" d="M10.4745 9.2125C10.4745 6.50927 11.7402 4.10131 13.7112 2.54953C12.2699 1.41479 10.4508 0.737499 8.47392 0.737499C3.79379 0.737499 0 4.53183 0 9.2125C0 13.8932 3.79379 17.6875 8.47392 17.6875C10.4508 17.6875 12.2699 17.0102 13.7112 15.8755C11.7402 14.3237 10.4745 11.9157 10.4745 9.2125Z" fill="#EB001B"/>
<path id="Vector_3" d="M27.4149 9.2125C27.4149 13.8932 23.6211 17.6875 18.9409 17.6875C16.964 17.6875 15.145 17.0102 13.7031 15.8755C15.6746 14.3237 16.9403 11.9157 16.9403 9.2125C16.9403 6.50927 15.6746 4.10131 13.7031 2.54953C15.145 1.41479 16.964 0.737499 18.9409 0.737499C23.6211 0.737499 27.4149 4.53183 27.4149 9.2125Z" fill="#0099DF"/>
</g>
</svg>
