<svg width="15" height="18" viewBox="0 0 15 18" fill="none" xmlns="http://www.w3.org/2000/svg">
<g id="Group 7109">
<path id="Vector" d="M6.09082 16.2727L6.09082 1.72727C6.09082 1.32561 5.76521 1 5.36355 1L1.72718 1C1.32552 1 0.999911 1.32561 0.999911 1.72727L0.999911 16.2727C0.999911 16.6744 1.32552 17 1.72718 17H5.36355C5.76521 17 6.09082 16.6744 6.09082 16.2727Z" stroke="#FDFDFD" stroke-width="1.45455" stroke-linecap="round" stroke-linejoin="round"/>
<path id="Vector_2" d="M14.0908 16.2727L14.0908 1.72727C14.0908 1.32561 13.7652 1 13.3635 1L9.72718 1C9.32552 1 8.99991 1.32561 8.99991 1.72727V16.2727C8.99991 16.6744 9.32552 17 9.72718 17H13.3635C13.7652 17 14.0908 16.6744 14.0908 16.2727Z" stroke="#FDFDFD" stroke-width="1.45455" stroke-linecap="round" stroke-linejoin="round"/>
</g>
</svg>
