<svg width="24" height="25" viewBox="0 0 24 25" fill="none" xmlns="http://www.w3.org/2000/svg">
<path d="M17.25 17.75L17.25 4.25C17.25 3.85218 17.092 3.47064 16.8107 3.18934C16.5294 2.90804 16.1478 2.75 15.75 2.75L5.25 2.75C4.85218 2.75 4.47064 2.90803 4.18934 3.18934C3.90804 3.47064 3.75 3.85217 3.75 4.25L3.75 17.75C3.75 18.1478 3.90803 18.5294 4.18934 18.8107C4.47064 19.092 4.85217 19.25 5.25 19.25L15.75 19.25C16.1478 19.25 16.5294 19.092 16.8107 18.8107C17.092 18.5294 17.25 18.1478 17.25 17.75ZM5.25 17.75L5.25 4.25L15.75 4.25L15.75 17.75L5.25 17.75ZM18.75 22.25L7.5 22.25C7.30109 22.25 7.11032 22.171 6.96967 22.0303C6.82902 21.8897 6.75 21.6989 6.75 21.5C6.75 21.3011 6.82902 21.1103 6.96967 20.9697C7.11032 20.829 7.30109 20.75 7.5 20.75L18.75 20.75L18.75 6.5C18.75 6.30109 18.829 6.11032 18.9697 5.96967C19.1103 5.82902 19.3011 5.75 19.5 5.75C19.6989 5.75 19.8897 5.82902 20.0303 5.96967C20.171 6.11032 20.25 6.30109 20.25 6.5L20.25 20.75C20.25 21.1478 20.092 21.5294 19.8107 21.8107C19.5294 22.092 19.1478 22.25 18.75 22.25Z" fill="#202124"/>
</svg>
