<svg width="21" height="19" viewBox="0 0 21 19" fill="none" xmlns="http://www.w3.org/2000/svg">
<g id="Group 7110">
<path id="Vector" d="M5.56 6.7002H1.76C1.34026 6.7002 1 7.04046 1 7.4602V11.2602C1 11.6799 1.34026 12.0202 1.76 12.0202H5.56C5.97974 12.0202 6.32 11.6799 6.32 11.2602V7.4602C6.32 7.04046 5.97974 6.7002 5.56 6.7002Z" stroke="#515151" stroke-width="1.52" stroke-linecap="round" stroke-linejoin="round"/>
<path id="Vector_2" d="M19.2399 1H14.6799C14.2602 1 13.9199 1.34026 13.9199 1.76V6.32C13.9199 6.73974 14.2602 7.08 14.6799 7.08H19.2399C19.6597 7.08 19.9999 6.73974 19.9999 6.32V1.76C19.9999 1.34026 19.6597 1 19.2399 1Z" stroke="#515151" stroke-width="1.52" stroke-linecap="round" stroke-linejoin="round"/>
<path id="Vector_3" d="M19.2399 11.6396H14.6799C14.2602 11.6396 13.9199 11.9799 13.9199 12.3996V16.9596C13.9199 17.3794 14.2602 17.7196 14.6799 17.7196H19.2399C19.6597 17.7196 19.9999 17.3794 19.9999 16.9596V12.3996C19.9999 11.9799 19.6597 11.6396 19.2399 11.6396Z" stroke="#515151" stroke-width="1.52" stroke-linecap="round" stroke-linejoin="round"/>
<path id="Vector_4" d="M6.31982 9.36035H10.1198" stroke="#515151" stroke-width="1.52" stroke-linecap="round" stroke-linejoin="round"/>
<path id="Vector_5" d="M13.9201 14.6801H12.4001C12.1004 14.6813 11.8033 14.6232 11.5261 14.5091C11.2489 14.3949 10.9971 14.227 10.7851 14.0151C10.5732 13.8031 10.4053 13.5513 10.2911 13.2741C10.177 12.9969 10.1189 12.6998 10.1201 12.4001V6.32006C10.1189 6.02029 10.177 5.72325 10.2911 5.44606C10.4053 5.16887 10.5732 4.91702 10.7851 4.70505C10.9971 4.49308 11.2489 4.32519 11.5261 4.21105C11.8033 4.09692 12.1004 4.0388 12.4001 4.04006H13.9201" stroke="#515151" stroke-width="1.52" stroke-linecap="round" stroke-linejoin="round"/>
</g>
</svg>
