<?xml version="1.0" encoding="UTF-8"?>
<svg id="Camada_2" data-name="Camada 2" xmlns="http://www.w3.org/2000/svg" viewBox="0 0 410.67 291.21">
  <defs>
    <style>
      .cls-1 {
        fill: #f0f0f0;
      }

      .cls-2 {
        fill: #e0e0e0;
      }

      .cls-3 {
        fill: #ebebeb;
      }
    </style>
  </defs>
  <g id="Background_Complete" data-name="Background Complete">
    <g>
      <path class="cls-3" d="m174.51,123.47l.45-13.14-8.07-2.64c-.33-4.49-1.08-8.92-2.15-13.2l6.84-5.04-4.64-12.34-8.46.68c-2.02-3.99-4.39-7.79-7.04-11.35l4.38-7.31-9.01-9.61-7.56,3.87c-3.41-2.89-7-5.52-10.84-7.83l1.22-8.39-12-5.45-5.5,6.44c-4.19-1.36-8.53-2.38-13.02-3.05l-2.04-8.23-13.18-.45-2.6,8.07c-4.53.37-8.92,1.08-13.2,2.15l-5.08-6.8-12.34,4.61.68,8.46c-3.99,2.05-7.79,4.42-11.35,7.07l-7.28-4.38-9.65,8.97,3.87,7.6c-2.89,3.37-5.52,7-7.8,10.84l-8.39-1.26-5.48,12,6.48,5.5c-1.36,4.19-2.41,8.56-3.05,13.02l-8.26,2.08-.45,13.14,8.1,2.64c.33,4.52,1.08,8.92,2.15,13.19l-6.84,5.04,4.64,12.34,8.46-.68c2.02,3.99,4.39,7.79,7.04,11.35l-4.38,7.31,9.01,9.61,7.56-3.87c3.37,2.89,7,5.52,10.84,7.84l-1.26,8.39,12,5.45,5.53-6.44c4.19,1.36,8.53,2.38,13.02,3.05l2.04,8.23,13.18.45,2.6-8.07c4.52-.37,8.92-1.08,13.19-2.15l5.04,6.8,12.34-4.61-.65-8.46c3.99-2.05,7.75-4.42,11.35-7.08l7.28,4.38,9.65-8.97-3.87-7.6c2.89-3.37,5.52-7,7.8-10.84l8.39,1.26,5.48-12-6.48-5.5c1.36-4.19,2.41-8.53,3.05-13.02l8.23-2.08Zm-88.8,42.57c-28.78-.99-51.31-25.12-50.33-53.9.99-28.81,25.12-51.35,53.9-50.36,28.78.99,51.31,25.12,50.33,53.93-.99,28.78-25.12,51.31-53.9,50.33Z"/>
      <path class="cls-3" d="m399.39,80.01l3.31-3.09-1.32-2.61c1.01-1.18,1.91-2.44,2.69-3.74l2.9.44,1.88-4.14-2.23-1.9c.48-1.46.83-2.97,1.05-4.48l2.85-.71.15-4.54-2.79-.9c-.12-1.54-.36-3.05-.73-4.55l2.35-1.75-1.6-4.25-2.91.23c-.69-1.35-1.5-2.66-2.43-3.92l1.51-2.5-3.1-3.32-2.6,1.33c-1.19-1.01-2.44-1.91-3.74-2.69l.42-2.9-4.13-1.89-1.9,2.23c-1.47-.47-2.98-.82-4.49-1.04l-.71-2.84-4.54-.16-.91,2.8c-1.53.12-3.05.36-4.55.74l-1.74-2.35-4.26,1.59.24,2.92c-1.35.69-2.68,1.5-3.92,2.43l-2.52-1.51-3.31,3.09,1.33,2.62c-1.02,1.18-1.91,2.44-2.69,3.74l-2.9-.44-1.88,4.14,2.23,1.9c-.48,1.46-.83,2.97-1.05,4.48l-2.85.71-.15,4.54,2.79.9c.12,1.53.36,3.05.73,4.55l-2.35,1.74,1.6,4.25,2.92-.22c.69,1.35,1.5,2.66,2.43,3.92l-1.51,2.5,3.1,3.32,2.6-1.33c1.19,1.01,2.44,1.91,3.74,2.69l-.43,2.89,4.13,1.89,1.9-2.22c1.47.47,2.97.81,4.49,1.04l.71,2.84,4.54.16.91-2.8c1.53-.12,3.05-.36,4.55-.74l1.74,2.35,4.26-1.59-.24-2.92c1.35-.69,2.67-1.49,3.92-2.43l2.51,1.5Zm-23.62-19.13c-2.44-2.61-2.3-6.71.31-9.14,2.61-2.44,6.71-2.3,9.15.31,2.44,2.61,2.3,6.71-.32,9.15-2.61,2.44-6.71,2.3-9.14-.31Z"/>
      <path class="cls-3" d="m278.42,214.93l-10.34-7.14s0-.02,0-.02c-1.02-3.76-2.43-7.37-4.16-10.77l2.65-10.4-15-16.06-10.56,1.93c-3.27-1.95-6.78-3.61-10.45-4.88,0,0-.02,0-.03,0l-6.42-10.81-21.96-.75-7.14,10.34s-.03,0-.04,0c-3.75,1.02-7.37,2.43-10.76,4.15l-10.39-2.65-16.06,15,1.93,10.54s0,0,0,0c-1.99,3.31-3.61,6.82-4.88,10.49l-10.81,6.42-.75,21.97,10.35,7.15c1.02,3.78,2.39,7.39,4.15,10.82t0,0l-2.64,10.37,15,16.06,10.49-1.92c3.31,1.96,6.83,3.61,10.55,4.89,0,0,0,0,0,0l6.41,10.79,21.96.75,7.14-10.33c3.8-1.02,7.42-2.43,10.85-4.16,0,0,0,0,0,0l10.35,2.64,16.06-15-1.93-10.54c1.99-3.31,3.61-6.82,4.88-10.5,0,0,0,0,0,0l10.81-6.42.75-21.97Zm-68.45,33.39c-13.65-.47-24.32-11.93-23.85-25.55.47-13.65,11.89-24.32,25.55-23.85,13.65.47,24.32,11.89,23.85,25.55-.47,13.61-11.89,24.32-25.55,23.85Z"/>
      <path class="cls-3" d="m301.98,152.55s-.05,0-.07,0l-17.32-.59c-.72-.02-1.38-.41-1.74-1.03l-4.66-7.85c-2.48-.9-4.92-2.03-7.28-3.38l-7.51,1.37c-.71.13-1.43-.11-1.92-.64l-11.83-12.66c-.49-.53-.68-1.27-.5-1.96l1.89-7.41c-1.15-2.35-2.11-4.85-2.86-7.47l-7.53-5.2c-.59-.41-.94-1.09-.91-1.81l.59-17.32c.02-.72.41-1.38,1.03-1.74l7.87-4.67c.93-2.55,2.06-4.99,3.37-7.25l-1.38-7.53c-.13-.71.11-1.43.64-1.92l12.67-11.83c.53-.49,1.27-.68,1.96-.5l7.43,1.9c2.41-1.17,4.9-2.13,7.45-2.87l5.2-7.53c.41-.59,1.08-.96,1.81-.91l17.32.59c.72.02,1.38.41,1.74,1.03l4.67,7.87c2.48.91,4.91,2.04,7.23,3.37l7.55-1.38c.71-.13,1.43.11,1.92.64l11.83,12.67c.49.53.68,1.27.5,1.96l-1.9,7.44c1.17,2.41,2.13,4.9,2.87,7.45l7.52,5.2c.59.41.93,1.09.91,1.81l-.59,17.32c-.02.72-.41,1.38-1.03,1.74l-7.87,4.67c-.93,2.55-2.06,4.98-3.37,7.24l1.38,7.54c.13.71-.11,1.43-.64,1.92l-12.66,11.82c-.53.49-1.26.68-1.96.5l-7.4-1.89c-2.44,1.18-4.95,2.14-7.49,2.87l-5.19,7.52c-.4.57-1.04.91-1.74.91Zm-16.09-4.78l15.01.51,4.97-7.2c.28-.41.71-.71,1.19-.84,2.76-.74,5.51-1.79,8.15-3.13,0,0,0,0,.01,0,.44-.22.96-.28,1.46-.15l7.04,1.79,10.98-10.25-1.31-7.17c-.09-.51,0-1.03.27-1.47,1.45-2.4,2.68-5.04,3.65-7.83.16-.5.5-.91.94-1.17l7.52-4.47.51-15.01-7.2-4.97c-.38-.26-.66-.64-.8-1.07-.02-.05-.03-.11-.05-.17-.75-2.76-1.8-5.47-3.11-8.05-.23-.46-.29-.98-.16-1.48l1.8-7.08-10.25-10.98-7.19,1.32c-.5.09-1.02,0-1.46-.26-2.5-1.49-5.14-2.72-7.85-3.67-.15-.05-.31-.12-.44-.21-.29-.18-.53-.43-.71-.72l-4.47-7.53-15.01-.51-4.97,7.2c-.3.43-.74.73-1.24.85-2.78.76-5.48,1.8-8.05,3.11-.46.23-.98.29-1.48.16l-7.08-1.8-10.98,10.25,1.31,7.17c.08.45.02.92-.19,1.32-.03.06-.06.11-.1.17-1.45,2.41-2.68,5.06-3.65,7.86-.16.47-.49.87-.92,1.12l-7.53,4.47-.51,15.01,7.21,4.98c.41.28.71.7.84,1.19.78,2.88,1.82,5.61,3.11,8.12.07.14.13.3.17.45.08.34.08.69,0,1.03l-1.8,7.05,10.25,10.98,7.14-1.31c.5-.09,1.02,0,1.45.26,2.55,1.5,5.2,2.74,7.89,3.67.49.15.91.48,1.17.93l4.46,7.52Zm24.78-94.81h0,0Zm-15.51,75.85c-.37,0-.74,0-1.11-.02-17.45-.6-31.15-15.28-30.56-32.72.6-17.45,15.3-31.15,32.72-30.56,17.45.6,31.15,15.28,30.56,32.72-.29,8.44-3.85,16.27-10.03,22.04-5.91,5.53-13.54,8.53-21.59,8.53Zm-.04-59.09c-14.7,0-26.9,11.7-27.41,26.5-.52,15.12,11.36,27.84,26.48,28.36,7.33.25,14.31-2.37,19.67-7.38,5.35-5,8.44-11.79,8.69-19.1.52-15.12-11.36-27.84-26.48-28.36-.32-.01-.64-.02-.95-.02Z"/>
      <g>
        <polygon class="cls-2" points="341.87 27.92 334.7 25.99 332.77 18.82 335.58 16.01 338.54 22.14 344.68 25.11 341.87 27.92"/>
        <path class="cls-2" d="m342.32,23.11c1.31-1.31,1.31-3.44,0-4.74-1.31-1.31-3.43-1.3-4.73,0l3.57-5.35,4.79,2.42,1.05,5.03-4.67,2.64Z"/>
        <path class="cls-1" d="m335.02,16.57l5.26-5.26,7.17,1.93,1.93,7.17-5.26,5.26-7.17-1.93-1.93-7.17Zm9.55,4.3c1.31-1.31,1.31-3.44,0-4.74-1.31-1.31-3.43-1.3-4.73,0-1.31,1.31-1.31,3.42,0,4.72,1.31,1.31,3.43,1.32,4.73,0Z"/>
      </g>
      <g>
        <polygon class="cls-2" points="48.65 219.3 52.5 218.27 53.54 214.42 52.03 212.91 50.44 216.2 47.15 217.79 48.65 219.3"/>
        <path class="cls-2" d="m48.42,216.72c-.7-.7-.7-1.84,0-2.55s1.84-.7,2.54,0l-1.91-2.87-2.57,1.3-.56,2.7,2.5,1.42Z"/>
        <path class="cls-1" d="m52.33,213.21l-2.82-2.82-3.85,1.03-1.03,3.85,2.82,2.82,3.85-1.03,1.03-3.85Zm-5.12,2.31c-.7-.7-.7-1.84,0-2.55s1.84-.7,2.54,0,.7,1.83,0,2.54-1.84.71-2.54,0Z"/>
      </g>
      <g>
        <path class="cls-1" d="m34.8,8.25l3.19,3.19c.83.83,2.19.83,3.02,0h0c.83-.83.83-2.19,0-3.02l-3.19-3.19c-.83-.83-2.19-.83-3.02,0h0c-.83.83-.83,2.19,0,3.02Z"/>
        <path class="cls-2" d="m32.55.3c2.46-.88,5.13.27,5.96,2.58.83,2.31-.49,4.9-2.95,5.79-2.46.88-5.13-.27-5.96-2.58-.83-2.31.49-4.9,2.95-5.79Z"/>
        <rect class="cls-1" x="33.36" y="-.57" width="1.37" height="10.1" transform="translate(41.34 38.04) rotate(-109.76)"/>
      </g>
    </g>
  </g>
</svg>