<svg width="261" height="183" viewBox="0 0 261 183" fill="none" xmlns="http://www.w3.org/2000/svg">
<g clip-path="url(#clip0_445_843)">
<path d="M121.301 85.6966C121.594 85.7711 121.719 85.9799 121.863 86.1539C122.639 87.0984 123.45 88.018 124.161 89.0071C124.643 89.6782 125.215 89.887 126.011 89.877C129.179 89.8472 132.353 89.8621 135.526 89.8621C137.709 89.8621 139.888 89.8621 142.071 89.8621C143.285 89.8621 143.305 89.8373 143.315 88.6592C143.315 88.2516 143.3 87.844 143.33 87.4413C143.365 86.989 143.509 86.9244 143.877 87.168C144.335 87.4712 144.772 87.8191 145.24 88.1074C147.135 89.2855 149.184 89.9019 151.442 89.877C155.167 89.8373 158.888 89.8671 162.613 89.8671C163.727 89.8671 163.727 89.8621 164.14 88.8381C164.508 87.9235 164.886 87.0089 165.234 86.0843C165.404 85.6369 165.687 85.453 166.16 85.458C167.383 85.4729 168.602 85.4729 169.825 85.458C170.308 85.453 170.566 85.6817 170.735 86.1092C171.113 87.0834 171.536 88.0428 171.889 89.027C172.108 89.6285 172.446 89.882 173.113 89.882C178.495 89.8621 183.876 89.8721 189.258 89.8671C190.183 89.8671 190.248 89.7925 190.258 88.8729C190.268 87.8837 190.258 86.8946 190.263 85.9103C190.263 85.6867 190.213 85.4431 190.372 85.2244C190.67 85.1995 190.735 85.4679 190.849 85.6419C191.596 86.7852 192.352 87.9235 193.053 89.0966C193.391 89.6633 193.804 89.887 194.465 89.882C197.957 89.8572 201.449 89.8721 204.94 89.8671C205.91 89.8671 205.97 89.8025 205.97 88.8133C205.97 80.0349 205.97 71.2564 205.97 62.478C205.97 62.3338 205.965 62.1897 205.96 62.0406C205.96 61.6578 205.776 61.4441 205.383 61.4291C205.179 61.4242 204.975 61.4142 204.771 61.4142C201.454 61.4142 198.136 61.4142 194.824 61.4142C194.679 61.4142 194.53 61.4142 194.386 61.4142C193.739 61.454 193.64 61.5385 193.625 62.2046C193.605 63.164 193.625 64.1233 193.615 65.0827C193.615 65.3958 193.675 65.7239 193.53 66.0371C193.217 66.0967 193.152 65.8233 193.033 65.6494C192.232 64.4713 191.426 63.2932 190.66 62.0952C190.342 61.5982 189.959 61.3993 189.372 61.4043C185.881 61.4242 182.389 61.4093 178.897 61.4142C177.972 61.4142 177.908 61.4838 177.908 62.4134C177.903 64.5657 177.908 66.7131 177.903 68.8655C177.903 69.1786 177.957 69.5017 177.823 69.8447C177.54 69.79 177.505 69.5365 177.425 69.3427C176.44 67.076 175.465 64.8043 174.486 62.5376C174.426 62.4034 174.361 62.2742 174.312 62.14C174.133 61.6429 173.804 61.3794 173.252 61.4341C173.168 61.4441 173.078 61.4341 172.989 61.4341C166.15 61.4242 159.316 61.4341 152.477 61.4043C149.811 61.3944 147.369 62.1052 145.086 63.4324C144.732 63.6362 144.414 63.8947 144.071 64.1134C143.887 64.2277 143.733 64.5061 143.474 64.347C143.245 64.2078 143.33 63.9245 143.32 63.7008C143.31 63.2932 143.32 62.8856 143.315 62.478C143.305 61.4689 143.25 61.4192 142.206 61.4093C142.061 61.4093 141.917 61.4093 141.768 61.4093C120.794 61.4093 99.819 61.4093 78.8445 61.4093C77.1783 61.4093 77.417 61.3248 76.8749 62.7812C76.4173 64.004 76.0294 65.2567 75.6016 66.4944C75.4773 66.8473 75.3828 67.2152 75.1391 67.5134C74.7809 67.4438 74.7909 67.1307 74.7063 66.907C74.1493 65.376 73.6071 63.845 73.055 62.314C72.7467 61.459 72.7118 61.4192 71.8066 61.4192C67.5888 61.4192 63.371 61.4142 59.1533 61.4192C58.1983 61.4192 58.1336 61.4938 58.1287 62.483C58.1237 64.6353 58.1287 66.7827 58.1237 68.9351C58.1237 69.2432 58.2082 69.5713 58.0242 69.8696C57.7258 69.8944 57.7158 69.6359 57.6462 69.4719C56.6216 67.1307 55.5771 64.7944 54.6022 62.4283C54.2889 61.6677 53.8562 61.3844 53.0305 61.3993C49.8324 61.4441 46.6292 61.4391 43.4311 61.3993C42.6602 61.3894 42.2374 61.6081 41.924 62.3587C40.0738 66.7827 38.1638 71.1819 36.2688 75.586C36.0798 76.0234 35.856 76.4459 35.6023 76.9828C35.3636 76.5752 35.4283 76.2819 35.4283 76.0085C35.4283 51.1545 35.4283 26.3005 35.4283 1.4465C35.4283 1.35703 35.4283 1.27252 35.4283 1.18305C35.4481 0.273392 35.5128 0.208772 36.4379 0.188889C36.6419 0.188889 36.8458 0.188889 37.0497 0.188889C96.8895 0.188889 156.734 0.188889 216.574 0.188889C216.922 0.188889 217.27 0.188889 217.618 0.203801C218.001 0.213743 218.21 0.412575 218.215 0.800297C218.215 1.03392 218.225 1.26755 218.225 1.49621C218.225 33.528 218.225 65.5648 218.225 97.5967C218.225 98.4815 217.769 98.9256 216.857 98.9289C181.076 98.9289 145.289 98.9289 109.508 98.9289C107.638 98.9289 108.085 98.7947 106.996 100.162C106.325 101.002 105.663 101.847 104.977 102.677C104.624 103.104 104.514 103.109 104.176 102.682C103.42 101.727 102.659 100.768 101.948 99.7739C101.52 99.1774 101.028 98.909 100.272 98.909C90.906 98.9289 81.5354 98.9239 72.1697 98.9239C72.0255 98.9239 71.8762 98.9189 71.732 98.9289C71.1849 98.9786 71.0954 99.068 71.0556 99.6248C71.0357 99.8584 71.0456 100.092 71.0456 100.321C71.0456 108.925 71.0456 117.53 71.0456 126.134C71.0456 127.035 71.4933 127.486 72.3885 127.486C81.5503 127.486 90.717 127.476 99.8787 127.506C100.759 127.506 101.346 127.257 101.833 126.522C102.46 125.577 103.191 124.707 103.888 123.813C104.33 123.246 104.494 123.236 104.942 123.823C105.708 124.812 106.459 125.811 107.19 126.825C107.523 127.292 107.921 127.501 108.508 127.501C113.979 127.486 119.446 127.496 124.917 127.491C125.782 127.491 125.842 127.426 125.847 126.527C125.857 124.956 125.847 123.385 125.852 121.819C125.857 120.95 125.936 120.875 126.802 120.865C127.762 120.855 128.722 120.85 129.682 120.865C131.358 120.895 132.984 120.646 134.566 120.09C135.183 119.871 135.252 119.926 135.287 120.597C135.297 120.8 135.287 121.004 135.287 121.208C135.287 122.953 135.287 124.697 135.287 126.442C135.287 127.441 135.337 127.481 136.312 127.491C136.953 127.496 137.59 127.491 138.232 127.491C140.674 127.491 143.121 127.491 145.563 127.491C147.264 127.491 147.145 127.62 147.145 125.866C147.145 125.17 147.145 124.469 147.155 123.773C147.155 123.604 147.135 123.39 147.339 123.331C147.538 123.271 147.637 123.46 147.747 123.594C148.667 124.717 149.602 125.831 150.497 126.974C150.8 127.362 151.144 127.526 151.616 127.496C151.875 127.481 152.138 127.496 152.402 127.496C171.954 127.496 191.501 127.486 211.053 127.511C213.296 127.511 215.37 127.019 217.345 126C217.499 125.92 217.653 125.831 217.812 125.766C218.021 125.687 218.166 125.786 218.18 125.995C218.21 126.313 218.215 126.631 218.215 126.954C218.215 138.437 218.215 149.919 218.215 161.402C218.215 168.147 218.215 174.888 218.215 181.633C218.215 182.544 217.771 183 216.882 183C156.839 183 96.79 183 36.7463 183C35.8577 183 35.4133 182.544 35.4133 181.633C35.4133 151.49 35.4133 121.347 35.4133 91.1993C35.4133 90.3111 35.8676 89.8654 36.7762 89.8621C38.8403 89.8621 40.9094 89.8373 42.9735 89.8721C43.6649 89.882 44.0379 89.6484 44.2667 88.9922C44.5999 88.0329 45.0277 87.1033 45.3808 86.1539C45.5698 85.6469 45.8782 85.4282 46.4253 85.4431C47.5593 85.4729 48.6934 85.4729 49.8274 85.4431C50.4044 85.4282 50.7475 85.6419 50.9465 86.1887C51.2996 87.1431 51.7174 88.0726 52.0656 89.027C52.2845 89.6384 52.6525 89.9267 53.3041 89.8621C53.508 89.8422 53.7119 89.8621 53.9159 89.8621C75.7906 89.8621 97.6704 89.8621 119.545 89.8621C121.206 89.8621 121.142 89.9367 121.137 88.3112C121.137 87.67 121.132 87.0337 121.137 86.3925C121.137 86.1688 121.072 85.9252 121.301 85.6966Z" fill="#296CB4"/>
<path d="M82.8734 71.326C82.6397 71.9424 82.4009 72.5538 82.1771 73.1752C80.7049 77.2761 79.2376 81.3819 77.7654 85.4829C77.457 86.3378 77.4222 86.3677 76.5169 86.3726C75.5272 86.3826 74.5374 86.3826 73.5526 86.3726C72.6821 86.3627 72.6075 86.313 72.2992 85.4679C71.7023 83.8325 71.1204 82.1872 70.5285 80.5468C69.4243 77.4848 68.3201 74.4278 67.0916 71.3608C67.0767 71.6541 67.0568 71.9424 67.0568 72.2357C67.0568 76.4509 67.0568 80.6612 67.0568 84.8764C67.0568 85.0802 67.0568 85.284 67.0568 85.4878C67.0269 86.2682 66.9424 86.3627 66.1167 86.3726C64.923 86.3826 63.7293 86.3875 62.5406 86.3726C61.69 86.3627 61.6055 86.2782 61.6055 85.3983C61.5955 82.7837 61.6055 80.1691 61.6055 77.5495C61.6055 73.7716 61.6055 69.9938 61.6055 66.216C61.6055 65.9824 61.6005 65.7488 61.6105 65.5201C61.6453 64.8689 61.7348 64.7447 62.3914 64.7447C64.7489 64.7347 67.1015 64.7546 69.4591 64.7447C70.1107 64.7447 70.3594 65.1473 70.5484 65.6792C71.4387 68.1994 72.3439 70.7146 73.2442 73.2298C73.841 74.8951 74.4429 76.5553 75.0646 78.2652C75.3531 78.1062 75.368 77.8626 75.4376 77.6638C76.8203 73.712 78.1981 69.7652 79.5758 65.8134C79.9489 64.7397 79.9439 64.7298 81.0381 64.7298C83.1918 64.7298 85.3405 64.7248 87.4941 64.7298C88.469 64.7298 88.5386 64.8043 88.5386 65.7736C88.5386 72.2854 88.5386 78.7922 88.5386 85.3039C88.5386 85.4481 88.5336 85.5922 88.5287 85.7413C88.5237 86.1191 88.3496 86.3577 87.9517 86.3577C86.5292 86.3627 85.1017 86.3627 83.6792 86.3577C83.2962 86.3577 83.0923 86.144 83.0873 85.7562C83.0824 85.4928 83.0774 85.2343 83.0774 84.9709C83.0774 80.7556 83.0774 76.5454 83.0774 72.3301C83.0774 72.012 83.0774 71.6939 83.0774 71.3757C83.0177 71.3558 82.958 71.336 82.9033 71.321L82.8734 71.326Z" fill="#296CB4"/>
<path d="M196.808 77.7383C196.928 77.3705 196.878 77.0474 196.878 76.7293C196.878 73.2099 196.878 69.6956 196.878 66.1763C196.878 65.9426 196.868 65.709 196.883 65.4803C196.923 64.8789 197.012 64.7645 197.614 64.7496C198.544 64.7248 199.474 64.7397 200.404 64.7397C200.752 64.7397 201.101 64.7298 201.454 64.7397C202.22 64.7695 202.309 64.859 202.339 65.5947C202.344 65.7388 202.339 65.883 202.339 66.0321C202.339 72.3699 202.339 78.7027 202.339 85.0404C202.339 85.9319 201.885 86.3792 200.976 86.3826C199.524 86.3826 198.067 86.3527 196.614 86.3975C195.913 86.4174 195.495 86.144 195.127 85.5723C192.66 81.7001 190.168 77.8427 187.676 73.9804C187.462 73.6474 187.283 73.2795 186.915 72.9614C186.741 73.3143 186.811 73.6325 186.811 73.9357C186.806 77.5992 186.811 81.2626 186.811 84.9211C186.811 85.1548 186.821 85.3884 186.806 85.6171C186.766 86.2285 186.677 86.3577 186.095 86.3676C184.757 86.3925 183.419 86.3925 182.081 86.3676C181.484 86.3577 181.394 86.2384 181.355 85.632C181.34 85.4282 181.35 85.2244 181.35 85.0206C181.35 78.7126 181.35 72.4047 181.35 66.0967C181.35 65.192 181.796 64.738 182.688 64.7347C184.2 64.7347 185.717 64.7745 187.224 64.7198C187.995 64.69 188.442 64.9882 188.845 65.6245C191.332 69.5216 193.849 73.3939 196.361 77.2761C196.465 77.4401 196.515 77.6588 196.803 77.7383H196.808Z" fill="#296CB4"/>
<path d="M159.137 123.793C158.868 123.947 158.599 123.897 158.341 123.897C156.769 123.897 155.197 123.877 153.631 123.907C153.029 123.917 152.591 123.743 152.198 123.271C150.472 121.193 148.717 119.14 146.976 117.072C146.439 116.431 145.309 116.113 144.549 116.406C144.33 116.491 144.23 116.65 144.215 116.868C144.2 117.102 144.195 117.331 144.195 117.564C144.195 119.364 144.2 121.168 144.19 122.968C144.185 123.793 144.096 123.882 143.295 123.892C142.017 123.907 140.734 123.907 139.455 123.892C138.754 123.882 138.66 123.778 138.62 123.082C138.61 122.908 138.615 122.734 138.615 122.56C138.615 116.312 138.615 110.063 138.615 103.815C138.615 102.861 139.104 102.382 140.082 102.379C143.748 102.379 147.413 102.354 151.074 102.394C153.193 102.418 155.083 103.109 156.53 104.72C159.569 108.09 158.684 114.14 153.576 115.77C152.467 116.123 152.477 116.098 153.278 116.983C155.182 119.1 157.073 121.228 158.963 123.355C159.057 123.46 159.166 123.564 159.132 123.793H159.137ZM147.672 111.644C148.572 111.644 149.473 111.649 150.373 111.639C151.139 111.629 151.79 111.321 152.273 110.725C152.745 110.138 152.85 109.467 152.546 108.761C152.163 107.881 151.477 107.354 150.532 107.33C148.647 107.28 146.762 107.295 144.872 107.315C144.325 107.315 144.22 107.444 144.205 108.001C144.18 108.955 144.185 109.914 144.205 110.869C144.22 111.52 144.32 111.619 144.976 111.634C145.877 111.654 146.777 111.634 147.677 111.634L147.672 111.644Z" fill="#296CB4"/>
<path d="M126.712 78.4492C126.702 78.822 126.916 78.9562 127.066 79.1252C128.916 81.208 130.776 83.2907 132.626 85.3785C132.845 85.627 133.268 85.8656 133.104 86.2235C132.964 86.5367 132.522 86.3726 132.218 86.3726C130.706 86.3875 129.194 86.3577 127.682 86.3875C127.046 86.4024 126.583 86.1986 126.175 85.7065C124.494 83.6685 122.738 81.6901 121.107 79.6074C120.44 78.7574 119.67 78.643 118.734 78.7275C118.381 78.7574 118.202 78.9313 118.197 79.2793C118.192 79.8012 118.187 80.3232 118.187 80.8501C118.187 82.391 118.197 83.932 118.182 85.4679C118.177 86.2732 118.078 86.3627 117.267 86.3726C116.073 86.3875 114.885 86.3875 113.691 86.3726C112.821 86.3627 112.736 86.2782 112.726 85.4232C112.716 84.0016 112.726 82.5749 112.726 81.1533C112.726 76.1825 112.726 71.2167 112.726 66.2459C112.726 66.0719 112.726 65.8979 112.726 65.7239C112.746 64.8242 112.816 64.7397 113.741 64.7347C117.317 64.7298 120.893 64.7149 124.469 64.7397C125.544 64.7496 126.608 64.9186 127.638 65.2716C130.323 66.1912 132.293 68.5573 132.288 71.8579C132.288 74.8901 130.284 77.4302 127.324 78.2802C127.13 78.3348 126.936 78.3845 126.712 78.4442V78.4492ZM121.609 74.1196C122.42 74.1196 123.231 74.1196 124.046 74.1196C124.489 74.1196 124.912 74.045 125.315 73.8661C126.185 73.4833 126.757 72.6632 126.697 71.843C126.623 70.8737 126.071 70.2374 125.18 69.9093C124.807 69.7702 124.39 69.6807 123.992 69.6757C122.281 69.6459 120.57 69.6459 118.864 69.6558C118.312 69.6558 118.212 69.7701 118.202 70.3418C118.182 71.3558 118.182 72.3699 118.202 73.3839C118.212 74.0053 118.302 74.0947 118.914 74.1047C119.814 74.1246 120.709 74.1097 121.609 74.1097V74.1196Z" fill="#296CB4"/>
<path d="M74.5173 113.071C74.5173 110.019 74.5173 106.972 74.5173 103.92C74.5173 103.686 74.5124 103.452 74.5173 103.224C74.5472 102.503 74.6268 102.418 75.3231 102.384C75.527 102.374 75.7309 102.384 75.9349 102.384C80.8788 102.384 85.8228 102.384 90.7667 102.384C91.7084 102.384 92.181 102.869 92.1843 103.84C92.1843 104.596 92.1843 105.351 92.1843 106.107C92.1843 107.29 92.1694 107.305 90.9458 107.305C87.7775 107.305 84.6092 107.305 81.4359 107.305C80.5605 107.305 80.1228 107.735 80.1228 108.597C80.1228 109.119 80.1228 109.641 80.1328 110.168C80.1377 110.551 80.3267 110.764 80.7197 110.774C80.9833 110.784 81.2419 110.789 81.5055 110.789C84.4699 110.789 87.4393 110.789 90.4036 110.789C90.6374 110.789 90.8712 110.779 91.1 110.799C91.7118 110.844 91.8311 110.933 91.8461 111.52C91.8709 112.594 91.8709 113.672 91.8461 114.746C91.8361 115.372 91.7118 115.477 91.0453 115.502C90.523 115.521 90.0008 115.511 89.4736 115.511C86.7976 115.511 84.1217 115.511 81.4458 115.511C81.2121 115.511 80.9783 115.516 80.7495 115.521C80.3715 115.521 80.1328 115.69 80.1328 116.088C80.1278 116.928 80.1278 117.773 80.1328 118.613C80.1328 118.966 80.3566 119.13 80.6998 119.14C80.9634 119.15 81.222 119.155 81.4856 119.155C84.5694 119.155 87.6482 119.155 90.7319 119.155C90.9955 119.155 91.2542 119.16 91.5178 119.165C91.9406 119.165 92.1693 119.364 92.1693 119.801C92.1693 120.964 92.1693 122.128 92.1693 123.286C92.1693 123.723 91.9207 123.907 91.5029 123.907C91.2989 123.907 91.095 123.912 90.8911 123.912C85.8626 123.912 80.8291 123.912 75.8006 123.912C74.5223 123.912 74.5173 123.912 74.5173 122.585C74.5173 119.419 74.5173 116.252 74.5173 113.086V113.071Z" fill="#296CB4"/>
<path d="M160.395 113.096C160.395 109.984 160.395 106.877 160.395 103.765C160.395 103.532 160.385 103.298 160.405 103.07C160.45 102.518 160.539 102.433 161.096 102.389C161.3 102.374 161.504 102.379 161.708 102.379C166.712 102.379 171.71 102.379 176.714 102.379C176.828 102.379 176.948 102.379 177.062 102.379C177.977 102.398 178.042 102.458 178.052 103.388C178.062 104.377 178.062 105.366 178.052 106.35C178.042 107.2 177.957 107.29 177.087 107.295C173.859 107.305 170.631 107.295 167.403 107.295C166.465 107.295 165.994 107.754 165.99 108.672C165.99 109.139 165.976 109.601 166 110.068C166.03 110.62 166.145 110.725 166.677 110.769C166.906 110.789 167.139 110.779 167.373 110.779C170.367 110.779 173.362 110.779 176.361 110.779C176.624 110.779 176.883 110.779 177.147 110.799C177.49 110.819 177.689 111.008 177.689 111.356C177.694 112.549 177.694 113.737 177.689 114.93C177.689 115.278 177.485 115.462 177.142 115.477C176.878 115.492 176.619 115.492 176.356 115.492C173.362 115.492 170.367 115.492 167.368 115.492C167.105 115.492 166.846 115.492 166.582 115.506C166.244 115.516 166.015 115.675 166.01 116.028C166 116.898 166 117.773 166.015 118.643C166.02 118.946 166.234 119.105 166.533 119.12C166.796 119.135 167.055 119.14 167.318 119.14C170.432 119.14 173.541 119.14 176.654 119.14C176.918 119.14 177.177 119.145 177.44 119.155C177.828 119.165 178.037 119.364 178.037 119.752C178.042 120.915 178.042 122.078 178.037 123.236C178.037 123.654 177.838 123.887 177.4 123.887C177.196 123.887 176.993 123.897 176.789 123.897C171.755 123.897 166.727 123.897 161.693 123.897C160.824 123.897 160.388 123.463 160.385 122.595C160.385 119.428 160.385 116.262 160.385 113.091L160.395 113.096Z" fill="#296CB4"/>
<path d="M92.0002 75.5114C92.0002 72.4892 92.0002 69.4669 92.0002 66.4447C92.0002 66.2707 92.0002 66.0967 92.0002 65.9227C92.0152 64.8143 92.0848 64.7347 93.194 64.7347C98.2821 64.7347 103.375 64.7347 108.464 64.7347C108.608 64.7347 108.757 64.7347 108.901 64.7397C109.513 64.7894 109.632 64.8789 109.647 65.4654C109.667 66.6286 109.672 67.7918 109.647 68.95C109.637 69.5017 109.513 69.6011 108.971 69.6409C108.712 69.6608 108.449 69.6508 108.185 69.6508C105.101 69.6508 102.017 69.6508 98.9387 69.6508C98.6751 69.6508 98.4164 69.6508 98.1528 69.6608C97.8047 69.6707 97.6107 69.8497 97.6107 70.2026C97.6057 71.0178 97.6107 71.8281 97.6107 72.6433C97.6107 73.031 97.7997 73.2348 98.1926 73.2398C98.4264 73.2398 98.6602 73.2497 98.889 73.2497C101.943 73.2497 104.997 73.2497 108.051 73.2497C108.314 73.2497 108.573 73.2547 108.837 73.2597C109.229 73.2597 109.433 73.4684 109.438 73.8512C109.443 74.9845 109.443 76.1179 109.438 77.2512C109.438 77.6389 109.215 77.8328 108.827 77.8328C108.563 77.8328 108.304 77.8427 108.041 77.8427C104.987 77.8427 101.933 77.8427 98.879 77.8427C98.6452 77.8427 98.4115 77.8477 98.1827 77.8527C97.7848 77.8576 97.6107 78.0764 97.6107 78.4591C97.6107 79.3041 97.6107 80.1442 97.6107 80.9892C97.6107 81.4316 97.8395 81.6156 98.2623 81.6106C98.496 81.6106 98.7298 81.6106 98.9586 81.6106C102.042 81.6106 105.126 81.6106 108.205 81.6106C108.439 81.6106 108.672 81.6007 108.901 81.6156C109.523 81.6553 109.637 81.7349 109.652 82.3264C109.677 83.4299 109.677 84.5334 109.652 85.6369C109.637 86.2285 109.523 86.313 108.906 86.3577C108.732 86.3676 108.558 86.3627 108.384 86.3627C103.38 86.3627 98.3816 86.3627 93.378 86.3627C92.0351 86.3627 92.0102 86.3378 92.0102 85.0007C92.0102 81.8343 92.0102 78.6679 92.0102 75.4965L92.0002 75.5114Z" fill="#296CB4"/>
<path d="M168.07 64.7347C168.94 64.7347 169.815 64.7646 170.686 64.7248C171.328 64.6999 171.686 64.9336 171.939 65.54C173.038 68.1696 174.177 70.7792 175.302 73.3939C177.013 77.3705 178.719 81.3521 180.43 85.3288C180.499 85.4878 180.584 85.6419 180.633 85.8109C180.758 86.2086 180.683 86.3577 180.241 86.3577C178.525 86.3776 176.809 86.3627 175.093 86.3577C174.675 86.3577 174.476 86.0893 174.337 85.7463C173.988 84.8516 173.635 83.9618 173.287 83.067C172.899 82.0629 172.859 82.0281 171.76 82.0281C169.169 82.0281 166.582 82.0431 163.991 82.0182C163.35 82.0132 162.967 82.1922 162.753 82.8334C162.429 83.7977 162.007 84.7273 161.653 85.6817C161.479 86.1539 161.206 86.3826 160.689 86.3776C159.177 86.3627 157.664 86.3826 156.152 86.3676C155.362 86.3577 155.282 86.2235 155.6 85.4828C156.983 82.2518 158.371 79.0158 159.758 75.7898C161.146 72.5588 162.544 69.3327 163.926 66.0967C164.508 64.7347 164.498 64.7347 165.961 64.7298C166.657 64.7298 167.358 64.7298 168.055 64.7298L168.07 64.7347ZM167.935 70.3468C167.866 70.4412 167.796 70.5009 167.766 70.5754C166.956 72.5637 166.14 74.5471 165.349 76.5404C165.115 77.1319 165.205 77.2661 165.851 77.2711C167.274 77.291 168.696 77.286 170.119 77.2711C170.76 77.2661 170.825 77.1568 170.581 76.5354C169.801 74.567 169.01 72.6035 168.219 70.64C168.174 70.5307 168.134 70.4213 167.935 70.3468Z" fill="#296CB4"/>
<path d="M48.2111 64.7397C49.1114 64.7397 50.0166 64.7596 50.9168 64.7347C51.5236 64.7198 51.8668 64.9634 52.1056 65.5301C53.6226 69.114 55.1744 72.688 56.7113 76.267C58.0095 79.2843 59.3027 82.3015 60.5958 85.3238C61.0087 86.2881 60.9589 86.3776 59.9493 86.3826C58.5218 86.3925 57.0993 86.3627 55.6718 86.3925C55.0302 86.4074 54.6472 86.1837 54.4283 85.5624C54.0951 84.603 53.6723 83.6735 53.3291 82.7191C53.155 82.232 52.8715 82.0381 52.3592 82.0381C49.5689 82.053 46.7737 82.053 43.9834 82.0381C43.4711 82.0381 43.1826 82.2319 43.0085 82.7141C42.6305 83.7232 42.1978 84.7074 41.8198 85.7115C41.6407 86.1887 41.3423 86.3925 40.835 86.3875C39.2931 86.3726 37.7512 86.3925 36.2093 86.3776C35.513 86.3726 35.4483 86.2434 35.7318 85.5922C38.5818 78.9711 41.4418 72.355 44.2669 65.7239C44.5703 65.0081 44.9632 64.6651 45.769 64.7248C46.5797 64.7844 47.3954 64.7397 48.2111 64.7397ZM48.0569 70.3617C48.042 70.3915 47.9922 70.4661 47.9624 70.5406C47.1318 72.5787 46.2912 74.6167 45.4755 76.6597C45.2815 77.1518 45.3711 77.2611 45.9381 77.2711C47.3307 77.286 48.7234 77.286 50.1161 77.2711C50.9318 77.2611 51.0014 77.1568 50.7079 76.4111C49.9619 74.5272 49.2059 72.6433 48.4449 70.7643C48.3852 70.6102 48.3553 70.4164 48.0569 70.3567V70.3617Z" fill="#296CB4"/>
<path d="M206.676 123.902C204.816 123.902 202.956 123.902 201.091 123.902C200.131 123.902 200.061 123.828 200.051 122.848C200.041 121.949 200.036 121.044 200.051 120.144C200.066 119.259 200.171 119.15 201.081 119.15C204.045 119.14 207.014 119.15 209.979 119.15C210.357 119.15 210.735 119.15 211.113 119.14C211.436 119.14 211.75 119.076 212.048 118.946C212.69 118.663 213.068 118.181 213.092 117.47C213.117 116.754 212.729 116.262 212.128 115.934C211.71 115.705 211.237 115.68 210.77 115.68C209.168 115.68 207.572 115.671 205.97 115.68C205.144 115.68 204.349 115.551 203.568 115.313C201.469 114.671 200.161 113.265 199.648 111.142C199.335 109.855 199.3 108.557 199.658 107.265C200.23 105.207 201.573 103.85 203.528 103.075C204.672 102.622 205.875 102.394 207.109 102.389C210.541 102.374 213.973 102.379 217.405 102.379C217.549 102.379 217.693 102.379 217.842 102.389C218.181 102.403 218.345 102.572 218.196 102.896C217.569 104.238 216.932 105.575 216.291 106.912C216.126 107.25 215.808 107.3 215.475 107.3C214.749 107.3 214.023 107.3 213.291 107.3C211.312 107.3 209.337 107.3 207.358 107.3C206.92 107.3 206.487 107.31 206.064 107.459C205.194 107.762 204.831 108.339 204.93 109.268C205.02 110.068 205.587 110.675 206.408 110.735C207.159 110.789 207.92 110.754 208.676 110.769C210.213 110.804 211.75 110.72 213.291 110.904C217.683 111.43 219.046 115.054 218.623 117.937C218.564 118.34 218.504 118.742 218.399 119.135C217.569 122.247 215.176 123.763 212.341 123.867C210.451 123.937 208.561 123.882 206.671 123.882V123.892L206.676 123.902Z" fill="#296CB4"/>
<path d="M186.99 123.902C185.16 123.902 183.324 123.902 181.494 123.902C180.375 123.902 180.34 123.862 180.335 122.709C180.335 121.983 180.335 121.258 180.335 120.532C180.335 119.175 180.36 119.15 181.683 119.15C184.737 119.15 187.791 119.15 190.845 119.15C191.282 119.15 191.715 119.16 192.143 119.026C192.909 118.777 193.341 118.26 193.386 117.52C193.426 116.814 193.008 116.187 192.307 115.879C191.894 115.7 191.461 115.68 191.024 115.68C189.367 115.68 187.706 115.69 186.05 115.675C184.931 115.666 183.856 115.422 182.852 114.91C181.181 114.055 180.236 112.638 179.872 110.834C179.669 109.835 179.678 108.801 179.853 107.797C180.226 105.659 181.469 104.173 183.419 103.258C184.622 102.697 185.906 102.413 187.224 102.398C190.745 102.364 194.262 102.379 197.783 102.384C198.619 102.384 198.683 102.488 198.35 103.224C197.992 104.019 197.619 104.804 197.251 105.595C197.141 105.833 196.987 106.057 196.918 106.306C196.664 107.146 196.112 107.364 195.266 107.33C193.729 107.265 192.183 107.31 190.641 107.31C189.591 107.31 188.547 107.31 187.497 107.31C187.179 107.31 186.861 107.32 186.547 107.409C185.557 107.682 185.13 108.279 185.234 109.263C185.324 110.128 185.945 110.739 186.871 110.759C188.527 110.799 190.188 110.784 191.844 110.774C192.635 110.774 193.416 110.864 194.182 111.013C197.007 111.565 198.748 113.508 198.977 116.446C199.111 118.166 198.773 119.826 197.758 121.258C196.51 123.022 194.714 123.828 192.59 123.877C190.73 123.922 188.87 123.887 187.005 123.887V123.897L186.99 123.902Z" fill="#296CB4"/>
<path d="M116.77 113.096C116.77 109.989 116.77 106.882 116.77 103.775C116.77 103.512 116.775 103.253 116.785 102.99C116.8 102.612 116.984 102.398 117.377 102.394C117.581 102.394 117.784 102.384 117.988 102.384C121.679 102.384 125.369 102.384 129.06 102.384C130.826 102.384 132.432 102.886 133.85 103.969C135.108 104.929 135.874 106.196 136.247 107.707C136.715 109.606 136.536 111.45 135.66 113.215C134.929 114.686 133.75 115.675 132.278 116.347C130.736 117.052 129.08 117.157 127.419 117.211C126.14 117.251 124.862 117.216 123.584 117.221C122.4 117.221 122.39 117.236 122.39 118.459C122.39 119.94 122.395 121.422 122.39 122.903C122.385 123.823 122.311 123.892 121.39 123.897C120.172 123.907 118.948 123.907 117.73 123.897C116.869 123.887 116.78 123.808 116.78 122.943C116.77 119.662 116.78 116.381 116.78 113.096H116.77ZM125.777 112.151C125.777 112.151 125.777 112.151 125.777 112.146C126.678 112.146 127.583 112.186 128.478 112.136C130.338 112.032 131.413 110.267 130.622 108.657C130.139 107.673 129.259 107.349 128.244 107.33C126.558 107.305 124.872 107.31 123.186 107.325C122.505 107.33 122.405 107.419 122.395 108.065C122.375 109.169 122.375 110.272 122.395 111.376C122.405 112.042 122.5 112.131 123.161 112.146C124.032 112.166 124.907 112.146 125.777 112.146V112.151Z" fill="#296CB4"/>
<path d="M116.044 123.738C115.815 123.957 115.571 123.897 115.347 123.897C113.631 123.902 111.915 123.882 110.199 123.907C109.617 123.917 109.225 123.728 108.871 123.256C107.638 121.601 106.37 119.975 105.116 118.34C105.047 118.245 104.982 118.151 104.912 118.057C104.425 117.44 104.37 117.43 103.908 118.047C102.664 119.697 101.406 121.327 100.212 123.012C99.7395 123.683 99.2023 123.942 98.3916 123.912C96.9094 123.857 95.4272 123.897 93.945 123.897C93.7709 123.897 93.5968 123.907 93.4228 123.887C92.99 123.843 92.9055 123.683 93.1741 123.326C93.6466 122.699 94.144 122.093 94.6364 121.481C96.6408 118.996 98.6502 116.511 100.66 114.02C101.247 113.294 101.242 113.27 100.66 112.549C98.2175 109.517 95.7754 106.484 93.3432 103.442C93.1343 103.179 92.7165 102.906 92.8607 102.577C93.0398 102.185 93.5371 102.379 93.8903 102.374C95.4322 102.359 96.974 102.389 98.5159 102.354C99.1575 102.339 99.5952 102.548 99.9882 103.075C101.276 104.794 102.609 106.48 103.937 108.175C104.549 108.955 104.624 108.945 105.26 108.13C106.598 106.41 107.941 104.695 109.264 102.96C109.573 102.558 109.916 102.349 110.433 102.359C112.089 102.379 113.746 102.364 115.407 102.369C115.551 102.369 115.7 102.369 115.84 102.394C116.058 102.428 116.138 102.563 116.039 102.766C115.974 102.896 115.884 103.01 115.79 103.124C113.368 106.137 110.945 109.144 108.523 112.156C108.468 112.226 108.409 112.29 108.359 112.36C107.732 113.15 107.737 113.145 108.389 113.966C110.851 117.057 113.313 120.149 115.77 123.241C115.879 123.375 116.014 123.495 116.044 123.733V123.738Z" fill="#296CB4"/>
<path d="M155.471 69.9889C154.601 69.9889 153.725 69.964 152.855 69.9938C150.99 70.0585 149.557 70.8737 148.727 72.5786C147.752 74.5719 147.737 76.6299 148.557 78.6579C149.269 80.4176 150.721 81.2527 152.556 81.4565C153.218 81.5311 153.889 81.5261 154.556 81.5708C155.063 81.6056 155.138 81.71 154.929 82.1623C154.367 83.3752 153.77 84.5682 153.208 85.7811C152.974 86.2931 152.571 86.3726 152.069 86.3875C147.299 86.5068 143.996 83.7033 142.843 79.2097C142.236 76.8386 142.236 74.4427 142.852 72.0517C143.897 68.0105 147.055 65.3163 151.218 64.8888C153.571 64.6452 155.924 64.7596 158.276 64.7447C159.027 64.7397 159.167 64.8839 159.176 65.5996C159.196 66.7926 159.196 67.9807 159.176 69.1737C159.167 69.8646 159.047 69.969 158.341 69.9839C157.381 70.0038 156.421 69.9839 155.461 69.9839L155.471 69.9889Z" fill="#296CB4"/>
<path d="M134.372 75.5412C134.372 72.4047 134.372 69.2681 134.372 66.1266C134.372 65.8631 134.382 65.6046 134.382 65.3412C134.387 64.9435 134.611 64.7496 134.984 64.7496C136.436 64.7447 137.889 64.7447 139.346 64.7496C139.724 64.7496 139.938 64.9634 139.963 65.3412C139.978 65.5996 139.983 65.8631 139.983 66.1266C139.983 72.4295 139.983 78.7325 139.983 85.0404C139.983 85.1548 139.983 85.2741 139.983 85.3884C139.958 86.2981 139.898 86.3676 138.963 86.3726C137.829 86.3826 136.695 86.3776 135.561 86.3726C134.407 86.3726 134.372 86.3378 134.372 85.2095C134.372 82.4208 134.372 79.6322 134.372 76.8436C134.372 76.4062 134.372 75.9737 134.372 75.5363V75.5412Z" fill="#296CB4"/>
</g>
<defs>
<clipPath id="clip0_445_843">
<rect width="261" height="183" fill="white"/>
</clipPath>
</defs>
</svg>
