<svg width="228" height="243" viewBox="0 0 228 243" fill="none" xmlns="http://www.w3.org/2000/svg">
<path d="M0 121.406C0 82.3577 0 43.3148 0 4.26646C0 1.42573 1.44317 0.00358225 4.32952 0C77.4737 0 150.618 0 223.762 0C226.584 0 227.996 1.4526 228 4.3578C228 72.0623 228.005 139.761 228 207.466C228 227.052 212.249 242.946 192.626 242.962C129.622 243.016 66.623 242.984 3.61871 242.979C0.0969295 242.979 0.01077 242.887 0.01077 239.341C0 200.035 0 160.718 0 121.406ZM108.362 31.5256C108.13 31.4289 107.899 31.3375 107.667 31.2408C104.501 34.2338 101.281 37.1837 98.1682 40.2358C82.9394 55.163 67.7269 70.1064 52.5359 85.0658C47.1347 90.3801 47.1886 94.2113 52.5359 99.4289C62.3419 109.004 72.1318 118.601 81.9109 128.209C89.8376 135.995 97.732 143.818 105.669 151.588C106.278 152.185 106.973 153.238 107.829 152.921C108.793 152.566 108.34 151.346 108.346 150.508C108.373 142.271 108.313 134.039 108.4 125.801C108.421 123.749 107.759 122.266 106.294 120.853C98.2543 113.056 90.263 105.211 82.3148 97.3225C78.7553 93.7922 78.7876 90.8852 82.2879 87.3979C90.2307 79.499 98.1628 71.5948 106.17 63.7604C107.683 62.2774 108.459 60.746 108.4 58.5859C108.276 53.8466 108.362 49.0965 108.362 44.3518C108.362 40.0746 108.362 35.792 108.362 31.5148V31.5256ZM120.177 31.1172C119.471 32.2617 119.649 33.0839 119.643 33.8737C119.627 42.1057 119.692 50.3431 119.595 58.5751C119.568 60.7245 120.29 62.272 121.803 63.7551C129.616 71.396 137.36 79.1122 145.114 86.8122C149.395 91.0679 149.422 93.6579 145.125 97.8975C137.285 105.635 129.401 113.335 121.534 121.041C120.634 121.922 119.665 122.739 119.665 124.157C119.665 133.372 119.643 142.593 119.654 151.809C119.654 153.211 120.23 153.399 121.243 152.453C122.681 151.11 124.172 149.815 125.572 148.434C142.438 131.857 159.293 115.27 176.143 98.682C180.429 94.4585 180.461 89.9986 176.229 85.8342C161.474 71.3261 146.719 56.8234 131.937 42.3422C128.114 38.5969 124.199 34.9538 120.177 31.1172ZM111.765 212.726C114.275 212.726 116.789 212.726 119.299 212.726C119.477 212.726 119.66 212.721 119.837 212.71C124.592 212.404 127.678 210.421 128.712 207.015C130.392 201.491 129.202 196.934 125.314 194.038C124.759 193.624 123.768 193.2 124.867 192.523C128.426 190.319 127.656 186.821 127.651 183.587C127.64 178.901 125.815 176.682 121.151 175.86C115.19 174.807 109.164 175.57 103.171 175.403C101.485 175.36 101.399 176.558 101.399 177.794C101.399 188.621 101.421 199.449 101.378 210.282C101.372 212.162 102.153 212.818 103.962 212.759C106.558 212.673 109.164 212.737 111.765 212.732V212.726ZM93.2517 212.737C97.7212 212.737 97.7374 212.737 96.4611 208.96C93.3055 199.632 90.2038 190.293 86.9512 181.002C84.6411 174.404 86.3535 175.451 79.0569 175.387C75.3089 175.355 74.3181 176.096 73.1388 179.567C69.967 188.885 66.806 198.208 63.6558 207.536C61.7926 213.06 62.0403 213.312 67.9315 212.748C69.2077 212.624 69.8755 212.065 70.2363 210.91C70.6078 209.712 71.1463 208.562 71.4371 207.353C71.8841 205.467 72.9772 204.715 74.9051 204.785C77.5006 204.881 80.1069 204.806 82.7079 204.806C87.3659 204.806 87.5113 204.763 88.7929 209.244C89.5576 211.915 90.7369 213.409 93.2571 212.743L93.2517 212.737ZM162.492 212.737C165.518 212.737 166.599 211.448 165.733 208.868C162.492 199.298 159.277 189.723 155.981 180.175C154.064 174.618 155.319 175.414 149.142 175.381C145.136 175.36 143.52 176.553 142.196 180.368C140.963 183.914 139.789 187.482 138.577 191.034C136.391 197.466 134.178 203.887 132.024 210.33C131.738 211.184 130.726 212.372 132.729 212.732C137.522 213.581 138.9 212.818 140.419 208.293C140.559 207.869 140.742 207.455 140.839 207.02C141.21 205.311 142.336 204.758 143.984 204.785C146.762 204.833 149.535 204.79 152.314 204.79C156.789 204.79 156.908 204.763 158.081 209.196C158.781 211.845 159.928 213.425 162.492 212.732V212.737ZM49.9672 212.737C52.2235 212.737 53.7475 212.753 55.2714 212.737C58.0824 212.7 59.0248 211.061 57.6624 208.584C56.8385 207.084 55.4868 206.547 53.8444 206.547C51.5127 206.547 49.1756 206.601 46.8493 206.477C43.1552 206.284 41.3028 204.661 41.1574 201.018C40.9635 196.015 40.9635 190.991 41.1574 185.989C41.2974 182.276 43.0691 180.68 46.8008 180.524C49.9349 180.389 53.0797 180.379 56.2192 180.492C58.3786 180.567 58.9117 179.546 58.5993 177.692C58.2816 175.811 57.2046 174.43 55.2714 174.371C50.6242 174.226 45.9393 173.802 41.362 175.081C36.3325 176.483 34.0654 179.411 34.0331 184.618C33.9954 190.438 34.0008 196.257 34.0331 202.071C34.06 207.702 36.8333 210.969 42.4067 212.178C45.153 212.775 47.9263 212.769 49.9726 212.743L49.9672 212.737ZM170.257 194.564C170.257 199.658 170.332 204.758 170.219 209.852C170.171 212.098 171.038 212.812 173.224 212.769C179.223 212.667 185.232 212.667 191.231 212.769C193.385 212.807 194.042 211.931 194.015 209.9C193.988 207.987 193.563 206.832 191.328 206.891C187.839 206.988 184.339 206.929 180.844 206.902C177.559 206.88 177.3 206.644 177.295 203.398C177.273 194.994 177.295 186.59 177.284 178.186C177.284 174.893 175.146 173.748 172.244 175.43C170.634 176.359 170.251 177.832 170.257 179.535C170.273 184.543 170.262 189.546 170.257 194.554V194.564Z" fill="#00538B"/>
</svg>
