<svg width="27" height="26" viewBox="0 0 27 26" fill="none" xmlns="http://www.w3.org/2000/svg">
<path fill-rule="evenodd" clip-rule="evenodd" d="M19 5H6.04L5.02625 1.45C4.90526 1.03293 4.65246 0.666259 4.30567 0.404872C3.95888 0.143485 3.53676 0.00144056 3.1025 0H1C0.734784 0 0.48043 0.105357 0.292893 0.292893C0.105357 0.48043 0 0.734784 0 1C0 1.26522 0.105357 1.51957 0.292893 1.70711C0.48043 1.89464 0.734784 2 1 2H3.1025L7.625 17.8237C7.80598 18.4494 8.18477 18.9996 8.70463 19.3919C9.2245 19.7842 9.85747 19.9976 10.5087 20H22.5225C23.1646 20.0022 23.7903 19.7975 24.3068 19.416C24.8234 19.0346 25.2032 18.4968 25.39 17.8825L26.6173 13.8944C25.9462 13.791 25.2996 13.6134 24.6861 13.3702L23.4788 17.2938C23.4159 17.4983 23.2891 17.6773 23.117 17.8044C22.9448 17.9315 22.7365 18.0001 22.5225 18H10.5087C10.2915 18 10.0802 17.9292 9.90679 17.7984C9.73336 17.6676 9.60724 17.4839 9.5475 17.275L6.61125 7H19.223C19.0771 6.35678 19 5.68739 19 5ZM11.6629 25.1111C11.8827 24.7822 12 24.3956 12 24C12 23.4696 11.7893 22.9609 11.4142 22.5858C11.0391 22.2107 10.5304 22 10 22C9.60444 22 9.21776 22.1173 8.88886 22.3371C8.55996 22.5568 8.30362 22.8692 8.15224 23.2346C8.00087 23.6001 7.96126 24.0022 8.03843 24.3902C8.1156 24.7781 8.30608 25.1345 8.58579 25.4142C8.86549 25.6939 9.22186 25.8844 9.60982 25.9616C9.99778 26.0387 10.3999 25.9991 10.7654 25.8478C11.1308 25.6964 11.4432 25.44 11.6629 25.1111ZM21.8889 22.3371C22.2178 22.1173 22.6044 22 23 22C23.5304 22 24.0391 22.2107 24.4142 22.5858C24.7893 22.9609 25 23.4696 25 24C25 24.3956 24.8827 24.7822 24.6629 25.1111C24.4432 25.44 24.1308 25.6964 23.7654 25.8478C23.3999 25.9991 22.9978 26.0387 22.6098 25.9616C22.2219 25.8844 21.8655 25.6939 21.5858 25.4142C21.3061 25.1345 21.1156 24.7781 21.0384 24.3902C20.9613 24.0022 21.0009 23.6001 21.1522 23.2346C21.3036 22.8692 21.56 22.5568 21.8889 22.3371Z" fill="white"/>
</svg>
