<svg width="43" height="43" viewBox="0 0 43 43" fill="none" xmlns="http://www.w3.org/2000/svg">
<path fill-rule="evenodd" clip-rule="evenodd" d="M3.55105 22.8484C6.50128 21.5823 9.42125 20.3292 12.3512 19.0718C11.1264 17.5335 8.73718 16.7128 6.51203 17.696C4.40478 18.627 3.2919 20.8364 3.55105 22.8484ZM1.38698 27.0075C-0.351554 24.424 -0.542999 20.6701 1.31152 17.7329C3.18315 14.7686 6.70603 13.2255 10.0961 13.8773C13.6681 14.5642 16.1798 17.3531 16.8328 20.3708C11.691 22.58 6.54565 24.7909 1.38698 27.0075Z" fill="#373A3C"/>
<path fill-rule="evenodd" clip-rule="evenodd" d="M18.5499 9.85352H21.862V10.2315C21.8619 15.5147 21.8638 20.7979 21.8559 26.0811C21.8556 26.3335 21.9189 26.4619 22.166 26.5578C23.0307 26.8934 23.8846 27.2567 24.7655 27.6188C24.3083 28.7108 23.8581 29.7862 23.396 30.8901C22.9379 30.7029 22.4939 30.5227 22.0508 30.3403C21.5688 30.1418 21.0858 29.9456 20.6065 29.7408C19.3991 29.2247 18.7403 28.3045 18.5983 27.0162C18.5643 26.7079 18.552 26.3957 18.5519 26.0854C18.5492 20.7928 18.5499 15.5001 18.5499 10.2074V9.85352Z" fill="#373A3C"/>
<path fill-rule="evenodd" clip-rule="evenodd" d="M30.3286 26.1867C29.5508 27.068 28.7845 27.9364 28.0183 28.8045C24.4518 25.9545 23.8227 19.6301 27.9962 15.9561C28.7679 16.8285 29.5399 17.7012 30.3286 18.5929C29.2172 19.6197 28.624 20.8892 28.6232 22.3841C28.6224 23.88 29.2108 25.1521 30.3286 26.1867Z" fill="#00A6E9"/>
<path fill-rule="evenodd" clip-rule="evenodd" d="M38.5809 21.3343C38.2192 19.8416 37.4313 18.6949 36.1311 17.945C34.8428 17.2021 33.4777 17.0832 32.0517 17.5297C31.6785 16.4024 31.3133 15.299 30.9263 14.1298C31.4542 14.0121 31.9541 13.8591 32.4649 13.794C34.6303 13.5176 36.6459 13.9588 38.4533 15.2151C40.2651 16.4745 41.4338 18.1991 41.9617 20.3667C42.0176 20.596 41.9616 20.6554 41.7415 20.6977C40.7859 20.8814 39.8345 21.0876 38.8813 21.2845C38.7903 21.3033 38.6979 21.3151 38.5809 21.3343Z" fill="#FFF400"/>
<path fill-rule="evenodd" clip-rule="evenodd" d="M31.0857 30.4245C31.4506 29.3157 31.8157 28.2066 32.1806 27.0979C35.1331 28.0281 38.0438 26.2265 38.7137 23.2881C39.8401 23.5217 40.9673 23.7554 42.0935 23.989C41.2276 28.9668 35.8562 32.1467 31.0857 30.4245Z" fill="#F44C1F"/>
<path fill-rule="evenodd" clip-rule="evenodd" d="M5.88204 26.6297C6.88516 27.2246 7.94164 27.5008 9.08842 27.3721C10.2327 27.2436 11.2158 26.7686 12.0644 25.9658C12.8799 26.8023 13.6862 27.6295 14.492 28.4561C11.8328 31.2458 7.17646 31.678 4.03394 29.5736C4.64619 28.5983 5.25895 27.6223 5.88204 26.6297Z" fill="#373A3C"/>
<rect opacity="0.01" width="42.1311" height="42.1311" fill="#FF0000"/>
</svg>
