<svg width="31" height="12" viewBox="0 0 31 12" fill="none" xmlns="http://www.w3.org/2000/svg">
<g id="icon">
<path id="Vector" d="M4.47364 2.56115C4.79453 2.45261 5.13901 2.39599 5.49766 2.39599C7.06437 2.39599 8.37153 3.50967 8.66882 4.98672L10.8868 4.5337C10.3771 2.02318 8.15917 0.130859 5.49766 0.130859C4.88891 0.130859 4.30375 0.229959 3.75635 0.414L4.47364 2.56115Z" fill="#FFF100"/>
<path id="Vector_2" d="M1.85457 9.75307L3.35522 8.05422C2.68512 7.45963 2.26513 6.59605 2.26513 5.62865C2.26513 4.66597 2.68512 3.79767 3.35522 3.2078L1.85457 1.51367C0.71729 2.52354 0 3.99115 0 5.63337C0 7.27087 0.71729 8.74315 1.85457 9.75307Z" fill="#00A3DF"/>
<path id="Vector_3" d="M8.66866 6.2793C8.36664 7.75635 7.0642 8.86532 5.49749 8.86532C5.13885 8.86532 4.79436 8.80869 4.46875 8.70015L3.75146 10.8473C4.29887 11.0313 4.88874 11.1304 5.49749 11.1304C8.15901 11.1304 10.3769 9.24284 10.8866 6.73232L8.66866 6.2793Z" fill="#EE4023"/>
<path id="Vector_4" d="M18.2763 7.79961C17.9082 8.1583 17.4128 8.37533 16.8653 8.36589C16.4878 8.36117 16.1387 8.24791 15.846 8.05915L15.1098 9.22952C15.6147 9.54564 16.2046 9.7344 16.8465 9.74384C17.7761 9.758 18.6254 9.38992 19.2437 8.7906L18.2763 7.79961ZM16.9456 3.02869C15.0957 3.00037 13.5668 4.48214 13.5384 6.332C13.529 7.02569 13.7272 7.67691 14.0811 8.21488L20.1592 5.61466C19.8194 4.15653 18.517 3.057 16.9456 3.02869H16.9456ZM14.9306 6.59621C14.9211 6.52071 14.9164 6.44049 14.9164 6.36026C14.9353 5.27017 15.8319 4.39715 16.922 4.41603C17.5166 4.42547 18.0451 4.69445 18.399 5.11916L14.9306 6.59621ZM22.0704 1.51855V7.99776L23.1936 8.46494L22.6603 9.74379L21.5466 9.28133C21.2965 9.17279 21.1266 9.00763 20.9992 8.81887C20.8765 8.63011 20.7821 8.3658 20.7821 8.01664V1.51855H22.0704ZM26.1241 4.51513C26.3223 4.44906 26.5299 4.41603 26.7518 4.41603C27.7097 4.41603 28.5025 5.09557 28.6865 5.9969L30.0408 5.71848C29.7294 4.1848 28.3751 3.03336 26.7518 3.03336C26.379 3.03336 26.0203 3.0947 25.69 3.20324L26.1241 4.51513ZM24.5243 8.89909L25.4398 7.86563C25.0293 7.50226 24.7744 6.97373 24.7744 6.38386C24.7744 5.79398 25.0339 5.26545 25.4398 4.90681L24.5243 3.87334C23.8306 4.48681 23.3917 5.38815 23.3917 6.38858C23.3917 7.38901 23.8306 8.28562 24.5243 8.89909ZM28.6865 6.78493C28.5025 7.6863 27.7049 8.36579 26.7518 8.36579C26.5347 8.36579 26.3223 8.32804 26.1241 8.26202L25.6853 9.57391C26.0203 9.68712 26.3789 9.74851 26.7518 9.74851C28.3751 9.74851 29.7294 8.59707 30.0408 7.06339L28.6865 6.78493Z" fill="black"/>
</g>
</svg>
