<svg width="29" height="18" viewBox="0 0 29 18" fill="none" xmlns="http://www.w3.org/2000/svg">
<g id="logo">
<g id="icon">
<path id="Vector" d="M18.1803 1.9668H10.6138V15.2949H18.1803V1.9668Z" fill="#FF5F00"/>
<path id="&#60;Path&#62;" d="M11.0942 8.63222C11.0928 7.34844 11.3894 6.08118 11.9616 4.9264C12.5339 3.77162 13.3667 2.7596 14.397 1.96697C13.1213 0.984306 11.5893 0.373244 9.976 0.203625C8.36273 0.0340068 6.73332 0.312675 5.274 1.00778C3.81467 1.70289 2.5843 2.78638 1.72352 4.13444C0.862729 5.4825 0.40625 7.04073 0.40625 8.63104C0.40625 10.2213 0.862729 11.7796 1.72352 13.1276C2.5843 14.4757 3.81467 15.5592 5.274 16.2543C6.73332 16.9494 8.36273 17.2281 9.976 17.0585C11.5893 16.8888 13.1213 16.2778 14.397 15.2951C13.367 14.5027 12.5344 13.4911 11.9622 12.3367C11.39 11.1824 11.0931 9.9156 11.0942 8.63222Z" fill="#EB001B"/>
<path id="Vector_2" d="M28.389 8.63222C28.389 10.2226 27.9324 11.781 27.0714 13.1291C26.2105 14.4772 24.9799 15.5607 23.5204 16.2557C22.0609 16.9507 20.4314 17.2292 18.818 17.0593C17.2046 16.8894 15.6726 16.2781 14.397 15.2951C15.4266 14.502 16.2589 13.4901 16.8313 12.3357C17.4037 11.1813 17.7011 9.91454 17.7011 8.63104C17.7011 7.34754 17.4037 6.0808 16.8313 4.92639C16.2589 3.77198 15.4266 2.76006 14.397 1.96697C15.6726 0.984002 17.2046 0.372643 18.818 0.202781C20.4314 0.0329188 22.0609 0.311407 23.5204 1.00641C24.9799 1.70142 26.2105 2.7849 27.0714 4.133C27.9324 5.48111 28.389 7.03944 28.389 8.62986V8.63222Z" fill="#F79E1B"/>
</g>
</g>
</svg>
