<svg width="20" height="21" viewBox="0 0 20 21" fill="none" xmlns="http://www.w3.org/2000/svg">
<g id="Camada 1">
<g id="Group">
<path id="Vector" d="M15.597 15.6758C14.8128 15.6758 14.0737 15.3709 13.5187 14.8158L10.519 11.8161C10.3092 11.6048 9.94134 11.6064 9.73158 11.8161L6.72063 14.8271C6.16555 15.3822 5.42815 15.6871 4.64233 15.6871H4.05176L7.85175 19.4871C9.03774 20.6731 10.9627 20.6731 12.1487 19.4871L15.9584 15.6774H15.597V15.6758Z" fill="#32BCAD"/>
<path id="Vector_2" d="M4.64413 5.06482C5.42834 5.06482 6.16736 5.36979 6.72243 5.92486L9.73338 8.93581C9.9496 9.15203 10.3046 9.15365 10.5224 8.93581L13.5221 5.93616C14.0772 5.38108 14.8146 5.07612 15.6004 5.07612H15.9618L12.1521 1.26644C10.9662 0.0804568 9.04115 0.0804568 7.85517 1.26644L4.05518 5.06644H4.64575L4.64413 5.06482Z" fill="#32BCAD"/>
<path id="Vector_3" d="M19.1117 8.22731L16.8091 5.92472C16.7591 5.9457 16.7042 5.95699 16.6462 5.95699H15.5989C15.0584 5.95699 14.5275 6.17644 14.1451 6.55886L11.1454 9.55852C10.8647 9.83928 10.4968 9.97966 10.1273 9.97966C9.75775 9.97966 9.38986 9.83928 9.10909 9.55852L6.09814 6.54756C5.71572 6.16514 5.18647 5.9457 4.6443 5.9457H3.35666C3.3018 5.9457 3.25016 5.93279 3.20176 5.91504L0.889489 8.22731C-0.296496 9.41329 -0.296496 11.3383 0.889489 12.5243L3.20176 14.8366C3.25016 14.8188 3.3018 14.8059 3.35666 14.8059H4.6443C5.18485 14.8059 5.71572 14.5864 6.09814 14.204L9.10909 11.1931C9.65287 10.6493 10.6017 10.6493 11.1454 11.1931L14.1451 14.1927C14.5275 14.5752 15.0568 14.7946 15.5989 14.7946H16.6462C16.7042 14.7946 16.7591 14.8075 16.8091 14.8269L19.1117 12.5243C20.2977 11.3383 20.2977 9.41329 19.1117 8.22731Z" fill="#32BCAD"/>
</g>
</g>
</svg>
