<svg width="257" height="180" viewBox="0 0 257 180" fill="none" xmlns="http://www.w3.org/2000/svg">
<path d="M77.7783 56.9311C81.6572 56.9018 85.5458 56.7209 89.1602 58.5984C90.8597 59.4785 92.329 60.5981 93.6709 61.9427C100.831 69.1153 108.07 76.2097 115.161 83.4508C119.775 88.1641 126.808 88.2618 131.368 83.4899C138.214 76.327 145.379 69.4624 152.358 62.4267C156.037 58.7206 160.42 56.892 165.636 56.9703C167.796 57.0045 169.96 57.0094 172.12 56.9556C173.085 56.9311 173.8 57.2441 174.476 57.9237C180.098 63.5757 185.819 69.1398 191.368 74.8602C199.321 83.0498 199.297 97.312 191.324 105.511C185.804 111.188 180.128 116.718 174.544 122.331C173.829 123.049 173.08 123.411 172.052 123.362C168.844 123.211 165.631 123.543 162.423 123.123C158.569 122.624 155.38 120.874 152.677 118.184C145.526 111.08 138.41 103.947 131.27 96.8279C126.48 92.0511 120.01 92.0755 115.186 96.8817C108.011 104.04 100.816 111.173 93.6807 118.37C90.3307 121.749 86.3441 123.396 81.6082 123.367C78.5619 123.348 75.5107 123.348 72.4644 123.411C71.6661 123.431 71.1078 123.201 70.5593 122.653C64.7752 116.845 58.8834 111.144 53.2023 105.238C45.5376 97.2729 45.5327 83.045 53.1925 75.0754C58.8737 69.1691 64.7654 63.4682 70.5495 57.6597C71.0931 57.112 71.6465 56.8578 72.4497 56.892C74.2177 56.9703 75.9956 56.9165 77.7685 56.9165L77.7783 56.9311Z" fill="#2CB4A9"/>
<path d="M78.2043 50.4039C78.3905 49.6656 78.939 49.3332 79.3553 48.9127C88.2444 40.0239 97.1335 31.14 106.037 22.2708C115.352 12.9958 129.448 13.0153 138.782 22.3148C147.725 31.2231 156.654 40.1461 165.577 49.074C165.949 49.4456 166.679 49.783 166.478 50.3404C166.263 50.9271 165.499 50.6582 164.984 50.6533C158.285 50.5457 152.716 53.0735 148.034 57.7819C141.045 64.8078 134.017 71.7946 126.999 78.7913C124.447 81.3337 122.091 81.3435 119.525 78.7913C112.463 71.7604 105.356 64.7687 98.3823 57.6499C93.6905 52.8583 88.1317 50.4479 81.4318 50.6435C80.4915 50.6679 79.5512 50.619 78.6108 50.5946C78.5129 50.5946 78.4149 50.5066 78.2043 50.4039Z" fill="#2CB4A9"/>
<path d="M122.371 164.921C116.077 164.921 110.69 162.707 106.238 158.262C97.2168 149.266 88.2004 140.265 79.1938 131.254C78.8264 130.887 78.082 130.564 78.322 129.987C78.562 129.415 79.3211 129.679 79.8402 129.709C84.4146 129.938 88.7832 129.288 92.8531 127.034C94.6701 126.032 96.2569 124.775 97.7164 123.318C104.842 116.19 111.983 109.071 119.119 101.947C122.15 98.9206 124.354 98.9059 127.342 101.883C134.242 108.773 141.163 115.642 148.034 122.555C152.721 127.269 158.29 129.792 164.994 129.684C165.509 129.674 166.277 129.405 166.483 130.002C166.674 130.554 165.949 130.892 165.572 131.268C156.566 140.279 147.554 149.285 138.523 158.277C134.007 162.77 128.738 164.907 122.371 164.926V164.921Z" fill="#2CB4A9"/>
</svg>
