<svg width="41" height="28" viewBox="0 0 41 28" fill="none" xmlns="http://www.w3.org/2000/svg">
<path d="M21.0325 12.9343C21.0148 14.3272 22.2752 15.1046 23.2247 15.5668C24.2002 16.041 24.5279 16.3451 24.5242 16.7691C24.5167 17.4182 23.746 17.7046 23.0245 17.7157C21.766 17.7353 21.0343 17.3763 20.4525 17.1048L19.9992 19.224C20.5828 19.4927 21.6636 19.7271 22.7844 19.7373C25.415 19.7373 27.1362 18.4401 27.1455 16.4288C27.1558 13.8762 23.611 13.7349 23.6352 12.5939C23.6436 12.248 23.974 11.8788 24.6982 11.7849C25.0566 11.7375 26.0462 11.7012 27.1679 12.2173L27.6082 10.1669C27.005 9.94746 26.2295 9.7373 25.2642 9.7373C22.7881 9.7373 21.0464 11.0522 21.0325 12.9343ZM31.839 9.91398C31.3587 9.91398 30.9537 10.1939 30.7731 10.6235L27.0152 19.5867H29.644L30.1671 18.1425H33.3796L33.6831 19.5867H36L33.9781 9.91398H31.839ZM32.2067 12.527L32.9653 16.1591H30.8876L32.2067 12.527ZM17.8451 9.91398L15.773 19.5867H18.278L20.3492 9.91398H17.8451ZM14.1393 9.91398L11.5319 16.4976L10.4773 10.8997C10.3535 10.2748 9.86475 9.91398 9.32205 9.91398H5.05958L5 10.1948C5.87502 10.3845 6.8692 10.6904 7.47147 11.0178C7.8401 11.2177 7.94529 11.3925 8.0663 11.8677L10.064 19.5867H12.7114L16.77 9.91398H14.1393Z" fill="url(#paint0_linear_1471_10394)"/>
<defs>
<linearGradient id="paint0_linear_1471_10394" x1="19.8545" y1="19.7373" x2="22.7607" y2="10.6686" gradientUnits="userSpaceOnUse">
<stop stop-color="#222357"/>
<stop offset="1" stop-color="#254AA5"/>
</linearGradient>
</defs>
</svg>
