<svg width="43" height="43" viewBox="0 0 43 43" fill="none" xmlns="http://www.w3.org/2000/svg">
<path fill-rule="evenodd" clip-rule="evenodd" d="M27.7093 15.4482C27.8705 15.4803 28.0319 15.5119 28.1932 15.5435L28.1932 15.5435C28.6025 15.6236 29.0117 15.7038 29.4194 15.7912C29.5592 15.8212 29.6956 15.8666 29.8432 15.9157L29.8432 15.9157C29.9139 15.9393 29.9871 15.9637 30.0646 15.9876L29.5357 18.4171C29.3053 18.3715 29.0781 18.3231 28.853 18.2752L28.853 18.2752C28.3206 18.1618 27.7993 18.0508 27.2725 17.9847C26.9042 17.9384 26.5183 17.9972 26.1419 18.0545C26.0962 18.0615 26.0506 18.0684 26.0052 18.0751C25.814 18.1035 25.6209 18.2075 25.4576 18.3194C24.9185 18.689 24.8802 19.2579 25.388 19.6669C25.6391 19.8692 25.9238 20.0316 26.2069 20.1931L26.2071 20.1932C26.2657 20.2267 26.3243 20.2601 26.3825 20.2938C26.6006 20.4202 26.8219 20.5412 27.0432 20.6623C27.3045 20.8051 27.5657 20.948 27.8218 21.0998C30.3682 22.6092 29.6513 25.6068 27.9753 26.7925C27.0883 27.4199 26.0952 27.727 25.0319 27.8539C24.9497 27.8637 24.8685 27.8823 24.7874 27.901L24.7873 27.901L24.7873 27.901C24.7496 27.9097 24.7119 27.9184 24.6742 27.9262H23.3252C23.1568 27.8985 22.9881 27.8725 22.8193 27.8464L22.8191 27.8464L22.8191 27.8464C22.4243 27.7854 22.0295 27.7244 21.6388 27.6434C21.3624 27.5861 21.0915 27.503 20.8157 27.4183L20.8157 27.4183C20.691 27.3801 20.5654 27.3415 20.4378 27.3049L21.0078 24.6803C21.0597 24.7004 21.1097 24.7191 21.1583 24.7373C21.2592 24.7751 21.354 24.8106 21.4465 24.8514C22.4849 25.3098 23.5687 25.5183 24.697 25.37C25.0428 25.3246 25.4018 25.2001 25.7016 25.0222C26.2953 24.67 26.3542 23.9751 25.8353 23.5225C25.5865 23.3054 25.2944 23.1351 25.005 22.9665L25.005 22.9665C24.9547 22.9372 24.9045 22.9079 24.8546 22.8785C24.6458 22.7551 24.432 22.6394 24.2182 22.5237L24.2181 22.5236C23.8689 22.3345 23.5198 22.1456 23.1928 21.9237C20.9721 20.4174 21.6239 17.9157 23.0263 16.7561C23.9133 16.0227 24.9512 15.6726 26.073 15.5234C26.1548 15.5125 26.2354 15.4933 26.316 15.4741L26.316 15.4741C26.3533 15.4652 26.3905 15.4563 26.4278 15.4482H27.7093ZM1.51405 15.7851C1.47756 15.8094 1.44107 15.8338 1.40454 15.8529V15.9878L1.46537 16.0082C1.50817 16.0226 1.55098 16.037 1.594 16.0506C1.8643 16.1366 2.13487 16.2218 2.40544 16.307C3.02155 16.5009 3.63766 16.6949 4.25059 16.8985C4.85742 17.1001 5.16991 17.5435 5.32753 18.1638C5.78889 19.9796 6.26691 21.7911 6.74493 23.6026L6.74497 23.6028L6.74514 23.6034C6.90202 24.1979 7.05891 24.7925 7.21521 25.3872C7.35641 25.9243 7.49951 26.4608 7.64327 26.9999L7.64349 27.0007L7.64425 27.0035C7.70803 27.2427 7.77194 27.4823 7.83586 27.7227C8.11703 27.7227 8.39559 27.7219 8.67225 27.7211H8.67243H8.67261C9.40206 27.719 10.1183 27.7169 10.8343 27.7298C11.1024 27.7346 11.2228 27.6492 11.3269 27.4033C12.5603 24.4906 13.8004 21.5808 15.0405 18.671L15.0409 18.6701C15.423 17.7737 15.805 16.8773 16.1868 15.9808C16.2113 15.9232 16.2313 15.8638 16.2549 15.7933C16.2671 15.7569 16.2803 15.7175 16.2957 15.6739C16.0188 15.6739 15.7451 15.6746 15.4736 15.6754C14.7592 15.6773 14.0604 15.6792 13.3619 15.6674C13.0979 15.663 12.9701 15.7373 12.8691 15.9916C12.1074 17.9098 11.3359 19.824 10.5644 21.7383L10.564 21.7392L10.5628 21.7421L10.5616 21.745C10.3659 22.2308 10.1701 22.7165 9.97451 23.2022C9.9235 23.329 9.8709 23.4551 9.80712 23.6081C9.77485 23.6855 9.73971 23.7698 9.70047 23.8645C9.68399 23.8034 9.6709 23.7571 9.66037 23.7199L9.66036 23.7198L9.66034 23.7198C9.64306 23.6586 9.63267 23.6219 9.62547 23.5845C9.47953 22.8271 9.33396 22.0697 9.18839 21.3123C8.91057 19.8667 8.63276 18.4212 8.35238 16.9762C8.18842 16.1314 7.65733 15.6793 6.80586 15.6751C5.1206 15.6669 3.4352 15.6688 1.74994 15.6799C1.67111 15.6804 1.59258 15.7327 1.51405 15.7851ZM36.889 23.4512H34.2348L35.868 19.0179L35.9454 19.0158L36.889 23.4512ZM40.7269 27.7237V27.6563C40.6697 27.4048 40.6116 27.1535 40.5535 26.9021L40.5534 26.9016C40.4275 26.3571 40.3016 25.8127 40.1852 25.2663C39.7734 23.334 39.3643 21.4011 38.9551 19.4683L38.9549 19.4674L38.9547 19.4665C38.707 18.2964 38.4593 17.1263 38.2111 15.9563C38.1987 15.8979 38.1787 15.8411 38.1578 15.7817L38.1577 15.7816C38.1478 15.7534 38.1377 15.7246 38.128 15.6948C37.846 15.6948 37.5646 15.6927 37.2838 15.6906C36.618 15.6856 35.9553 15.6807 35.2936 15.7039C34.7327 15.7235 34.3306 16.049 34.1084 16.5691C32.5489 20.2189 30.9918 23.8697 29.4348 27.5206C29.4213 27.5525 29.4124 27.5863 29.4006 27.6313L29.4006 27.6314L29.4006 27.6314C29.394 27.6566 29.3865 27.6853 29.3767 27.7191C29.5948 27.7191 29.8106 27.7195 30.0247 27.7198C30.5385 27.7205 31.0427 27.7213 31.5469 27.7176C31.6502 27.7168 31.7602 27.7247 31.8707 27.7327C32.1543 27.7531 32.4414 27.7737 32.6283 27.6485C32.7994 27.5338 32.8704 27.268 32.941 27.0036L32.941 27.0035C32.9706 26.8925 33.0002 26.7818 33.0371 26.6827L33.0385 26.6788C33.3226 25.9146 33.3228 25.9142 34.1549 25.9143C34.4131 25.9143 34.6713 25.9149 34.9296 25.9155H34.9298C35.649 25.9171 36.3681 25.9188 37.0871 25.9081C37.3392 25.9044 37.4455 25.9892 37.4893 26.2313C37.5509 26.5713 37.624 26.9093 37.7006 27.2633L37.7007 27.2636C37.7331 27.4136 37.7662 27.5665 37.7993 27.7237H40.7269ZM15.3573 26.4655C15.2689 26.8755 15.1799 27.2883 15.0898 27.705H18.2452L20.8596 15.675C20.5825 15.675 20.3115 15.6769 20.0449 15.6787C19.4003 15.6832 18.7812 15.6875 18.1632 15.6646C17.7915 15.6508 17.6719 15.7748 17.5979 16.1249C17.2055 17.9788 16.8009 19.83 16.3963 21.6813C16.2405 22.394 16.0848 23.1067 15.9297 23.8196C15.7388 24.697 15.5495 25.5748 15.3573 26.4655Z" fill="#1E3A96"/>
<rect opacity="0.01" width="42.1311" height="42.1311" fill="#FF0000" fill-opacity="0.46"/>
</svg>
