<svg width="43" height="43" viewBox="0 0 43 43" fill="none" xmlns="http://www.w3.org/2000/svg">
<path fill-rule="evenodd" clip-rule="evenodd" d="M31.4357 21.157C31.4948 13.4697 25.242 6.90478 17.2317 6.86492C9.31704 6.82554 2.86235 13.1432 2.85435 21.1456C2.84629 29.1724 9.32461 35.4791 17.2058 35.4555C25.1642 35.4316 31.4966 28.9083 31.4357 21.157ZM25.2745 36.7624H16.3158C16.2005 36.7364 16.0861 36.6931 15.9699 36.6869C14.7453 36.6218 13.5524 36.387 12.3852 36.0192C9.51504 35.1147 7.09858 33.517 5.14022 31.2349C3.11735 28.8774 1.90329 26.1588 1.54187 23.0666C1.50146 22.7209 1.4506 22.3765 1.40454 22.0315C1.40454 21.5505 1.40454 21.0695 1.40454 20.5885C1.42955 20.4622 1.46076 20.3368 1.47868 20.2095C1.60512 19.3109 1.66332 18.3969 1.86505 17.5156C2.63574 14.148 4.33754 11.3339 7.02613 9.14459C9.42551 7.1908 12.184 6.09146 15.2538 5.755C15.6085 5.71615 15.9618 5.66342 16.3158 5.61719H25.2745C25.3791 5.64316 25.4827 5.68657 25.5885 5.69259C26.9023 5.76744 28.1855 6.00789 29.4401 6.40039C32.5892 7.38561 35.2519 9.109 37.333 11.6815C39.315 14.1315 40.4101 16.9402 40.6542 20.0867C40.7658 21.5248 40.6918 22.946 40.3688 24.3492C39.5382 27.9577 37.5748 30.8485 34.6944 33.1248C32.2062 35.0913 29.3827 36.2864 26.2152 36.6313C25.9007 36.6655 25.588 36.7182 25.2745 36.7624Z" fill="#0078C2"/>
<path fill-rule="evenodd" clip-rule="evenodd" d="M13.8671 29.4774C11.166 28.5976 8.33686 25.5594 8.1658 21.6121C7.95169 16.6716 11.4787 13.5922 13.8671 12.8389V29.4774Z" fill="#0078C2"/>
<path fill-rule="evenodd" clip-rule="evenodd" d="M20.4487 29.4769V12.8359C23.3002 13.8156 26.3516 17.0758 26.1426 21.6004C25.9546 25.6697 23.0841 28.6041 20.4487 29.4769Z" fill="#0078C2"/>
<rect opacity="0.01" width="42.1311" height="42.1311" fill="#FF0303"/>
</svg>
