<svg width="43" height="43" viewBox="0 0 43 43" fill="none" xmlns="http://www.w3.org/2000/svg">
<path fill-rule="evenodd" clip-rule="evenodd" d="M11.3979 17.5098C11.4272 17.3477 11.3642 17.1976 11.1848 17.1415C11.0608 17.1025 10.9196 17.1041 10.7892 17.1531C10.4662 17.2739 10.3992 17.5387 10.3992 17.8436C10.3992 18.0732 10.5143 18.2 10.7446 18.2136C11.1511 18.2381 11.3951 17.9837 11.3979 17.5098ZM11.1182 18.9735C10.9389 18.9735 10.7583 18.9719 10.5777 18.9739C10.2335 18.9779 10.2275 18.9775 10.1765 19.3102C9.97467 20.6311 9.74235 21.9468 9.46548 23.254C9.44743 23.3399 9.45786 23.368 9.55055 23.366C9.77926 23.3612 10.0084 23.3604 10.2371 23.3664C10.333 23.3688 10.3623 23.3379 10.3767 23.2408C10.4686 22.6205 10.5617 22.0001 10.6704 21.3826C10.8113 20.5809 10.9674 19.7816 11.1182 18.9735ZM32.2271 19.6649C32.264 19.445 32.2845 19.2725 32.3242 19.1043C32.3523 18.9852 32.311 18.9627 32.2038 18.9671C32.0341 18.9735 31.8636 18.9755 31.6938 18.9663C31.5779 18.9599 31.5498 19.0064 31.5337 19.1144C31.4138 19.9369 31.2838 20.7583 31.1277 21.5752C31.0217 22.1273 30.9146 22.6791 30.8031 23.2296C30.7806 23.3399 30.8063 23.372 30.9206 23.3676C31.1429 23.3588 31.366 23.3632 31.5891 23.366C31.6625 23.3668 31.7155 23.3596 31.7079 23.2641C31.6946 23.0992 31.7223 22.9371 31.75 22.775C31.8752 22.0427 31.9522 21.3012 32.1649 20.5854C32.25 20.2997 32.3932 20.0465 32.6063 19.8378C32.9176 19.5329 33.296 19.4988 33.6977 19.5943C33.7871 19.6155 33.8341 19.6204 33.8445 19.5064C33.8578 19.3672 33.8883 19.2287 33.9204 19.0923C33.9392 19.0129 33.92 18.9808 33.8413 18.9519C33.5011 18.8271 33.1768 18.8588 32.8607 19.0281C32.6011 19.1673 32.4353 19.4017 32.2271 19.6649ZM21.5498 19.6323C21.5406 19.6287 21.5314 19.6254 21.5221 19.6218C21.555 19.4409 21.5823 19.2591 21.6228 19.0798C21.6425 18.9919 21.624 18.965 21.5342 18.9674C21.3408 18.9718 21.147 18.973 20.9536 18.9666C20.8597 18.9638 20.84 19.0027 20.8276 19.0878C20.7433 19.6499 20.6614 20.2129 20.5611 20.7722C20.4147 21.5908 20.2542 22.4073 20.0969 23.2242C20.0776 23.3238 20.0841 23.3743 20.2092 23.3679C20.4143 23.3571 20.6201 23.3579 20.8252 23.3675C20.9423 23.3731 20.9885 23.3406 20.9973 23.2178C21.0129 22.9963 21.0414 22.7748 21.0763 22.555C21.1811 21.8953 21.2709 21.2324 21.4555 20.5888C21.6513 19.9059 22.1023 19.558 22.7479 19.5508C22.8747 19.5492 23.024 19.688 23.1087 19.5689C23.1825 19.4654 23.1536 19.2944 23.1973 19.1624C23.2495 19.0051 23.1821 18.963 23.0477 18.9241C22.563 18.7832 22.1742 18.9485 21.8383 19.2864C21.7328 19.3923 21.6453 19.5163 21.5498 19.6323ZM25.9122 22.5636C25.4403 22.7599 24.995 22.8822 24.5139 22.8493C24.0516 22.8176 23.7551 22.5801 23.6861 22.1207C23.5693 21.3422 23.7411 20.6172 24.1479 19.9511C24.2751 19.7429 24.4774 19.6084 24.7197 19.5378C25.2498 19.3825 25.7646 19.4716 26.2749 19.6265C26.3745 19.6562 26.4222 19.6602 26.433 19.5366C26.4463 19.3854 26.4732 19.2345 26.5061 19.086C26.5305 18.9733 26.4832 18.9396 26.3829 18.9319C25.8741 18.8926 25.3665 18.8389 24.8557 18.897C24.1226 18.9805 23.5657 19.3268 23.2134 19.9832C22.8162 20.7227 22.6541 21.5108 22.7733 22.343C22.837 22.7855 23.1745 23.2486 23.6632 23.3762C24.3546 23.5559 25.023 23.446 25.6915 23.2658C25.7489 23.2506 25.7838 23.2197 25.7955 23.1611C25.832 22.9725 25.8693 22.7835 25.9122 22.5636ZM19.4239 22.5237C18.8682 22.7869 18.3073 22.8748 17.7242 22.8451C17.3122 22.8246 16.9053 22.5955 16.8014 22.1501C16.7163 21.785 16.7693 21.4283 16.8198 21.0688C16.8307 20.9929 16.8905 21.0034 16.9418 21.0014C17.1761 20.9913 17.4105 20.9741 17.6452 20.9741C18.3197 20.9745 18.9946 20.9797 19.6695 20.9889C19.7826 20.9905 19.8348 20.9632 19.8553 20.8425C19.9022 20.5648 19.954 20.2899 19.9524 20.0059C19.9488 19.4565 19.6599 19.0906 19.127 18.9574C18.7751 18.8695 18.4216 18.8503 18.0633 18.8908C17.2291 18.9851 16.5915 19.3602 16.2352 20.1523C15.9455 20.7959 15.8151 21.4668 15.8556 22.1702C15.8889 22.754 16.3026 23.2323 16.874 23.3739C17.6689 23.5709 18.4461 23.4253 19.2233 23.264C19.2695 23.2544 19.2975 23.2355 19.306 23.1886C19.3433 22.9771 19.381 22.7656 19.4239 22.5237ZM29.2607 22.7297C29.2723 22.7329 29.2843 22.7357 29.296 22.7385C29.2811 22.8946 29.2691 23.0511 29.2498 23.2064C29.2354 23.3223 29.2635 23.3777 29.3963 23.3681C29.56 23.356 29.7249 23.3588 29.889 23.3673C29.9921 23.3725 30.031 23.3484 30.0331 23.2352C30.0367 23.0186 30.0499 22.8011 30.0784 22.586C30.1871 21.7546 30.3496 20.9321 30.4909 20.1063C30.5262 19.9001 30.5479 19.6838 30.4804 19.48C30.3797 19.175 30.1298 19.0398 29.8389 18.9664C29.2113 18.8079 28.5801 18.8741 27.9518 18.9583C27.7849 18.9808 27.5682 18.8745 27.4615 19.0262C27.3672 19.1598 27.3712 19.3608 27.3238 19.5301C27.2905 19.6493 27.3062 19.6886 27.4426 19.6537C27.8864 19.541 28.3346 19.4535 28.796 19.4543C28.9509 19.4547 29.1014 19.4772 29.2474 19.5173C29.6097 19.6164 29.7109 19.8435 29.631 20.2905C29.6001 20.4622 29.5451 20.5356 29.3529 20.5224C29.0492 20.5019 28.7426 20.5264 28.4377 20.5164C28.1636 20.5072 27.9048 20.5609 27.6444 20.64C26.7597 20.9076 26.3327 21.6335 26.4303 22.5487C26.4615 22.8412 26.5803 23.0896 26.8363 23.2529C27.3668 23.5912 28.5308 23.5763 29.0773 22.9383C29.1375 22.8681 29.1993 22.7991 29.2607 22.7297ZM12.0965 22.9344C12.3124 23.3031 12.623 23.4608 13.0218 23.4865C13.1699 23.4961 13.3167 23.4865 13.46 23.468C13.9162 23.4095 14.3295 23.2482 14.6694 22.9215C15.1336 22.4758 15.3511 21.9016 15.4999 21.3013C15.6167 20.8286 15.6797 20.3447 15.5429 19.8576C15.4117 19.3914 15.1268 19.0784 14.6561 18.9528C13.9624 18.7678 13.322 18.8822 12.7458 19.3203C12.7221 19.3384 12.7016 19.3729 12.6563 19.3528C12.6719 19.2646 12.678 19.1759 12.7048 19.0936C12.7414 18.9805 12.694 18.964 12.5973 18.9672C12.4388 18.9725 12.2795 18.9789 12.1222 18.9652C11.9782 18.9528 11.9361 19.0102 11.9156 19.1454C11.8213 19.7653 11.7186 20.3836 11.6142 21.002C11.3771 22.412 11.1195 23.8179 10.8374 25.2195C10.8202 25.3041 10.8334 25.3354 10.9253 25.3338C11.1544 25.329 11.3831 25.3278 11.6118 25.3342C11.7114 25.3371 11.7402 25.2997 11.7507 25.2046C11.7751 24.9775 11.8117 24.7516 11.8466 24.5257C11.9288 23.9949 12.0131 23.4648 12.0965 22.9344ZM36.4265 22.7754C36.4333 22.8512 36.4361 22.8857 36.4393 22.9202C36.4546 23.0679 36.3186 23.2605 36.4381 23.3472C36.5388 23.4198 36.7326 23.366 36.8851 23.3644C36.9894 23.3632 37.1178 23.3913 37.1917 23.3412C37.2635 23.2922 37.2093 23.1558 37.2198 23.0583C37.3389 21.956 37.5191 20.8634 37.7249 19.7745C37.8882 18.911 38.0516 18.0471 38.2173 17.184C38.2321 17.107 38.2345 17.0628 38.1342 17.0648C37.8995 17.07 37.6647 17.0692 37.43 17.0652C37.3438 17.0636 37.3241 17.1021 37.3149 17.1796C37.2832 17.4352 37.2462 17.6908 37.2057 17.9452C37.1483 18.3063 37.0861 18.6666 37.0248 19.0338C36.587 18.8921 36.1613 18.8444 35.7227 18.8897C34.8929 18.9752 34.2862 19.3844 33.901 20.1211C33.6342 20.6315 33.4765 21.174 33.4468 21.7506C33.4264 22.141 33.4464 22.5302 33.645 22.8773C33.8742 23.2774 34.267 23.411 34.6967 23.4511C35.2288 23.5009 35.7432 23.4599 36.1645 23.0759C36.2528 22.9953 36.323 22.895 36.4265 22.7754ZM5.80482 17.1981C5.52515 17.1981 5.25551 17.2114 4.98787 17.1933C4.81413 17.1817 4.7399 17.2387 4.7399 17.4064C4.7399 17.4296 4.73429 17.4529 4.73027 17.4762C4.54289 18.5973 4.3856 19.7236 4.17214 20.8407C4.02247 21.6231 3.87361 22.4059 3.71953 23.1876C3.69425 23.3168 3.70308 23.379 3.86157 23.3681C4.07183 23.3541 4.28609 23.3464 4.49474 23.3697C4.69898 23.3926 4.7403 23.3039 4.76879 23.1266C4.91204 22.2294 5.07093 21.3354 5.2206 20.4394C5.23785 20.3363 5.26995 20.2909 5.38712 20.2917C6.22613 20.2974 7.06554 20.2978 7.90455 20.2917C8.04177 20.2909 8.05983 20.3379 8.03535 20.4555C7.98118 20.7135 7.93584 20.9735 7.88769 21.2327C7.76612 21.8891 7.64694 22.5464 7.52055 23.2024C7.49447 23.3364 7.52617 23.3753 7.6642 23.3677C7.88649 23.3561 8.11079 23.3517 8.33268 23.3689C8.49759 23.3818 8.54735 23.3244 8.57182 23.1663C8.71186 22.2747 8.85671 21.3839 9.0136 20.4956C9.207 19.4002 9.41364 18.3072 9.61707 17.1981C9.30009 17.1981 8.9839 17.2005 8.66812 17.1969C8.56941 17.1957 8.57744 17.2595 8.56661 17.3237C8.44182 18.0692 8.31382 18.8144 8.19144 19.5603C8.1782 19.6405 8.16335 19.6859 8.06785 19.6879C7.19955 19.7063 6.33125 19.7216 5.46295 19.6839C5.37387 19.6798 5.351 19.6465 5.36746 19.5655C5.39715 19.4162 5.42443 19.2662 5.45212 19.1165C5.56848 18.4829 5.68484 17.8493 5.80482 17.1981ZM35.0602 29.8478C23.4296 29.8478 11.7986 29.8478 0.168024 29.849C0.0645017 29.849 -0.0309954 29.8587 0.00953071 29.707C0.0701192 29.6701 0.055273 29.6019 0.0657054 29.5493C0.541586 27.2361 1.01305 24.9221 1.48733 22.6085C2.04065 19.9101 2.59758 17.2129 3.1497 14.5145C3.28933 13.8312 3.55937 13.2217 4.08862 12.7462C4.92843 11.9919 5.95643 11.6897 7.03819 11.6853C12.9209 11.6592 18.8036 11.6717 24.6863 11.6705C24.7625 11.6705 24.8388 11.6665 24.9146 11.6641C24.9439 11.6661 24.9732 11.6693 25.0025 11.6693C29.1197 11.6689 33.2373 11.6677 37.3545 11.6673C38.8443 11.6673 40.3342 11.6697 41.824 11.6709C41.7959 11.975 41.7129 12.2691 41.6519 12.5673C40.652 17.4384 39.6524 22.31 38.6501 27.1807C38.4804 28.0049 38.0515 28.6621 37.3417 29.124C36.8786 29.4249 36.3642 29.5962 35.8269 29.7082C35.5722 29.7616 35.3089 29.7652 35.0602 29.8478Z" fill="#B61613"/>
<path fill-rule="evenodd" clip-rule="evenodd" d="M5.8048 17.1987C5.68522 17.8499 5.56886 18.4834 5.4521 19.117C5.42441 19.2667 5.39713 19.4168 5.36744 19.566C5.35139 19.6471 5.37426 19.6804 5.46333 19.6844C6.33164 19.7221 7.19954 19.7069 8.06784 19.6884C8.16333 19.6864 8.17818 19.6411 8.19142 19.5608C8.3142 18.8149 8.4418 18.0698 8.56659 17.3242C8.57742 17.26 8.5694 17.1962 8.6681 17.1974C8.98389 17.2011 9.30007 17.1987 9.61706 17.1987C9.41362 18.3077 9.20698 19.4007 9.01358 20.4961C8.85669 21.3845 8.71184 22.2756 8.5718 23.1668C8.54733 23.3249 8.49797 23.3823 8.33266 23.3694C8.11077 23.3522 7.88647 23.3566 7.66418 23.3682C7.52615 23.3759 7.49445 23.3369 7.52053 23.2029C7.64693 22.5469 7.7661 21.8896 7.88808 21.2332C7.93623 20.974 7.98117 20.714 8.03534 20.456C8.05981 20.3384 8.04176 20.2915 7.90453 20.2923C7.06552 20.2983 6.22611 20.2979 5.3871 20.2923C5.26993 20.2915 5.23783 20.3368 5.22058 20.4399C5.07091 21.3359 4.91202 22.2303 4.76877 23.1271C4.74029 23.3044 4.69936 23.3935 4.49472 23.3703C4.28607 23.347 4.07181 23.3546 3.86155 23.3686C3.70306 23.3795 3.69423 23.3173 3.71951 23.1881C3.87359 22.4065 4.02285 21.6236 4.17212 20.8412C4.38558 19.7241 4.54287 18.5978 4.73025 17.4767C4.73427 17.4534 4.73988 17.4302 4.73988 17.4069C4.73988 17.2392 4.81412 17.1822 4.98786 17.1938C5.25549 17.2119 5.52513 17.1987 5.8048 17.1987Z" fill="#FDFBFB"/>
<path fill-rule="evenodd" clip-rule="evenodd" d="M34.3803 21.7761C34.3803 21.864 34.3783 21.9523 34.3807 22.0401C34.3943 22.5537 34.7362 22.8824 35.2454 22.8719C35.8601 22.8595 36.2934 22.5224 36.4696 21.9049C36.6742 21.1879 36.7685 20.448 36.9097 19.7181C36.9194 19.6688 36.9306 19.6266 36.8692 19.603C36.4648 19.4485 36.0459 19.4104 35.6269 19.5006C35.1992 19.5925 34.9368 19.8999 34.7414 20.2706C34.4926 20.7413 34.3807 21.2453 34.3803 21.7761ZM36.4262 22.7757C36.3231 22.8957 36.2529 22.9956 36.1646 23.0762C35.7433 23.4602 35.2289 23.5011 34.6969 23.4514C34.2667 23.4113 33.8739 23.2776 33.6452 22.8776C33.4466 22.5305 33.4265 22.1413 33.4466 21.7509C33.4767 21.1743 33.6344 20.6318 33.9008 20.1218C34.286 19.3847 34.8931 18.9755 35.7225 18.89C36.1614 18.8447 36.5871 18.8928 37.0249 19.034C37.0863 18.6669 37.1485 18.3066 37.2059 17.9459C37.2464 17.6911 37.2833 17.4359 37.3146 17.1799C37.3242 17.1024 37.3439 17.0639 37.4298 17.0655C37.6645 17.0699 37.8996 17.0703 38.1344 17.0655C38.2347 17.0631 38.2323 17.1073 38.2174 17.1847C38.0513 18.0478 37.888 18.9113 37.7251 19.7748C37.5192 20.8637 37.3391 21.9563 37.2199 23.0586C37.2095 23.1565 37.2636 23.2925 37.1918 23.3414C37.118 23.3916 36.9896 23.3635 36.8853 23.3647C36.7324 23.3663 36.5386 23.4201 36.4383 23.3475C36.3187 23.2608 36.4547 23.0682 36.4395 22.9205C36.4359 22.886 36.4331 22.8515 36.4262 22.7757Z" fill="#FDFBFB"/>
<path fill-rule="evenodd" clip-rule="evenodd" d="M14.6674 20.6343C14.6674 20.5384 14.6754 20.4321 14.6658 20.3274C14.6453 20.1087 14.5923 19.8989 14.4322 19.7356C14.1474 19.4454 13.7882 19.4274 13.4187 19.4808C13.137 19.5213 12.8999 19.6653 12.6977 19.8579C12.5737 19.9759 12.6126 20.1549 12.5705 20.3041C12.5516 20.3715 12.5412 20.4417 12.5307 20.5112C12.4521 21.0207 12.3169 21.5211 12.2787 22.0367C12.2495 22.4315 12.4778 22.775 12.8461 22.8597C13.3228 22.9688 13.8713 22.826 14.1714 22.3589C14.5069 21.8365 14.659 21.2615 14.6674 20.6343ZM12.0966 22.9356C12.0131 23.466 11.9289 23.9965 11.8466 24.5269C11.8117 24.7528 11.7752 24.9787 11.7507 25.2058C11.7403 25.3009 11.7114 25.3382 11.6119 25.3354C11.3832 25.329 11.1541 25.3306 10.9254 25.335C10.8335 25.3366 10.8202 25.3053 10.8371 25.2207C11.1196 23.8191 11.3772 22.4131 11.6143 21.0031C11.7186 20.3848 11.8213 19.7665 11.9152 19.1466C11.9357 19.0114 11.9778 18.9544 12.1219 18.9664C12.2792 18.9801 12.4389 18.9736 12.5969 18.9684C12.6941 18.9652 12.7414 18.9817 12.7049 19.0948C12.678 19.1771 12.672 19.2657 12.6563 19.354C12.7017 19.3745 12.7221 19.3396 12.7458 19.3219C13.322 18.8834 13.9624 18.7694 14.6562 18.954C15.1268 19.0796 15.4117 19.3925 15.5425 19.8588C15.6793 20.3459 15.6167 20.8298 15.4996 21.3025C15.3511 21.9027 15.1332 22.4773 14.6694 22.9227C14.3291 23.2493 13.9163 23.4106 13.4596 23.4692C13.3168 23.4877 13.1699 23.4977 13.0219 23.4881C12.623 23.462 12.3125 23.3043 12.0966 22.9356Z" fill="#FDFBFB"/>
<path fill-rule="evenodd" clip-rule="evenodd" d="M28.8658 21.0326C28.7426 21.0326 28.6194 21.0322 28.4962 21.0326C27.8695 21.0338 27.4257 21.3672 27.3005 21.9767C27.2283 22.3294 27.3093 22.6729 27.6552 22.7997C28.1074 22.9658 28.5147 22.8579 28.863 22.5557C29.2919 22.1842 29.3517 21.6425 29.462 21.1289C29.4813 21.0394 29.4211 21.0334 29.3585 21.033C29.194 21.0326 29.0299 21.033 28.8658 21.0326ZM29.2606 22.73C29.1996 22.7994 29.1374 22.8685 29.0772 22.9387C28.5307 23.5763 27.3667 23.5915 26.8362 23.2533C26.5802 23.09 26.4615 22.8416 26.4302 22.5487C26.3327 21.6338 26.7596 20.908 27.6443 20.6399C27.9047 20.5613 28.1635 20.5075 28.4376 20.5163C28.7425 20.5268 29.0491 20.5019 29.3528 20.5228C29.545 20.536 29.6 20.4622 29.6309 20.2908C29.7108 19.8439 29.6096 19.6167 29.2473 19.5176C29.1013 19.4775 28.9508 19.455 28.7959 19.4546C28.3345 19.4538 27.8863 19.5413 27.4425 19.6541C27.3061 19.6886 27.2904 19.6497 27.3237 19.5301C27.3711 19.3612 27.3671 19.1597 27.4614 19.0261C27.5681 18.8748 27.7848 18.9812 27.9517 18.9587C28.58 18.874 29.2112 18.8078 29.8392 18.9667C30.1297 19.0402 30.3796 19.1754 30.4804 19.4803C30.5478 19.6842 30.5261 19.9004 30.4912 20.1063C30.3495 20.9324 30.1874 21.755 30.0783 22.5864C30.0498 22.8011 30.0366 23.0189 30.033 23.2356C30.0314 23.3484 29.992 23.3724 29.8889 23.3676C29.7252 23.3592 29.5599 23.356 29.3962 23.368C29.2634 23.3776 29.2357 23.3227 29.2497 23.2067C29.269 23.0514 29.281 22.8949 29.2959 22.7389C29.2842 22.7361 29.2722 22.7328 29.2606 22.73Z" fill="#FDFBFB"/>
<path fill-rule="evenodd" clip-rule="evenodd" d="M16.9671 20.4753C17.0256 20.4781 17.083 20.4825 17.14 20.4829C17.6668 20.4853 18.1937 20.4873 18.7205 20.4885C19.1218 20.4893 19.1234 20.4885 19.1181 20.0873C19.1145 19.8104 18.999 19.6078 18.7289 19.5027C18.6278 19.4633 18.5243 19.4537 18.4204 19.4465C17.662 19.3935 17.1585 19.6656 16.9671 20.4753ZM19.4239 22.5233C19.381 22.7652 19.3429 22.9767 19.306 23.1882C19.2976 23.2351 19.2695 23.254 19.2233 23.2636C18.4457 23.4249 17.6689 23.5705 16.8736 23.3735C16.3026 23.2319 15.8889 22.7536 15.8552 22.1698C15.8151 21.4664 15.9455 20.7955 16.2352 20.1519C16.5915 19.3598 17.2291 18.9847 18.0633 18.8904C18.4216 18.8499 18.7751 18.8691 19.127 18.957C19.6599 19.0902 19.9484 19.4561 19.9524 20.0055C19.954 20.2895 19.9022 20.5644 19.8549 20.8421C19.8348 20.9628 19.7827 20.9901 19.6695 20.9885C18.9946 20.9793 18.3197 20.9741 17.6452 20.9737C17.4105 20.9737 17.1762 20.9909 16.9418 21.001C16.8905 21.003 16.8303 20.9925 16.8198 21.0684C16.7693 21.4279 16.7163 21.7846 16.8014 22.1497C16.9053 22.5951 17.3122 22.8242 17.7243 22.8447C18.3073 22.8744 18.8682 22.7865 19.4239 22.5233Z" fill="#FDFBFB"/>
<path fill-rule="evenodd" clip-rule="evenodd" d="M25.9123 22.5643C25.869 22.7846 25.8321 22.9732 25.7951 23.1621C25.7839 23.2203 25.7486 23.2512 25.6912 23.2669C25.0231 23.4466 24.3543 23.5566 23.6633 23.3768C23.1742 23.2496 22.8367 22.7862 22.7733 22.3436C22.6538 21.5114 22.8163 20.7238 23.2131 19.9839C23.5654 19.3274 24.1227 18.9815 24.8554 18.8977C25.3666 18.8395 25.8742 18.8933 26.3826 18.9326C26.4829 18.9402 26.5306 18.9739 26.5058 19.0867C26.4733 19.2351 26.446 19.386 26.4331 19.5373C26.4223 19.6613 26.3741 19.6572 26.275 19.6271C25.7646 19.4727 25.2498 19.3836 24.7194 19.5385C24.477 19.6095 24.2752 19.7435 24.148 19.9518C23.7408 20.6178 23.5694 21.3433 23.6862 22.1213C23.7552 22.5811 24.0517 22.8187 24.5136 22.85C24.9947 22.8829 25.4404 22.7605 25.9123 22.5643Z" fill="#FDFBFB"/>
<path fill-rule="evenodd" clip-rule="evenodd" d="M21.55 19.6336C21.6455 19.5176 21.7329 19.3936 21.8381 19.2877C22.1739 18.9498 22.5631 18.7845 23.0474 18.9254C23.1822 18.9647 23.2493 19.0064 23.1975 19.1637C23.1538 19.2957 23.1826 19.4666 23.1088 19.5702C23.0242 19.6893 22.8749 19.5505 22.7481 19.5521C22.1025 19.5593 21.6515 19.9072 21.4557 20.5901C21.2711 21.2337 21.1812 21.8966 21.0765 22.5562C21.0416 22.7761 21.0131 22.9976 20.997 23.2195C20.9886 23.3419 20.9425 23.3744 20.8253 23.3688C20.6203 23.3591 20.414 23.3583 20.2094 23.3692C20.0842 23.3756 20.0778 23.325 20.097 23.2255C20.2539 22.4086 20.4144 21.592 20.5613 20.7735C20.6616 20.2142 20.7435 19.6512 20.8273 19.0891C20.8402 19.004 20.8598 18.9651 20.9533 18.9683C21.1467 18.9743 21.3409 18.9731 21.5343 18.9687C21.6242 18.9663 21.6423 18.9932 21.6226 19.081C21.5825 19.2604 21.5548 19.4426 21.5223 19.6235C21.5315 19.6267 21.5407 19.6303 21.55 19.6336Z" fill="#FDFBFB"/>
<path fill-rule="evenodd" clip-rule="evenodd" d="M32.2273 19.6657C32.4355 19.4029 32.6013 19.1682 32.8609 19.0293C33.177 18.86 33.5013 18.8279 33.8415 18.9527C33.9202 18.9816 33.9394 19.0137 33.9206 19.0931C33.8885 19.2295 33.8576 19.368 33.8447 19.5072C33.8339 19.6212 33.7873 19.6163 33.6979 19.5951C33.2958 19.4996 32.9178 19.5341 32.6061 19.839C32.393 20.0473 32.2502 20.3005 32.1651 20.5862C31.952 21.302 31.8754 22.0435 31.7502 22.7762C31.7225 22.9379 31.6944 23.1004 31.7077 23.2653C31.7153 23.3604 31.6627 23.3676 31.5889 23.3668C31.3662 23.3644 31.1431 23.3596 30.9208 23.3684C30.8065 23.3732 30.7808 23.3407 30.8029 23.2308C30.9144 22.6799 31.0219 22.1282 31.1275 21.5764C31.284 20.7595 31.414 19.9381 31.5339 19.1152C31.5496 19.0073 31.5781 18.9611 31.694 18.9671C31.8634 18.9768 32.0343 18.9743 32.204 18.9679C32.3108 18.9639 32.3525 18.986 32.3244 19.1056C32.2847 19.2733 32.2642 19.4458 32.2273 19.6657Z" fill="#FDFBFB"/>
<path fill-rule="evenodd" clip-rule="evenodd" d="M11.1179 18.9742C10.9671 19.7824 10.811 20.5812 10.6702 21.3829C10.5614 22.0009 10.4683 22.6212 10.3764 23.2415C10.362 23.3386 10.3331 23.3695 10.2368 23.3671C10.0081 23.3611 9.77898 23.3619 9.55027 23.3667C9.45758 23.3687 9.44715 23.3402 9.46561 23.2548C9.74247 21.9475 9.97439 20.6318 10.1762 19.3109C10.2272 18.9783 10.2332 18.9783 10.5775 18.9746C10.7584 18.9726 10.939 18.9742 11.1179 18.9742Z" fill="#FDFBFB"/>
<path fill-rule="evenodd" clip-rule="evenodd" d="M11.3979 17.5099C11.3951 17.9838 11.1511 18.2382 10.7446 18.2137C10.5143 18.2001 10.3992 18.0733 10.3992 17.8438C10.3992 17.5388 10.4662 17.274 10.7892 17.1532C10.9196 17.1043 11.0608 17.1027 11.1848 17.1416C11.3642 17.1978 11.4272 17.3478 11.3979 17.5099Z" fill="#FDFBFB"/>
<path fill-rule="evenodd" clip-rule="evenodd" d="M34.3802 21.7767C34.3806 21.2459 34.4925 20.7419 34.7413 20.2713C34.9367 19.9005 35.1991 19.5932 35.6269 19.5013C36.0458 19.411 36.4647 19.4491 36.8691 19.6036C36.9305 19.6273 36.9193 19.6694 36.9096 19.7187C36.7684 20.4486 36.6741 21.1885 36.4695 21.9055C36.2933 22.5231 35.86 22.8601 35.2453 22.8726C34.7361 22.883 34.3942 22.5544 34.3806 22.0408C34.3782 21.9529 34.3802 21.8646 34.3802 21.7767Z" fill="#B61613"/>
<path fill-rule="evenodd" clip-rule="evenodd" d="M14.6673 20.6343C14.6588 21.2614 14.5068 21.8364 14.1713 22.3588C13.8712 22.8259 13.3227 22.9687 12.846 22.8596C12.4777 22.7749 12.2494 22.4315 12.2786 22.0366C12.3168 21.521 12.452 21.0207 12.5306 20.5111C12.5411 20.4417 12.5515 20.3715 12.5704 20.3041C12.6125 20.1548 12.5736 19.9758 12.6975 19.8579C12.8998 19.6653 13.1369 19.5212 13.4186 19.4807C13.7881 19.4273 14.1473 19.4454 14.4321 19.7355C14.5922 19.8988 14.6452 20.1086 14.6657 20.3273C14.6753 20.432 14.6673 20.5384 14.6673 20.6343Z" fill="#B61613"/>
<path fill-rule="evenodd" clip-rule="evenodd" d="M28.8659 21.0334C29.03 21.0334 29.1941 21.033 29.3586 21.0338C29.4212 21.0342 29.4814 21.0402 29.4621 21.1297C29.3518 21.6429 29.292 22.1846 28.8631 22.5565C28.5148 22.8583 28.1075 22.9662 27.6553 22.8005C27.3094 22.6733 27.2284 22.3302 27.3006 21.9775C27.4258 21.368 27.8696 21.0346 28.4963 21.0334C28.6195 21.033 28.7427 21.0334 28.8659 21.0334Z" fill="#B61613"/>
<path fill-rule="evenodd" clip-rule="evenodd" d="M16.9673 20.4756C17.1587 19.6659 17.6622 19.3938 18.4206 19.4468C18.5245 19.454 18.6281 19.4636 18.7292 19.503C18.9992 19.6081 19.1148 19.8107 19.1184 20.0876C19.1236 20.4888 19.122 20.4896 18.7207 20.4888C18.1939 20.4876 17.6671 20.4856 17.1402 20.4832C17.0832 20.4828 17.0259 20.4784 16.9673 20.4756Z" fill="#B61613"/>
<rect opacity="0.01" width="42.1311" height="42.1311" fill="#FF0000"/>
</svg>
