<svg width="56" height="56" viewBox="0 0 56 56" fill="none" xmlns="http://www.w3.org/2000/svg">
<g id="CheckCircle">
<path id="Vector" d="M37.9881 21.5119C38.1508 21.6744 38.2799 21.8674 38.368 22.0799C38.4561 22.2923 38.5014 22.52 38.5014 22.75C38.5014 22.98 38.4561 23.2077 38.368 23.4201C38.2799 23.6326 38.1508 23.8256 37.9881 23.9881L25.7381 36.2381C25.5756 36.4008 25.3826 36.5299 25.1702 36.618C24.9577 36.706 24.73 36.7514 24.5 36.7514C24.27 36.7514 24.0423 36.706 23.8299 36.618C23.6174 36.5299 23.4244 36.4008 23.2619 36.2381L18.0119 30.9881C17.6835 30.6598 17.499 30.2144 17.499 29.75C17.499 29.2856 17.6835 28.8402 18.0119 28.5119C18.3403 28.1835 18.7856 27.999 19.25 27.999C19.7144 27.999 20.1598 28.1835 20.4881 28.5119L24.5 32.5259L35.5119 21.5119C35.6744 21.3492 35.8674 21.2201 36.0799 21.132C36.2923 21.044 36.52 20.9986 36.75 20.9986C36.98 20.9986 37.2077 21.044 37.4202 21.132C37.6326 21.2201 37.8256 21.3492 37.9881 21.5119ZM50.75 28C50.75 32.4995 49.4157 36.898 46.9159 40.6392C44.4161 44.3804 40.8631 47.2964 36.7061 49.0183C32.549 50.7402 27.9748 51.1907 23.5617 50.3129C19.1486 49.4351 15.095 47.2683 11.9133 44.0867C8.73169 40.905 6.56496 36.8514 5.68715 32.4383C4.80933 28.0252 5.25986 23.451 6.98175 19.294C8.70364 15.1369 11.6196 11.5839 15.3608 9.08407C19.102 6.58426 23.5005 5.25 28 5.25C34.0317 5.25637 39.8146 7.65528 44.0797 11.9204C48.3447 16.1854 50.7436 21.9683 50.75 28ZM47.25 28C47.25 24.1927 46.121 20.4709 44.0058 17.3053C41.8906 14.1396 38.8841 11.6723 35.3667 10.2153C31.8492 8.75833 27.9787 8.37712 24.2445 9.11988C20.5104 9.86265 17.0804 11.696 14.3882 14.3882C11.696 17.0804 9.86266 20.5104 9.11989 24.2445C8.37713 27.9786 8.75834 31.8492 10.2153 35.3667C11.6723 38.8841 14.1396 41.8906 17.3053 44.0058C20.4709 46.121 24.1927 47.25 28 47.25C33.1037 47.2442 37.9966 45.2142 41.6054 41.6054C45.2142 37.9966 47.2442 33.1036 47.25 28Z" fill="#178629"/>
</g>
</svg>
