<?xml version="1.0" encoding="UTF-8"?>
<svg id="Camada_2" data-name="Camada 2" xmlns="http://www.w3.org/2000/svg" viewBox="0 0 171.16 171.16">
  <defs>
    <style>
      .cls-1 {
        fill: #fff;
        stroke-width: 0px;
      }
    </style>
  </defs>
  <g id="Camada_2-2" data-name="Camada 2">
    <path class="cls-1" d="m85.58,0C38.32,0,0,38.32,0,85.58s38.32,85.58,85.58,85.58,85.58-38.32,85.58-85.58S132.84,0,85.58,0Zm-21.37,115.8c-4.62,2.67-10.14,2.66-14.75-.03-4.6-2.67-7.29-7.73-7.29-13.05v-5.08l-.39-52.3c-.01-1.53.15-3.06.47-4.55.42-2.23,1.2-4.35,2.33-6.32,5.48-9.5,17.66-12.79,27.18-7.33h.02s-.01,0-.02,0h0c.1.06.19.11.28.17,2.14,1.28,4,2.92,5.52,4.88.86,1.11,1.61,2.32,2.22,3.59l.15.29c1.04,1.95,1.6,4.3,2.14,6.57.14.61.28,1.18.41,1.69.73,2.79-.7,5.82-3.43,6.77-1.82.63-3.79.29-5.31-.94-.93-.75-1.54-1.81-1.85-2.96-.17-.66-.34-1.35-.5-2.03-.3-1.29-.77-3.26-1.16-3.98l-.32-.61v-.02c-.28-.59-.62-1.14-1.01-1.65-.68-.88-1.51-1.61-2.48-2.19-.06-.04-.11-.07-.16-.1-4.27-2.42-9.73-.94-12.18,3.32-.52.9-.88,1.87-1.06,2.91l-.04.21c-.13.66-.23,1.75-.23,2.42l.4,52.13v5.49c0,1.93,1.3,2.88,1.86,3.21.56.33,2.04.97,3.71,0l43.04-24.87c1.69-.97,3.79-.97,5.48,0,1.78,1.02,2.94,3.04,2.72,5.31-.17,1.8-1.3,3.37-2.86,4.27l-42.89,24.78Zm63.83,14.57c-.42,2.23-1.2,4.35-2.33,6.32-5.48,9.5-17.66,12.79-27.18,7.33h-.02s.01,0,.02,0h0c-.1-.06-.19-.11-.28-.17-2.14-1.28-4-2.92-5.52-4.88-.86-1.11-1.61-2.32-2.22-3.59l-.15-.29c-1.04-1.95-1.6-4.3-2.14-6.57-.14-.61-.28-1.18-.41-1.69-.73-2.79.7-5.82,3.43-6.77,1.82-.63,3.79-.29,5.31.94.93.75,1.54,1.81,1.85,2.96.17.66.34,1.35.5,2.03.3,1.29.77,3.26,1.16,3.98l.32.61v.02c.28.59.62,1.14,1.01,1.65.68.88,1.51,1.61,2.48,2.19.06.04.11.07.16.1,4.27,2.42,9.73.94,12.18-3.32.52-.9.88-1.87,1.06-2.91l.04-.21c.13-.66.23-1.75.23-2.42l-.4-52.13v-5.49c0-1.93-1.3-2.88-1.86-3.21-.56-.33-2.04-.97-3.71,0l-43.04,24.87c-1.69.97-3.79.97-5.48,0-1.78-1.02-2.94-3.04-2.72-5.31.17-1.8,1.3-3.37,2.86-4.27l42.89-24.78c4.62-2.67,10.15-2.64,14.75.03s7.29,7.73,7.29,13.05v5.08l.39,52.3c.01,1.53-.15,3.06-.47,4.55Z"/>
  </g>
</svg>