<svg width="42" height="42" viewBox="0 0 42 42" fill="none" xmlns="http://www.w3.org/2000/svg">
<path d="M20.603 41.2059C31.9817 41.2059 41.2059 31.9817 41.2059 20.603C41.2059 9.22426 31.9817 0 20.603 0C9.22426 0 0 9.22426 0 20.603C0 31.9817 9.22426 41.2059 20.603 41.2059Z" fill="#FDFDFD"/>
<path d="M17.2808 6.53623C14.9889 5.21694 12.0518 6.009 10.7325 8.29848C10.4605 8.77275 10.2727 9.28313 10.1716 9.81999C10.0946 10.1787 10.056 10.547 10.0585 10.9154L10.1523 23.5063V24.7293C10.1548 26.0101 10.8 27.2283 11.9074 27.871C13.0172 28.5187 14.3461 28.5211 15.4584 27.8783L25.7839 21.9126C26.1595 21.6959 26.4315 21.318 26.4724 20.8846C26.5254 20.3381 26.2461 19.8518 25.8176 19.6063C25.4108 19.3728 24.9052 19.3728 24.4983 19.6063L14.1367 25.5936C13.7346 25.8271 13.3783 25.673 13.2435 25.5936C13.1087 25.5142 12.7957 25.2854 12.7957 24.8208V23.4991L12.6994 10.9491C12.6994 10.7878 12.7235 10.5254 12.7548 10.3665L12.7644 10.3159C12.8078 10.0655 12.8944 9.83203 13.0196 9.61536C13.6094 8.58978 14.9239 8.23348 15.9519 8.81608C15.9639 8.8233 15.976 8.83053 15.9904 8.84016C16.2239 8.97979 16.4238 9.15553 16.5875 9.36739C16.6814 9.49017 16.7632 9.62258 16.8306 9.76462V9.76943L16.9077 9.91629C17.0015 10.0896 17.1147 10.5639 17.1869 10.8745C17.2254 11.0382 17.2664 11.2043 17.3073 11.3632C17.3819 11.64 17.5288 11.8952 17.7527 12.0758C18.1186 12.3719 18.5929 12.4537 19.031 12.3021C19.6883 12.0734 20.0325 11.3439 19.8568 10.6722C19.8255 10.5494 19.7918 10.4122 19.7581 10.2654C19.6281 9.71888 19.4933 9.15313 19.2429 8.68367L19.2068 8.61386C19.0599 8.30811 18.8794 8.01681 18.6723 7.74958C18.3064 7.27772 17.8586 6.8829 17.3434 6.57475C17.3217 6.5603 17.3001 6.54826 17.276 6.53382L17.2808 6.53623Z" fill="#92DF36"/>
<path d="M23.7157 34.6697C26.0075 35.9889 28.9446 35.1969 30.2639 32.9074C30.536 32.4331 30.7237 31.9228 30.8248 31.3859C30.9019 31.0272 30.9404 30.6588 30.938 30.2905L30.8441 17.6995V16.4766C30.8417 15.1958 30.1965 13.9776 29.0891 13.3348C27.9817 12.6921 26.6503 12.6848 25.5381 13.3276L15.2125 19.2933C14.837 19.5099 14.5649 19.8879 14.524 20.3213C14.471 20.8678 14.7503 21.3541 15.1788 21.5996C15.5857 21.8331 16.0913 21.8331 16.4981 21.5996L26.8598 15.6123C27.2618 15.3788 27.6181 15.5328 27.7529 15.6123C27.8878 15.6917 28.2007 15.9204 28.2007 16.3851V17.7068L28.297 30.2568C28.297 30.4181 28.273 30.6805 28.2417 30.8394L28.232 30.89C28.1887 31.1403 28.102 31.3739 27.9768 31.5905C27.387 32.6161 26.0725 32.9724 25.0446 32.3898C25.0325 32.3826 25.0205 32.3754 25.006 32.3657C24.7725 32.2261 24.5727 32.0504 24.409 31.8385C24.3151 31.7157 24.2333 31.5833 24.1658 31.4413V31.4365L24.0888 31.2896C23.9949 31.1163 23.8818 30.642 23.8095 30.3314C23.771 30.1677 23.7301 30.0016 23.6892 29.8427C23.6145 29.5659 23.4677 29.3107 23.2438 29.1301C22.8779 28.834 22.4036 28.7521 21.9654 28.9038C21.3082 29.1325 20.9639 29.862 21.1397 30.5337C21.171 30.6564 21.2047 30.7937 21.2384 30.9405C21.3684 31.487 21.5032 32.0528 21.7536 32.5222L21.7897 32.592C21.9365 32.8978 22.1171 33.1891 22.3241 33.4563C22.6901 33.9282 23.1379 34.323 23.6531 34.6311C23.6747 34.6456 23.6964 34.6576 23.7205 34.6721L23.7157 34.6697Z" fill="#02B1F1"/>
</svg>
