<?xml version="1.0" encoding="UTF-8"?>
<svg id="Camada_2" data-name="Camada 2" xmlns="http://www.w3.org/2000/svg" viewBox="0 0 931.24 174.43">
  <defs>
    <style>
      .cls-1 {
        fill: #fff;
      }
    </style>
  </defs>
  <g id="Camada_1-2" data-name="Camada 1">
    <g>
      <path class="cls-1" d="M816.86,42.65c-.18-5.22-4.06-9.33-9.16-9.86-.36-.04-.72-.06-1.08-.06-.37,0-.74,.02-1.1,.06-4.84,.51-8.76,4.49-9.2,9.36-.03,.31-.05,.61-.05,.92,0,.29,.02,.58,.05,.86,.44,5.33,4.77,9.38,10.22,9.4,5.53,.02,10.14-4.49,10.32-9.97,0-.12,.02-.24,.02-.37,0-.12-.01-.23-.02-.34Z"/>
      <path class="cls-1" d="M618.71,117.61c-12.66,0-25.47-8.19-25.47-23.83,0-13.43,11.83-23.56,27.53-23.56,7.51,0,12.88,1.76,16.02,3.21v-.2c0-7.24-7.49-9.18-11.91-9.18-8.88,0-18.46,4.55-18.56,4.59l-.32,.15c-.9,.43-1.98,0-2.35-.92l-5.58-14.18c-.33-.84,.04-1.78,.85-2.18l.28-.13c.51-.25,12.64-6.1,26.51-6.1,19.51,0,31.64,10.08,31.64,26.3v42.65c0,.95-.77,1.72-1.72,1.72h-15.87c-.95,0-1.72-.77-1.72-1.72h0c0-1.37-1.51-2.19-2.65-1.44-3.77,2.49-9.27,4.81-16.66,4.81Zm5.34-31.23c-1.02,0-10,.2-10,7.12,0,5.21,5.29,6.3,9.72,6.3,6.63,0,10.9-3.83,12.58-5.68,.28-.31,.43-.72,.43-1.14v-2.91c0-.72-.44-1.36-1.11-1.61-2.34-.89-6.46-2.08-11.63-2.08Z"/>
      <path class="cls-1" d="M694.17,117.61c-19.74,0-30.41-11.97-30.86-12.48h0c-.64-.74-.68-1.83-.08-2.6l10.64-13.82s.03-.01,.04,0l1.63,1.76c.08,.08,8.18,8.65,18.08,8.65,5.95,0,10.27-1.61,10.27-3.83s-.9-2.96-11.24-5.11c-17.32-3.69-25.74-11.06-25.74-22.55,0-10.82,10.51-22.32,29.99-22.32,15.21,0,25.26,8.06,25.68,8.41h0c.83,.67,1,1.87,.4,2.75l-9.43,13.84-1.72-1.31c-.07-.05-6.98-5.2-14.92-5.2-5.36,0-9.72,1.84-9.72,4.11s3.35,3.05,13.71,5.25c11.46,2.44,23.68,6.38,23.68,22.42,0,12.57-13.07,22.05-30.4,22.05Z"/>
      <path class="cls-1" d="M757.58,117.61c-19.74,0-30.41-11.97-30.86-12.48h0c-.64-.74-.68-1.83-.08-2.6l10.66-13.84,1.65,1.78c.08,.08,8.18,8.65,18.08,8.65,5.95,0,10.27-1.61,10.27-3.83s-.9-2.96-11.24-5.11c-17.32-3.69-25.74-11.06-25.74-22.55,0-10.82,10.51-22.32,29.99-22.32,15.21,0,25.26,8.06,25.68,8.41h0c.83,.67,1,1.87,.4,2.75l-9.43,13.84-1.72-1.31c-.07-.05-6.98-5.2-14.92-5.2-5.36,0-9.72,1.84-9.72,4.11s3.35,3.05,13.71,5.25c11.46,2.44,23.68,6.38,23.68,22.42,0,12.57-13.07,22.05-30.4,22.05Z"/>
      <path class="cls-1" d="M910.69,115.97v-39.58c0-8.16-2.87-11.64-9.59-11.64-6.28,0-9.82,5.33-10.68,6.82v44.4h-20.54v-39.58c0-8.16-2.87-11.64-9.59-11.64-6.28,0-9.82,5.33-10.68,6.82v44.4h-20.54V46.94h13.93c3.05,0,5.52,2.47,5.52,5.52h0c3.34-3.36,8.93-7.16,17.12-7.16,11.58,0,17.57,5.76,20.24,9.52,2.9-3.71,9.24-9.52,20.57-9.52,14.83,0,24.79,10.79,24.79,26.84v43.83h-20.54Z"/>
      <path class="cls-1" d="M796.31,115.97V58.46h14.37c3.41,0,6.17,2.76,6.17,6.17v51.34h-20.54Z"/>
    </g>
    <g>
      <path class="cls-1" d="M245.08,43.31c-9.15,0-15.32,4.08-18.85,7.42v-5.67h-20.05v100.47c0,3.23,2.62,5.85,5.85,5.85h15.51v-37.81c3.53,2.92,9.27,6.1,17.54,6.1,19.94,0,35.56-16.77,35.56-38.18s-15.62-38.18-35.56-38.18Zm-3.06,56.16c-8.99,0-13.47-6.48-14.49-8.16v-19.63c1.01-1.69,5.5-8.16,14.49-8.16,10.15,0,16.96,7.23,16.96,17.98s-6.82,17.98-16.96,17.98Z"/>
      <path class="cls-1" d="M317.68,43.31c-14.68,0-27.52,6.19-28.06,6.45l-.19,.09c-.81,.39-1.18,1.34-.85,2.18l6.52,16.55,1.89-.9c.1-.05,10.35-4.9,19.82-4.9,4.79,0,12.89,2.1,12.89,9.98v.57c-3.26-1.55-9.05-3.54-17.25-3.54-16.54,0-29.01,10.66-29.01,24.79,0,16.47,13.5,25.08,26.83,25.08,10.2,0,16.99-4.2,20.74-7.49v5.74h20.05v-46.91c0-17.09-12.79-27.7-33.38-27.7Zm12.02,50.56c0,.42-.14,.82-.42,1.13-1.73,1.96-6.33,6.21-13.63,6.21-4.82,0-10.56-1.2-10.56-6.92,0-7.58,9.74-7.8,10.85-7.8,5.7,0,10.2,1.35,12.67,2.31,.66,.26,1.1,.89,1.1,1.61v3.46Z"/>
      <path class="cls-1" d="M411.45,45.06v5.63c-3.51-3.34-9.66-7.38-18.85-7.38-19.94,0-35.56,16.77-35.56,38.18s15.62,38.18,35.56,38.18c8.27,0,14.01-3.18,17.54-6.1v3.57c0,10.19-6.28,15.8-17.69,15.8-12.2,0-21.33-9.48-21.42-9.57h0c-.83-.89-2.27-.8-2.99,.18l-10.89,14.73,1.17,1.19c.55,.56,13.75,13.67,34.12,13.67,18.01,0,39.05-9.58,39.05-36.58V50.91c0-3.23-2.62-5.85-5.85-5.85h-14.2Zm-1.31,46.23c-1.04,1.67-5.67,8.18-14.49,8.18-10.15,0-16.96-7.23-16.96-17.98s6.82-17.98,16.96-17.98c8.99,0,13.47,6.48,14.49,8.16v19.61Z"/>
      <path class="cls-1" d="M469.42,119.67c-13.55,0-27.27-9.62-27.27-27.99V45.06h15.51c3.23,0,5.85,2.62,5.85,5.85v35.96c0,8.71,3.62,12.6,11.72,12.6,6.67,0,10.72-5.5,11.73-7.04V45.06h21.36V117.92h-20.2v-6.31c-3.52,3.64-9.66,8.06-18.71,8.06Z"/>
      <path class="cls-1" d="M550.89,43.31c-20.85,0-36.58,16.41-36.58,38.18s17.15,38.18,39.05,38.18c17.28,0,28.48-9.97,28.95-10.4l1.25-1.13-9.67-14.49c-.69-1.03-2.14-1.17-3.01-.29h0c-.06,.06-6.48,6.4-17.52,6.4-8.58,0-14.42-5.37-16.62-10.06h48.77c1.04,0,1.89-.81,1.95-1.84h0c.15-2.67,.15-5.36,.15-6.66,0-21.6-15.79-37.89-36.72-37.89Zm-14.51,29.82c1.25-4.32,5.27-10.06,14.51-10.06s13.82,5.54,15.03,10.06h-29.55Z"/>
    </g>
    <path class="cls-1" d="M87.21,0C39.05,0,0,39.05,0,87.21s39.05,87.21,87.21,87.21,87.21-39.05,87.21-87.21S135.38,0,87.21,0Zm-21.78,118.01c-4.68,2.71-10.27,2.71-14.95,.02-4.69-2.7-7.49-7.54-7.49-12.94v-5.58s-.41-53.3-.41-53.3c-.01-1.55,.15-3.11,.48-4.63,.42-2.27,1.22-4.44,2.37-6.44,5.58-9.7,18.02-13.05,27.72-7.46,.09,.05,.19,.11,.28,.17,2.18,1.3,4.07,2.97,5.62,4.97,.88,1.13,1.64,2.36,2.26,3.66l.15,.3c1.06,1.99,1.63,4.39,2.18,6.7,.16,.69,.32,1.33,.47,1.89,.8,2.97-.96,6.05-3.94,6.85-1.44,.39-2.95,.19-4.25-.55-1.29-.74-2.22-1.95-2.61-3.38-.2-.72-.38-1.48-.55-2.23-.31-1.32-.79-3.32-1.19-4.06l-.32-.62v-.02c-.29-.6-.64-1.16-1.04-1.68-.69-.89-1.54-1.64-2.53-2.23-.06-.03-.11-.07-.16-.1-4.35-2.47-9.92-.96-12.41,3.38-.53,.92-.89,1.91-1.08,2.96l-.04,.21c-.16,.74-.24,1.49-.24,2.24l.4,53.35v5.6c0,1.97,1.33,2.94,1.9,3.27,.57,.33,2.07,.98,3.78,0l43.86-25.34c1.72-.99,3.86-1,5.59,0,.85,.49,1.55,1.19,2.05,2.05,1.54,2.67,.63,6.09-2.04,7.63l-43.86,25.34Zm65.04,14.84c-.42,2.27-1.22,4.44-2.37,6.44-5.58,9.7-18.02,13.05-27.72,7.46-.09-.05-.19-.11-.28-.17-2.18-1.3-4.07-2.97-5.62-4.97-.88-1.13-1.64-2.36-2.26-3.66l-.15-.3c-1.06-1.99-1.63-4.39-2.18-6.7-.16-.69-.32-1.33-.47-1.89-.8-2.97,.96-6.05,3.94-6.85,1.44-.39,2.95-.19,4.25,.55,1.29,.74,2.22,1.95,2.61,3.38,.2,.72,.38,1.48,.55,2.23,.31,1.32,.79,3.32,1.19,4.06l.32,.62v.02c.29,.6,.64,1.16,1.04,1.68,.69,.89,1.54,1.64,2.53,2.23,.06,.03,.11,.07,.16,.1,4.35,2.47,9.92,.96,12.41-3.38,.53-.92,.89-1.91,1.08-2.96l.04-.21c.16-.74,.24-1.49,.24-2.24l-.4-53.35v-5.6c0-1.97-1.33-2.94-1.9-3.27-.57-.33-2.07-.98-3.78,0l-43.86,25.34c-1.72,.99-3.86,1-5.59,0-.85-.49-1.55-1.19-2.05-2.05-1.54-2.67-.63-6.09,2.04-7.63l43.86-25.34c4.68-2.71,10.27-2.71,14.95-.02,4.69,2.7,7.49,7.54,7.49,12.94v5.58s.41,53.3,.41,53.3c.01,1.55-.15,3.11-.48,4.63Z"/>
  </g>
</svg>