<svg width="220" height="42" viewBox="0 0 220 42" fill="none" xmlns="http://www.w3.org/2000/svg">
<g id="Camada 1">
<g id="Group">
<path id="Vector" d="M192.981 10.0751C192.938 8.84247 192.023 7.86986 190.817 7.74467C190.733 7.73504 190.648 7.73022 190.562 7.73022C190.475 7.73022 190.388 7.73504 190.302 7.74467C189.158 7.86504 188.231 8.80635 188.13 9.95471C188.123 10.0269 188.118 10.0992 188.12 10.1738C188.12 10.2436 188.125 10.311 188.13 10.3784C188.234 11.6375 189.257 12.5957 190.545 12.6005C191.85 12.6053 192.94 11.5388 192.984 10.2436C192.984 10.2147 192.988 10.1858 192.988 10.1569C192.988 10.1305 192.986 10.104 192.984 10.0775L192.981 10.0751Z" fill="#92DF36"/>
<path id="Vector_2" d="M146.168 27.7843C143.178 27.7843 140.15 25.8511 140.15 22.1557C140.15 18.9826 142.945 16.5896 146.652 16.5896C148.424 16.5896 149.695 17.0061 150.437 17.348V17.2998C150.437 15.5881 148.667 15.1331 147.622 15.1331C145.525 15.1331 143.26 16.2069 143.238 16.2189L143.161 16.255C142.95 16.3561 142.694 16.255 142.608 16.0383L141.288 12.6896C141.211 12.4922 141.298 12.2683 141.488 12.1744L141.553 12.1431C141.674 12.0853 144.538 10.7034 147.817 10.7034C152.428 10.7034 155.293 13.0844 155.293 16.9147V26.9898C155.293 27.2137 155.11 27.3967 154.886 27.3967H151.137C150.913 27.3967 150.73 27.2137 150.73 26.9898C150.73 26.6672 150.374 26.4722 150.102 26.648C149.211 27.2354 147.911 27.7843 146.168 27.7843ZM147.43 20.4079C147.189 20.4079 145.068 20.456 145.068 22.0907C145.068 23.3209 146.318 23.5785 147.365 23.5785C148.93 23.5785 149.941 22.6733 150.336 22.2375C150.403 22.1629 150.439 22.0666 150.439 21.9679V21.2818C150.439 21.1132 150.336 20.9616 150.177 20.9014C149.623 20.6919 148.65 20.4103 147.43 20.4103V20.4079Z" fill="#FDFDFD"/>
<path id="Vector_3" d="M163.996 27.7843C159.33 27.7843 156.812 24.9556 156.706 24.8352C156.554 24.6619 156.547 24.4043 156.687 24.2189L159.2 20.9544C159.2 20.9544 159.207 20.952 159.21 20.9544L159.595 21.3709C159.614 21.3901 161.525 23.4148 163.866 23.4148C165.271 23.4148 166.292 23.0344 166.292 22.5096C166.292 21.9848 166.08 21.8114 163.637 21.3035C159.544 20.432 157.556 18.689 157.556 15.9758C157.556 13.4191 160.04 10.701 164.641 10.701C168.235 10.701 170.606 12.6053 170.707 12.6872C170.903 12.8461 170.943 13.1278 170.801 13.3372L168.572 16.6065L168.165 16.2984C168.151 16.2863 166.516 15.0706 164.641 15.0706C163.374 15.0706 162.344 15.5063 162.344 16.0408C162.344 16.5752 163.136 16.7606 165.584 17.2806C168.29 17.856 171.177 18.7877 171.177 22.577C171.177 25.5478 168.088 27.7867 163.996 27.7867V27.7843Z" fill="#FDFDFD"/>
<path id="Vector_4" d="M178.975 27.7843C174.309 27.7843 171.791 24.9556 171.685 24.8352C171.533 24.6619 171.526 24.4043 171.666 24.2189L174.184 20.9496L174.574 21.3709C174.593 21.3901 176.504 23.4148 178.845 23.4148C180.25 23.4148 181.271 23.0344 181.271 22.5096C181.271 21.9848 181.059 21.8114 178.616 21.3035C174.523 20.432 172.535 18.689 172.535 15.9758C172.535 13.4191 175.019 10.701 179.62 10.701C183.214 10.701 185.585 12.6053 185.686 12.6872C185.881 12.8461 185.922 13.1278 185.78 13.3372L183.551 16.6065L183.144 16.2984C183.13 16.2863 181.495 15.0706 179.62 15.0706C178.353 15.0706 177.323 15.5063 177.323 16.0408C177.323 16.5752 178.115 16.7606 180.563 17.2806C183.269 17.856 186.156 18.7877 186.156 22.577C186.156 25.5478 183.067 27.7867 178.972 27.7867L178.975 27.7843Z" fill="#FDFDFD"/>
<path id="Vector_5" d="M215.146 27.3967V18.0462C215.146 16.1178 214.47 15.2968 212.881 15.2968C211.398 15.2968 210.563 16.5559 210.358 16.9098V27.3991H205.505V18.0486C205.505 16.1202 204.828 15.2993 203.239 15.2993C201.756 15.2993 200.921 16.5583 200.716 16.9122V27.4015H195.863V11.091H199.154C199.874 11.091 200.459 11.6736 200.459 12.3959C201.248 11.6014 202.568 10.7034 204.503 10.7034C207.238 10.7034 208.654 12.0636 209.284 12.952C209.97 12.0757 211.468 10.7034 214.145 10.7034C217.648 10.7034 220.002 13.2529 220.002 17.0447V27.3991H215.149L215.146 27.3967Z" fill="#FDFDFD"/>
<path id="Vector_6" d="M188.123 27.3967V13.8115H191.518C192.322 13.8115 192.974 14.4639 192.974 15.268V27.3967H188.121H188.123Z" fill="#FDFDFD"/>
</g>
<g id="Group_2">
<path id="Vector_7" d="M57.8992 10.2313C55.7373 10.2313 54.2784 11.1943 53.4454 11.9839V10.643H48.7075V34.378C48.7075 35.1412 49.3262 35.7623 50.0918 35.7623H53.7559V26.8283C54.5889 27.5192 55.9467 28.2679 57.9016 28.2679C62.613 28.2679 66.3012 24.3053 66.3012 19.2496C66.3012 14.194 62.6105 10.2313 57.9016 10.2313H57.8992ZM57.1769 23.4988C55.0536 23.4988 53.9943 21.9676 53.7535 21.5704V16.9337C53.9943 16.5364 55.0536 15.0053 57.1769 15.0053C59.5747 15.0053 61.1829 16.7122 61.1829 19.252C61.1829 21.7919 59.5723 23.4988 57.1769 23.4988Z" fill="#02B1F1"/>
<path id="Vector_8" d="M75.05 10.2313C71.5808 10.2313 68.5474 11.6927 68.4199 11.7553L68.3741 11.7769C68.1839 11.8708 68.0972 12.0947 68.1743 12.2921L69.7151 16.2018L70.1628 15.9876C70.1869 15.9755 72.6088 14.8296 74.8453 14.8296C75.9768 14.8296 77.8908 15.3255 77.8908 17.1865V17.3213C77.1204 16.9553 75.7529 16.4835 73.8149 16.4835C69.9076 16.4835 66.9609 19.0017 66.9609 22.3408C66.9609 26.2313 70.1484 28.2655 73.2998 28.2655C75.7096 28.2655 77.313 27.2737 78.2013 26.4961V27.8515H82.9392V16.77C82.9392 12.7327 79.9178 10.2241 75.0548 10.2241L75.05 10.2313ZM77.8883 22.1771C77.8883 22.2758 77.8546 22.3697 77.7896 22.4443C77.3804 22.9066 76.2922 23.9129 74.5685 23.9129C73.4297 23.9129 72.0744 23.6288 72.0744 22.2782C72.0744 20.4871 74.3759 20.4365 74.6383 20.4365C75.9841 20.4365 77.0481 20.7567 77.6308 20.983C77.7872 21.0432 77.8908 21.1949 77.8908 21.3634V22.1795L77.8883 22.1771Z" fill="#02B1F1"/>
<path id="Vector_9" d="M97.2032 10.643V11.9743C96.3727 11.1847 94.921 10.2313 92.7494 10.2313C88.0381 10.2313 84.3499 14.194 84.3499 19.2496C84.3499 24.3053 88.0405 28.2679 92.7494 28.2679C94.7043 28.2679 96.0597 27.5168 96.8951 26.8259V27.6685C96.8951 30.0759 95.4121 31.4 92.7157 31.4C89.8316 31.4 87.677 29.1611 87.6553 29.1394C87.4579 28.93 87.1208 28.9517 86.9499 29.1828L84.3787 32.6615L84.6556 32.9432C84.7856 33.0756 87.9057 36.174 92.7157 36.174C96.9721 36.174 101.941 33.911 101.941 27.5337V12.0273C101.941 11.2641 101.322 10.643 100.557 10.643H97.2032ZM96.8951 21.5656C96.6495 21.9604 95.5541 23.4988 93.4717 23.4988C91.0739 23.4988 89.4657 21.7919 89.4657 19.252C89.4657 16.7122 91.0763 15.0053 93.4717 15.0053C95.5951 15.0053 96.6543 16.5364 96.8951 16.9337V21.568V21.5656Z" fill="#02B1F1"/>
<path id="Vector_10" d="M110.897 28.2704C107.695 28.2704 104.454 25.9978 104.454 21.6571V10.6431H108.118C108.882 10.6431 109.503 11.2618 109.503 12.0274V20.5232C109.503 22.5816 110.357 23.4988 112.271 23.4988C113.848 23.4988 114.804 22.2012 115.042 21.8353V10.6431H120.088V27.8587H115.317V26.3685C114.484 27.2304 113.035 28.2728 110.897 28.2728V28.2704Z" fill="#02B1F1"/>
<path id="Vector_11" d="M130.144 10.2313C125.219 10.2313 121.504 14.1098 121.504 19.2497C121.504 24.3896 125.556 28.268 130.729 28.268C134.812 28.268 137.458 25.9111 137.569 25.8124L137.863 25.5451L135.578 22.1217C135.417 21.8786 135.072 21.8449 134.868 22.0519C134.853 22.0664 133.337 23.5638 130.729 23.5638C128.702 23.5638 127.323 22.2951 126.803 21.1877H138.325C138.57 21.1877 138.773 20.9975 138.785 20.7519C138.821 20.1212 138.821 19.4856 138.821 19.1798C138.821 14.076 135.092 10.2289 130.144 10.2289V10.2313ZM126.716 17.278C127.012 16.2572 127.961 14.8994 130.144 14.8994C132.328 14.8994 133.409 16.2066 133.695 17.278H126.716Z" fill="#02B1F1"/>
</g>
<path id="Vector_12" d="M20.603 41.2059C31.9817 41.2059 41.2059 31.9817 41.2059 20.603C41.2059 9.22426 31.9817 0 20.603 0C9.22426 0 0 9.22426 0 20.603C0 31.9817 9.22426 41.2059 20.603 41.2059Z" fill="#FDFDFD"/>
<path id="Vector_13" d="M17.2808 6.53623C14.9889 5.21694 12.0518 6.009 10.7325 8.29848C10.4605 8.77275 10.2727 9.28313 10.1716 9.81999C10.0946 10.1787 10.056 10.547 10.0585 10.9154L10.1523 23.5063V24.7293C10.1548 26.0101 10.8 27.2283 11.9074 27.871C13.0172 28.5187 14.3461 28.5211 15.4584 27.8783L25.7839 21.9126C26.1595 21.6959 26.4315 21.318 26.4724 20.8846C26.5254 20.3381 26.2461 19.8518 25.8176 19.6063C25.4108 19.3728 24.9052 19.3728 24.4983 19.6063L14.1367 25.5936C13.7346 25.8271 13.3783 25.673 13.2435 25.5936C13.1087 25.5142 12.7957 25.2854 12.7957 24.8208V23.4991L12.6994 10.9491C12.6994 10.7878 12.7235 10.5254 12.7548 10.3665L12.7644 10.3159C12.8078 10.0655 12.8944 9.83203 13.0196 9.61536C13.6094 8.58978 14.9239 8.23348 15.9519 8.81608C15.9639 8.8233 15.976 8.83053 15.9904 8.84016C16.2239 8.97979 16.4238 9.15553 16.5875 9.36739C16.6814 9.49017 16.7632 9.62258 16.8306 9.76462V9.76943L16.9077 9.91629C17.0015 10.0896 17.1147 10.5639 17.1869 10.8745C17.2254 11.0382 17.2664 11.2043 17.3073 11.3632C17.3819 11.64 17.5288 11.8952 17.7527 12.0758C18.1186 12.3719 18.5929 12.4537 19.031 12.3021C19.6883 12.0734 20.0325 11.3439 19.8568 10.6722C19.8255 10.5494 19.7918 10.4122 19.7581 10.2654C19.6281 9.71888 19.4933 9.15313 19.2429 8.68367L19.2068 8.61386C19.0599 8.30811 18.8794 8.01681 18.6723 7.74958C18.3064 7.27772 17.8586 6.8829 17.3434 6.57475C17.3217 6.5603 17.3001 6.54826 17.276 6.53382L17.2808 6.53623Z" fill="#92DF36"/>
<path id="Vector_14" d="M23.7157 34.6697C26.0075 35.989 28.9446 35.197 30.2639 32.9075C30.536 32.4332 30.7237 31.9228 30.8248 31.386C30.9019 31.0272 30.9404 30.6589 30.938 30.2906L30.8441 17.6996V16.4766C30.8417 15.1959 30.1965 13.9777 29.0891 13.3349C27.9817 12.6921 26.6503 12.6849 25.5381 13.3277L15.2125 19.2933C14.837 19.51 14.5649 19.888 14.524 20.3213C14.471 20.8678 14.7503 21.3541 15.1788 21.5997C15.5857 21.8332 16.0913 21.8332 16.4981 21.5997L26.8598 15.6123C27.2618 15.3788 27.6181 15.5329 27.7529 15.6123C27.8878 15.6918 28.2007 15.9205 28.2007 16.3851V17.7068L28.297 30.2569C28.297 30.4182 28.273 30.6806 28.2417 30.8395L28.232 30.89C28.1887 31.1404 28.102 31.3739 27.9768 31.5906C27.387 32.6162 26.0725 32.9725 25.0446 32.3899C25.0325 32.3826 25.0205 32.3754 25.006 32.3658C24.7725 32.2262 24.5727 32.0504 24.409 31.8386C24.3151 31.7158 24.2333 31.5834 24.1658 31.4413V31.4365L24.0888 31.2897C23.9949 31.1163 23.8818 30.6421 23.8095 30.3315C23.771 30.1678 23.7301 30.0017 23.6892 29.8428C23.6145 29.5659 23.4677 29.3107 23.2438 29.1302C22.8779 28.8341 22.4036 28.7522 21.9654 28.9039C21.3082 29.1326 20.9639 29.862 21.1397 30.5337C21.171 30.6565 21.2047 30.7937 21.2384 30.9406C21.3684 31.4871 21.5032 32.0528 21.7536 32.5223L21.7897 32.5921C21.9365 32.8978 22.1171 33.1891 22.3241 33.4564C22.6901 33.9282 23.1379 34.323 23.6531 34.6312C23.6747 34.6456 23.6964 34.6577 23.7205 34.6721L23.7157 34.6697Z" fill="#02B1F1"/>
</g>
</svg>
