<svg width="56" height="34" viewBox="0 0 56 34" fill="none" xmlns="http://www.w3.org/2000/svg">
<g id="logo">
<g id="icon">
<path id="Vector" d="M35.1809 3.99707H20.417V30.0032H35.1809V3.99707Z" fill="#FF5F00"/>
<path id="&#60;Path&#62;" d="M21.3545 17.0023C21.3517 14.4974 21.9306 12.0247 23.0471 9.77143C24.1637 7.5182 25.7887 5.54353 27.799 3.99694C25.3099 2.07954 22.3205 0.887222 19.1727 0.556259C16.0248 0.225296 12.8455 0.769038 9.99804 2.12534C7.15057 3.48164 4.74986 5.59579 3.07028 8.22614C1.39069 10.8565 0.5 13.8969 0.5 17C0.5 20.103 1.39069 23.1435 3.07028 25.7738C4.74986 28.4042 7.15057 30.5183 9.99804 31.8746C12.8455 33.2309 16.0248 33.7747 19.1727 33.4437C22.3205 33.1128 25.3099 31.9205 27.799 30.0031C25.7893 28.4569 24.1647 26.483 23.0481 24.2306C21.9316 21.9783 21.3525 19.5065 21.3545 17.0023Z" fill="#EB001B"/>
<path id="Vector_2" d="M55.1003 17.0022C55.1003 20.1055 54.2094 23.1462 52.5295 25.7766C50.8496 28.4071 48.4485 30.5212 45.6007 31.8773C42.7529 33.2334 39.5732 33.7768 36.4252 33.4453C33.2772 33.1139 30.2878 31.921 27.7988 30.003C29.8078 28.4555 31.432 26.481 32.5488 24.2285C33.6656 21.976 34.2459 19.5043 34.2459 17C34.2459 14.4956 33.6656 12.0239 32.5488 9.77136C31.432 7.51886 29.8078 5.54438 27.7988 3.99689C30.2878 2.0789 33.2772 0.886002 36.4252 0.554564C39.5732 0.223126 42.7529 0.766518 45.6007 2.12263C48.4485 3.47874 50.8496 5.59284 52.5295 8.22329C54.2094 10.8537 55.1003 13.8944 55.1003 16.9977V17.0022Z" fill="#F79E1B"/>
</g>
</g>
</svg>
